<svg width="25" height="23" viewBox="0 0 25 23" fill="none" xmlns="http://www.w3.org/2000/svg">
<path d="M12.1163 21.5644C12.2796 21.5644 12.4469 21.5269 12.6182 21.4519C12.7895 21.3769 12.928 21.2857 13.0336 21.1781L22.7691 11.2663C23.0829 10.9468 23.325 10.62 23.4955 10.2859C23.666 9.95172 23.7513 9.58499 23.7513 9.18565C23.7513 8.78142 23.666 8.389 23.4955 8.00839C23.325 7.62781 23.0829 7.28022 22.7691 6.96565L18.0863 2.19801C17.7773 1.87853 17.4599 1.64422 17.1341 1.49507C16.8083 1.34593 16.4469 1.27137 16.0499 1.27137C15.6576 1.27137 15.2934 1.34593 14.9572 1.49507C14.621 1.64422 14.304 1.87853 14.0062 2.19801L12.9184 3.30556L15.2286 5.66491C15.4767 5.91268 15.6617 6.19467 15.7833 6.51088C15.905 6.82709 15.9658 7.14819 15.9658 7.47419C15.9658 8.13594 15.7533 8.68319 15.3282 9.11595C14.9032 9.54872 14.3657 9.76511 13.7157 9.76511C13.3955 9.76511 13.0829 9.71539 12.7779 9.61594C12.4729 9.51652 12.1988 9.34294 11.9554 9.09519L9.56601 6.6698L4.17477 12.1587C4.04829 12.2875 3.95344 12.4337 3.89021 12.5976C3.82696 12.7614 3.79533 12.9264 3.79533 13.0927C3.79533 13.3926 3.88979 13.6399 4.07871 13.8347C4.26762 14.0295 4.50937 14.1269 4.80395 14.1269C4.96724 14.1269 5.13454 14.0894 5.30585 14.0144C5.47715 13.9394 5.61564 13.8481 5.7213 13.7406L9.67886 9.7113L10.5626 10.611L6.61222 14.6403C6.48575 14.7691 6.39089 14.9154 6.32766 15.0792C6.26442 15.243 6.23279 15.408 6.23279 15.5743C6.23279 15.8579 6.33125 16.0999 6.52818 16.3004C6.72509 16.5009 6.96283 16.6011 7.2414 16.6011C7.4047 16.6011 7.572 16.5637 7.74331 16.4887C7.91461 16.4137 8.0531 16.3224 8.15876 16.2149L12.4045 11.8995L13.2882 12.7993L9.04968 17.1219C8.93923 17.2295 8.84837 17.3705 8.77711 17.5449C8.70587 17.7193 8.67025 17.8897 8.67025 18.0559C8.67025 18.3395 8.76871 18.5815 8.96564 18.782C9.16255 18.9825 9.40029 19.0828 9.67886 19.0828C9.84216 19.0828 10.0043 19.0506 10.1652 18.9862C10.3261 18.9218 10.4697 18.8252 10.5962 18.6965L14.842 14.3811L15.7257 15.2809L11.4799 19.6035C11.3534 19.7323 11.2586 19.8867 11.1954 20.0669C11.1321 20.247 11.1005 20.412 11.1005 20.562C11.1005 20.8619 11.2042 21.1039 11.4115 21.2881C11.6188 21.4723 11.8538 21.5644 12.1163 21.5644ZM12.1091 22.8358C11.4671 22.8358 10.9176 22.5966 10.4605 22.1182C10.0035 21.6398 9.80293 21.0493 9.85896 20.3468C9.15134 20.355 8.56219 20.1398 8.09152 19.7013C7.62082 19.2629 7.39749 18.6508 7.4215 17.8652C6.64984 17.8733 6.04188 17.6488 5.59762 17.1916C5.15336 16.7344 4.95123 16.1317 4.99126 15.3836C4.29643 15.3917 3.71529 15.1929 3.24782 14.787C2.78033 14.3812 2.54659 13.8164 2.54659 13.0927C2.54659 12.7667 2.60863 12.4403 2.73271 12.1135C2.85678 11.7866 3.04049 11.4994 3.28385 11.2516L9.56601 4.86296L12.7911 8.14653C12.8968 8.259 13.0273 8.3515 13.1826 8.42403C13.3378 8.49656 13.5131 8.53283 13.7085 8.53283C13.9758 8.53283 14.212 8.43789 14.4169 8.24801C14.6218 8.05811 14.7243 7.81077 14.7243 7.50598C14.7243 7.30711 14.6886 7.12862 14.6174 6.97051C14.5462 6.81241 14.4553 6.67958 14.3449 6.572L10.0487 2.19801C9.7397 1.87853 9.41831 1.64422 9.08452 1.49507C8.75071 1.34593 8.38529 1.27137 7.98825 1.27137C7.59602 1.27137 7.2398 1.34593 6.9196 1.49507C6.59942 1.64422 6.28244 1.87853 5.96865 2.19801L2.16719 6.07569C1.89981 6.34789 1.68367 6.67225 1.51878 7.04876C1.35388 7.42528 1.26663 7.81402 1.25704 8.21499C1.24742 8.50187 1.27143 8.77775 1.32906 9.04262C1.38671 9.30749 1.47797 9.55647 1.60285 9.78955L0.656674 10.7529C0.446947 10.4122 0.282842 10.0198 0.164356 9.57561C0.045892 9.13143 -0.00853256 8.6779 0.00108278 8.21499C0.0106773 7.63798 0.124344 7.08502 0.342084 6.55611C0.559803 6.02717 0.871188 5.55652 1.27624 5.14415L5.05369 1.29826C5.48915 0.859785 5.94983 0.533784 6.43571 0.320258C6.92162 0.106752 7.44713 0 8.01225 0C8.57739 0 9.09891 0.106752 9.57681 0.320258C10.0547 0.533784 10.509 0.859785 10.9396 1.29826L12.0275 2.40581L13.1153 1.29826C13.5508 0.859785 14.0074 0.533784 14.4853 0.320258C14.9632 0.106752 15.4847 0 16.0499 0C16.615 0 17.1405 0.106752 17.6264 0.320258C18.1123 0.533784 18.5706 0.859785 19.0012 1.29826L23.6528 6.03411C24.0835 6.47257 24.4157 6.96481 24.6494 7.51084C24.8831 8.05689 25 8.61761 25 9.19299C25 9.76835 24.8831 10.2993 24.6494 10.7859C24.4157 11.2724 24.0835 11.7349 23.6528 12.1734L13.9174 22.0778C13.658 22.3419 13.3759 22.5342 13.0709 22.6548C12.7659 22.7755 12.4453 22.8358 12.1091 22.8358Z" fill="white"/>
</svg>
