<svg width="25" height="23" viewBox="0 0 25 23" fill="none" xmlns="http://www.w3.org/2000/svg">
<path d="M12.1795 22.7457V21.367H21.3675C21.599 21.367 21.7993 21.2963 21.9685 21.1549C22.1376 21.0135 22.2222 20.8279 22.2222 20.5981V11.101C22.2222 8.5186 21.2656 6.36173 19.3523 4.6304C17.439 2.89907 15.1549 2.03341 12.5 2.03341C9.84509 2.03341 7.561 2.89907 5.64771 4.6304C3.73442 6.36173 2.77778 8.5186 2.77778 11.101V18.9278H2.08333C1.5153 18.9278 1.02608 18.7374 0.61566 18.3564C0.20522 17.9755 0 17.5032 0 16.9393V14.341C0 13.9291 0.134885 13.5637 0.404653 13.2446C0.674398 12.9256 1.00248 12.6662 1.38889 12.4665L1.41292 10.7722C1.45565 9.33345 1.78373 8.00071 2.39715 6.77401C3.01058 5.54733 3.8181 4.47972 4.81972 3.57118C5.82132 2.66266 6.98495 1.95476 8.31063 1.44746C9.6363 0.940171 11.0328 0.686523 12.5 0.686523C13.9672 0.686523 15.3624 0.940171 16.6854 1.44746C18.0084 1.95476 19.172 2.66134 20.1763 3.56722C21.1806 4.47309 21.9881 5.53937 22.5988 6.76604C23.2096 7.99274 23.539 9.3255 23.5871 10.7643L23.6111 12.424C23.9797 12.5955 24.3033 12.8262 24.582 13.116C24.8607 13.4059 25 13.7541 25 14.1607V17.1461C25 17.5526 24.8607 17.9008 24.582 18.1907C24.3033 18.4806 23.9797 18.7113 23.6111 18.8827V20.5981C23.6111 21.1973 23.3925 21.7051 22.9554 22.1214C22.5183 22.5376 21.989 22.7457 21.3675 22.7457H12.1795ZM8.86754 13.8372C8.58085 13.8372 8.33111 13.7404 8.11833 13.5469C7.90553 13.3533 7.79913 13.1143 7.79913 12.8297C7.79913 12.5451 7.90553 12.3016 8.11833 12.0992C8.33111 11.8969 8.58085 11.7957 8.86754 11.7957C9.1542 11.7957 9.40392 11.8969 9.6167 12.0992C9.8295 12.3016 9.9359 12.5451 9.9359 12.8297C9.9359 13.1143 9.8295 13.3533 9.6167 13.5469C9.40392 13.7404 9.1542 13.8372 8.86754 13.8372ZM16.1325 13.8372C15.8458 13.8372 15.5961 13.7404 15.3833 13.5469C15.1705 13.3533 15.0641 13.1143 15.0641 12.8297C15.0641 12.5451 15.1705 12.3016 15.3833 12.0992C15.5961 11.8969 15.8458 11.7957 16.1325 11.7957C16.4192 11.7957 16.6689 11.8969 16.8817 12.0992C17.0945 12.3016 17.2009 12.5451 17.2009 12.8297C17.2009 13.1143 17.0945 13.3533 16.8817 13.5469C16.6689 13.7404 16.4192 13.8372 16.1325 13.8372ZM5.16292 11.6472C5.0365 9.58268 5.70602 7.82307 7.17146 6.36836C8.63692 4.91364 10.4363 4.18629 12.5694 4.18629C14.3625 4.18629 15.9513 4.72053 17.3357 5.78903C18.7202 6.85752 19.5655 8.26142 19.8718 10.0007C18.0324 9.97774 16.3252 9.51198 14.7503 8.60344C13.1753 7.69492 11.9667 6.43111 11.1245 4.81201C10.7897 6.40283 10.093 7.79699 9.03444 8.99451C7.97586 10.192 6.68535 11.0763 5.16292 11.6472Z" fill="white"/>
</svg>
