<svg width="8" height="12" viewBox="0 0 8 12" fill="none" xmlns="http://www.w3.org/2000/svg">
<path d="M0.171875 0.394531H1.43164V4.30566H1.53418C1.53906 4.29102 1.54639 4.27637 1.55615 4.26172C1.56592 4.24707 1.57812 4.23242 1.59277 4.21777C1.72949 3.99316 1.87842 3.79297 2.03955 3.61719C2.20068 3.44141 2.42773 3.28516 2.7207 3.14844C3.01855 3.01172 3.38965 2.94336 3.83398 2.94336C4.49805 2.94336 5.08643 3.10938 5.59912 3.44141C6.11182 3.77344 6.51221 4.25195 6.80029 4.87695C7.08838 5.49707 7.23242 6.21973 7.23242 7.04492C7.23242 7.875 7.08838 8.6001 6.80029 9.22021C6.51221 9.84033 6.11182 10.3188 5.59912 10.6558C5.08643 10.9927 4.50293 11.1611 3.84863 11.1611C3.39941 11.1611 3.02344 11.0879 2.7207 10.9414C2.41797 10.7949 2.18359 10.6313 2.01758 10.4507C1.85156 10.2651 1.7002 10.0576 1.56348 9.82812C1.55859 9.81836 1.55371 9.81104 1.54883 9.80615C1.54395 9.80127 1.53906 9.79395 1.53418 9.78418H1.3877V11H0.171875V0.394531ZM1.40234 7.01562C1.40234 7.61621 1.49023 8.14355 1.66602 8.59766C1.8418 9.04688 2.09814 9.39844 2.43506 9.65234C2.77686 9.90625 3.18457 10.0332 3.6582 10.0332C4.14648 10.0332 4.56396 9.90137 4.91064 9.6377C5.25732 9.37402 5.51611 9.01514 5.68701 8.56104C5.86279 8.10693 5.95312 7.5918 5.95801 7.01562C5.95312 6.44922 5.86523 5.94385 5.69434 5.49951C5.52832 5.05518 5.27197 4.70605 4.92529 4.45215C4.57861 4.19824 4.15625 4.07129 3.6582 4.07129C3.17969 4.07129 2.77197 4.19336 2.43506 4.4375C2.09814 4.68164 1.8418 5.02588 1.66602 5.47021C1.49023 5.90967 1.40234 6.4248 1.40234 7.01562Z" fill="white"/>
</svg>
