<svg width="18" height="18" viewBox="0 0 18 18" fill="none" xmlns="http://www.w3.org/2000/svg">
<path d="M17.2225 18L10.3437 11.1211C9.79436 11.5887 9.16267 11.9507 8.44859 12.207C7.73451 12.4634 7.0169 12.5916 6.29577 12.5916C4.53619 12.5916 3.04701 11.9825 1.82822 10.7644C0.609406 9.54622 0 8.05783 0 6.29921C0 4.54059 0.609067 3.05106 1.8272 1.83064C3.04533 0.610212 4.53371 0 6.29233 0C8.05097 0 9.5405 0.609398 10.7609 1.82819C11.9813 3.04699 12.5915 4.53618 12.5915 6.29578C12.5915 7.05915 12.4563 7.79788 12.1859 8.51196C11.9155 9.22605 11.5606 9.83662 11.1211 10.3437L18 17.2225L17.2225 18ZM6.29577 11.493C7.75352 11.493 8.98415 10.9912 9.98766 9.98767C10.9912 8.98415 11.4929 7.75352 11.4929 6.29578C11.4929 4.83804 10.9912 3.60741 9.98766 2.60388C8.98415 1.60036 7.75352 1.09859 6.29577 1.09859C4.83803 1.09859 3.6074 1.60036 2.60388 2.60388C1.60037 3.60741 1.09862 4.83804 1.09862 6.29578C1.09862 7.75352 1.60037 8.98415 2.60388 9.98767C3.6074 10.9912 4.83803 11.493 6.29577 11.493Z" fill="#1D1D1D"/>
</svg>
