<svg width="13" height="9" viewBox="0 0 13 9" fill="none" xmlns="http://www.w3.org/2000/svg">
<g clip-path="url(#clip0_3_492)">
<path d="M13 2.82005C13 1.26085 11.7215 0 10.1486 0H2.85138C1.27845 0 0 1.2644 0 2.82005V6.1764C0 7.7356 1.27845 8.99645 2.85138 8.99645H10.145C11.7215 8.99645 12.9964 7.73204 12.9964 6.1764V2.82005H13ZM8.70856 4.75217L5.43702 6.35399C5.30773 6.42147 4.8732 6.32912 4.8732 6.18706V2.90174C4.8732 2.75612 5.31133 2.66377 5.44061 2.73481L8.5721 4.41831C8.70497 4.4929 8.84144 4.68114 8.70856 4.75217Z" fill="white"/>
</g>
<defs>
<clipPath id="clip0_3_492">
<rect width="13" height="9" fill="white"/>
</clipPath>
</defs>
</svg>
