<svg width="13" height="24" viewBox="0 0 13 24" fill="none" xmlns="http://www.w3.org/2000/svg">
<path d="M13 12.0107C13 12.2636 12.9583 12.497 12.8748 12.7108C12.7914 12.9246 12.6465 13.1339 12.4402 13.3386L2.05285 23.6464C1.83135 23.8662 1.55976 23.9836 1.23809 23.9987C0.916422 24.0138 0.629647 23.8963 0.377764 23.6464C0.12592 23.3964 -3.84926e-08 23.1194 -5.17867e-08 22.8153C-6.50808e-08 22.5111 0.12592 22.2341 0.377764 21.9841L10.4282 12.0107L0.377763 2.0372C0.156256 1.81738 0.037908 1.54788 0.0227201 1.22867C0.00757158 0.909466 0.125919 0.624887 0.377763 0.374933C0.629646 0.124979 0.908827 -3.97261e-08 1.21531 -5.31228e-08C1.52183 -6.65212e-08 1.80101 0.124979 2.05285 0.374933L12.4402 10.6827C12.6465 10.8874 12.7914 11.0967 12.8748 11.3105C12.9583 11.5243 13 11.7577 13 12.0107Z" fill="#666666" fill-opacity="0.6"/>
</svg>
