<svg width="51" height="46" viewBox="0 0 51 46" fill="none" xmlns="http://www.w3.org/2000/svg">
<path d="M25.5 36.601C28.4605 36.601 30.9623 35.5643 33.0056 33.491C35.0489 31.4177 36.0705 28.879 36.0705 25.875C36.0705 22.871 35.0489 20.3323 33.0056 18.259C30.9623 16.1857 28.4605 15.149 25.5 15.149C22.5395 15.149 20.0377 16.1857 17.9944 18.259C15.9511 20.3323 14.9295 22.871 14.9295 25.875C14.9295 28.879 15.9511 31.4177 17.9944 33.491C20.0377 35.5643 22.5395 36.601 25.5 36.601ZM25.5 33.726C23.2987 33.726 21.4589 32.9759 19.9805 31.4757C18.502 29.9755 17.7628 28.1086 17.7628 25.875C17.7628 23.6414 18.502 21.7745 19.9805 20.2743C21.4589 18.7741 23.2987 18.024 25.5 18.024C27.7013 18.024 29.5411 18.7741 31.0195 20.2743C32.498 21.7745 33.2372 23.6414 33.2372 25.875C33.2372 28.1086 32.498 29.9755 31.0195 31.4757C29.5411 32.9759 27.7013 33.726 25.5 33.726ZM4.5769 46C3.27285 46 2.18403 45.5568 1.31042 44.6703C0.436806 43.7839 0 42.679 0 41.3558V10.3942C0 9.07098 0.436806 7.96615 1.31042 7.07969C2.18403 6.19323 3.27285 5.75 4.5769 5.75H12.957L18.1987 0H32.8013L38.043 5.75H46.4231C47.7271 5.75 48.816 6.19323 49.6896 7.07969C50.5632 7.96615 51 9.07098 51 10.3942V41.3558C51 42.679 50.5632 43.7839 49.6896 44.6703C48.816 45.5568 47.7271 46 46.4231 46H4.5769ZM4.5769 43.125H46.4231C46.9316 43.125 47.3494 42.9591 47.6763 42.6274C48.0032 42.2957 48.1667 41.8718 48.1667 41.3558V10.3942C48.1667 9.87819 48.0032 9.45432 47.6763 9.12259C47.3494 8.79086 46.9316 8.625 46.4231 8.625H36.8006L31.5753 2.875H19.4247L14.1994 8.625H4.5769C4.06836 8.625 3.65063 8.79086 3.32371 9.12259C2.99679 9.45432 2.83333 9.87819 2.83333 10.3942V41.3558C2.83333 41.8718 2.99679 42.2957 3.32371 42.6274C3.65063 42.9591 4.06836 43.125 4.5769 43.125Z" fill="white"/>
</svg>
