<svg width="39" height="32" viewBox="0 0 39 32" fill="none" xmlns="http://www.w3.org/2000/svg">
<path d="M19.5 25.4615C21.7639 25.4615 23.6771 24.7404 25.2396 23.2981C26.8021 21.8558 27.5833 20.0897 27.5833 18C27.5833 15.9103 26.8021 14.1442 25.2396 12.7019C23.6771 11.2596 21.7639 10.5384 19.5 10.5384C17.2361 10.5384 15.3229 11.2596 13.7604 12.7019C12.1979 14.1442 11.4167 15.9103 11.4167 18C11.4167 20.0897 12.1979 21.8558 13.7604 23.2981C15.3229 24.7404 17.2361 25.4615 19.5 25.4615ZM19.5 23.4615C17.8167 23.4615 16.4097 22.9398 15.2792 21.8962C14.1486 20.8526 13.5833 19.5538 13.5833 18C13.5833 16.4462 14.1486 15.1475 15.2792 14.1039C16.4097 13.0603 17.8167 12.5384 19.5 12.5384C21.1833 12.5384 22.5903 13.0603 23.7208 14.1039C24.8514 15.1475 25.4167 16.4462 25.4167 18C25.4167 19.5538 24.8514 20.8526 23.7208 21.8962C22.5903 22.9398 21.1833 23.4615 19.5 23.4615ZM3.49998 32C2.50277 32 1.67014 31.6917 1.00208 31.075C0.334028 30.4583 0 29.6898 0 28.7693V7.23075C0 6.31025 0.334028 5.54167 1.00208 4.925C1.67014 4.30833 2.50277 4 3.49998 4H9.90833L13.9167 0H25.0833L29.0917 4H35.5C36.4972 4 37.3299 4.30833 37.9979 4.925C38.666 5.54167 39 6.31025 39 7.23075V28.7693C39 29.6898 38.666 30.4583 37.9979 31.075C37.3299 31.6917 36.4972 32 35.5 32H3.49998ZM3.49998 30H35.5C35.8889 30 36.2083 29.8846 36.4583 29.6539C36.7083 29.4231 36.8333 29.1282 36.8333 28.7693V7.23075C36.8333 6.87178 36.7083 6.57692 36.4583 6.34615C36.2083 6.11538 35.8889 6 35.5 6H28.1416L24.1458 2H14.8542L10.8584 6H3.49998C3.1111 6 2.79166 6.11538 2.54166 6.34615C2.29167 6.57692 2.16667 6.87178 2.16667 7.23075V28.7693C2.16667 29.1282 2.29167 29.4231 2.54166 29.6539C2.79166 29.8846 3.1111 30 3.49998 30Z" fill="white"/>
</svg>
