<svg width="170" height="98" viewBox="0 0 170 98" fill="none" xmlns="http://www.w3.org/2000/svg">
<g opacity="0.1">
<mask id="mask0_32_2395" style="mask-type:alpha" maskUnits="userSpaceOnUse" x="0" y="0" width="170" height="98">
<g clip-path="url(#clip0_32_2395)">
<path d="M169.969 1.89048C170.092 2.46982 169.786 3.07965 169.235 3.32358L125.091 22.9297L128.487 70.6795L128.548 70.893C128.701 71.3199 128.64 71.7467 128.364 72.0821C128.119 72.3871 127.752 72.5395 127.355 72.5395C127.202 72.5395 127.049 72.509 126.926 72.4785L90.583 58.7268L57.7578 97.5426C57.513 97.8171 57.1459 98 56.7788 98H56.5953C56.2588 97.9695 55.8917 97.7256 55.6775 97.3597L0.30592 2.13441L0.214144 1.89048L0.122368 1.799L0.0611841 1.67704L0 1.25016L0.0917761 0.853765L0.214144 0.640324L0.336512 0.487866C0.397697 0.396391 0.489473 0.304916 0.581249 0.274424C0.642433 0.213441 0.703617 0.18295 0.887169 0.121966H1.07072L1.28487 0L168.685 0.884256C169.296 0.884256 169.816 1.31114 169.939 1.89048H169.969ZM163.637 3.35408H154.735L37.9341 2.77474L37.6282 6.22029L123.592 20.8258L163.637 3.35408ZM125.121 59.3671L122.552 23.2346L35.8539 8.47666L15.5408 5.00062L106.674 37.0473L106.95 37.1998L107.225 37.5047L125.733 66.3192L125.121 59.3671ZM124.204 68.7281L106.093 40.4014L92.3268 56.6534L124.204 68.7281ZM56.9624 94.524L104.074 38.8463L4.12993 3.65899L56.9624 94.524Z" fill="white"/>
<path d="M154.735 3.35365L163.882 3.32316L123.592 20.8253L37.6283 6.21986L15.7244 2.65234L154.735 3.35365Z" fill="white"/>
<path d="M104.074 38.8465L56.9623 94.5241L4.12988 3.65918L104.074 38.8465Z" fill="white"/>
</g>
</mask>
<g mask="url(#mask0_32_2395)">
<rect x="-55" y="-15" width="199" height="117" fill="white"/>
</g>
</g>
<defs>
<clipPath id="clip0_32_2395">
<rect width="170" height="98" fill="white"/>
</clipPath>
</defs>
</svg>
