<svg width="14" height="14" viewBox="0 0 14 14" fill="none" xmlns="http://www.w3.org/2000/svg">
<path d="M7.00004 6.43606C6.24379 6.43606 5.59639 6.16679 5.05785 5.62825C4.51931 5.0897 4.25004 4.44231 4.25004 3.68606C4.25004 2.92979 4.51931 2.28239 5.05785 1.74385C5.59639 1.20531 6.24379 0.936035 7.00004 0.936035C7.75629 0.936035 8.40369 1.20531 8.94223 1.74385C9.48077 2.28239 9.75004 2.92979 9.75004 3.68606C9.75004 4.44231 9.48077 5.0897 8.94223 5.62825C8.40369 6.16679 7.75629 6.43606 7.00004 6.43606ZM0.583374 12.1123V11.5553C0.583374 11.1769 0.69355 10.8228 0.913901 10.4932C1.13425 10.1635 1.4307 9.90763 1.80325 9.72547C2.6682 9.31062 3.53374 8.99948 4.39987 8.79205C5.26601 8.58463 6.13274 8.48091 7.00004 8.48091C7.86734 8.48091 8.73407 8.58463 9.60021 8.79205C10.4663 8.99948 11.3319 9.31062 12.1968 9.72547C12.5694 9.90763 12.8658 10.1635 13.0862 10.4932C13.3065 10.8228 13.4167 11.1769 13.4167 11.5553V12.1123C13.4167 12.3815 13.3253 12.6074 13.1426 12.7901C12.9598 12.9729 12.7339 13.0643 12.4648 13.0643H1.53529C1.26617 13.0643 1.04023 12.9729 0.85748 12.7901C0.674743 12.6074 0.583374 12.3815 0.583374 12.1123ZM1.50004 12.1476H12.5V11.5553C12.5 11.352 12.4345 11.161 12.3035 10.9824C12.1724 10.8037 11.9912 10.6527 11.7596 10.5293C11.0052 10.1638 10.2273 9.88383 9.42591 9.68933C8.62457 9.49483 7.81595 9.39758 7.00004 9.39758C6.18413 9.39758 5.37551 9.49483 4.57417 9.68933C3.77282 9.88383 2.99491 10.1638 2.24043 10.5293C2.00891 10.6527 1.82763 10.8037 1.6966 10.9824C1.56556 11.161 1.50004 11.352 1.50004 11.5553V12.1476ZM7.00004 5.51939C7.50421 5.51939 7.9358 5.33988 8.29483 4.98085C8.65386 4.62182 8.83337 4.19023 8.83337 3.68606C8.83337 3.18189 8.65386 2.7503 8.29483 2.39127C7.9358 2.03224 7.50421 1.85273 7.00004 1.85273C6.49587 1.85273 6.06428 2.03224 5.70525 2.39127C5.34622 2.7503 5.16671 3.18189 5.16671 3.68606C5.16671 4.19023 5.34622 4.62182 5.70525 4.98085C6.06428 5.33988 6.49587 5.51939 7.00004 5.51939Z" fill="white"/>
</svg>
