<svg width="180" height="60" viewBox="0 0 180 60" fill="none" xmlns="http://www.w3.org/2000/svg">
<path d="M52.6549 45.6227C51.4249 45.1812 51.1919 44.8868 51.1919 44.3802C51.1919 43.8737 51.5458 43.4711 52.3873 43.4711C53.0045 43.4711 53.4144 43.6746 53.8633 44.0469L54.3035 43.5057C53.7856 43.0901 53.2591 42.8477 52.4305 42.8477C51.2825 42.8477 50.5057 43.4364 50.5057 44.4235C50.5057 45.3154 50.9545 45.7483 52.2837 46.2245C53.4101 46.6315 53.7511 46.9562 53.7511 47.5276C53.7511 48.1814 53.2418 48.5883 52.4262 48.5883C51.7918 48.5883 51.2566 48.2939 50.7905 47.848L50.3374 48.3589C50.8208 48.8524 51.5674 49.2161 52.4046 49.2161C53.6863 49.2161 54.4416 48.4628 54.4416 47.4973C54.4416 46.5319 54.0229 46.1206 52.6592 45.6271L52.6549 45.6227Z" fill="#3D3D3D"/>
<path d="M57.2296 44.3934C56.6297 44.3934 56.0859 44.5406 55.6802 44.7614L55.9306 45.2983C56.306 45.0775 56.703 44.9432 57.1864 44.9432C57.8596 44.9432 58.1876 45.2766 58.1876 45.9693V46.5148C57.9157 46.3633 57.4971 46.2464 57.0353 46.2464C56.1248 46.2464 55.2703 46.688 55.2703 47.727C55.2703 48.844 56.0255 49.2076 56.7419 49.2076C57.4065 49.2076 57.8596 48.8959 58.1876 48.5452V49.1124H58.8436V45.8827C58.8436 44.809 58.2221 44.3848 57.2296 44.3848V44.3934ZM58.1876 47.9824C57.9071 48.3677 57.4583 48.6751 56.8627 48.6751C56.2974 48.6751 55.9176 48.3764 55.9176 47.688C55.9176 47.1079 56.3233 46.7789 57.0008 46.7789C57.5619 46.7789 57.8855 46.8828 58.1876 47.0473V47.9868V47.9824Z" fill="#3D3D3D"/>
<path d="M65.4636 46.4067V49.1168H66.1196V46.2985C66.1196 44.9477 65.5326 44.3936 64.5918 44.3936C63.8409 44.3936 63.4655 44.7442 63.1936 45.1858C62.9735 44.7442 62.5808 44.3936 61.9291 44.3936C61.3853 44.3936 60.9969 44.6576 60.7596 45.0559V44.4931H60.095V49.1212H60.7596V46.411C60.7596 45.385 61.1523 44.965 61.7867 44.965C62.4211 44.965 62.7793 45.3503 62.7793 46.411V49.1212H63.4396V46.411C63.4396 45.385 63.8409 44.965 64.4667 44.965C65.1313 44.965 65.4593 45.3503 65.4593 46.411L65.4636 46.4067Z" fill="#3D3D3D"/>
<path d="M68.765 46.4235C67.9838 46.0684 67.7508 45.9169 67.7508 45.523C67.7508 45.1853 68.027 44.9515 68.5147 44.9515C69.0023 44.9515 69.3044 45.0814 69.6626 45.3671L70.0294 44.8779C69.6799 44.5878 69.1879 44.3887 68.5578 44.3887C67.7163 44.3887 67.1164 44.8649 67.1164 45.5662C67.1164 46.3066 67.5005 46.588 68.4283 46.9863C69.244 47.3369 69.5159 47.5491 69.5159 47.9301C69.5159 48.3803 69.2181 48.6444 68.5837 48.6444C68.1262 48.6444 67.6947 48.4582 67.3279 48.1335L66.9395 48.6141C67.3796 48.9691 67.932 49.2072 68.5664 49.2072C69.3648 49.2072 70.146 48.8132 70.146 47.8997C70.146 47.0728 69.6367 46.8174 68.7606 46.4191L68.765 46.4235Z" fill="#3D3D3D"/>
<path d="M73.9955 47.1941C73.9955 48.2072 73.4906 48.6358 72.8562 48.6358C72.1139 48.6358 71.7644 48.1898 71.7644 47.1941V44.4883H71.1084V47.3067C71.1084 48.6358 71.7514 49.2116 72.7224 49.2116C73.305 49.2116 73.7323 48.9388 73.9955 48.5492V49.1163H74.6558V44.4883H73.9955V47.1941Z" fill="#3D3D3D"/>
<path d="M79.3166 49.1168V46.2985C79.3166 44.965 78.6736 44.3936 77.6983 44.3936C77.12 44.3936 76.6884 44.6663 76.4295 45.0559V44.4931H75.7649V49.1212H76.4295V46.411C76.4295 45.398 76.9258 44.965 77.5645 44.965C78.3025 44.965 78.6564 45.4153 78.6564 46.411V49.1212H79.3166V49.1168Z" fill="#3D3D3D"/>
<path d="M81.3927 50.3112L81.6041 50.8134C83.3174 50.7614 83.9389 50.0904 83.9389 48.6963V44.4839H83.2786V45.0034C82.9549 44.6311 82.5579 44.3887 81.9796 44.3887C81.0129 44.3887 80.2361 45.2329 80.2361 46.8737C80.2361 48.5145 80.9697 49.2072 81.889 49.2072C82.5147 49.2072 82.9549 48.8955 83.2786 48.5448V48.7829C83.2786 49.8609 82.929 50.2679 81.3884 50.3068L81.3927 50.3112ZM82.0573 48.6357C81.3279 48.6357 80.8877 48.0296 80.8877 46.865C80.8877 45.6225 81.2632 44.9601 82.0314 44.9601C82.5795 44.9601 83.024 45.2675 83.2786 45.6528V47.969C82.9549 48.376 82.5493 48.6357 82.0573 48.6357Z" fill="#3D3D3D"/>
<path d="M91.2149 45.9869C91.2149 43.8698 90.0237 42.9434 88.4097 42.9434H86.7827V49.117H88.2889C89.9331 49.117 91.2149 48.2251 91.2149 45.9869ZM87.4689 43.5668H88.3579C89.7734 43.5668 90.5287 44.4326 90.5287 46.0085C90.5287 47.7835 89.7001 48.4892 88.3752 48.4892H87.4689V43.5668Z" fill="#3D3D3D"/>
<path d="M92.9713 45.0598V44.4884H92.311V49.1164H92.9713V46.3976C92.9713 45.5144 93.3338 44.9992 93.9769 44.9992C94.2833 44.9992 94.4818 45.0685 94.6674 45.1767L94.8314 44.51C94.676 44.4408 94.4559 44.3975 94.1107 44.3975C93.6144 44.3975 93.1785 44.6962 92.9713 45.0642V45.0598Z" fill="#3D3D3D"/>
<path d="M98.7758 48.6748L98.4651 48.1986C98.0421 48.48 97.7271 48.6402 97.1876 48.6402C96.4367 48.6402 95.9663 48.0124 95.9059 47.0297H98.9786C99.0002 46.9214 99.0088 46.8262 99.0088 46.6704C99.0088 45.3499 98.3529 44.3975 97.1488 44.3975C96.0526 44.3975 95.2456 45.3109 95.2456 46.7786C95.2456 48.6012 96.2727 49.216 97.1186 49.216C97.8134 49.216 98.2191 49.0298 98.7758 48.6792V48.6748ZM97.1488 44.9646C97.9558 44.9646 98.3442 45.5923 98.396 46.4885H95.9059C95.9836 45.4538 96.4626 44.9646 97.1488 44.9646Z" fill="#3D3D3D"/>
<path d="M101.21 49.2115C101.87 49.2115 102.323 48.8998 102.647 48.5491V49.1163H103.307V45.8866C103.307 44.8129 102.686 44.3887 101.693 44.3887C101.093 44.3887 100.55 44.5359 100.144 44.7567L100.39 45.2935C100.77 45.0727 101.162 44.9385 101.646 44.9385C102.323 44.9385 102.647 45.2719 102.647 45.9645V46.51C102.375 46.3585 101.961 46.2416 101.499 46.2416C100.584 46.2416 99.7253 46.6832 99.7253 47.7222C99.7253 48.8392 100.485 49.2029 101.206 49.2029L101.21 49.2115ZM101.465 46.7741C102.026 46.7741 102.354 46.878 102.651 47.0425V47.982C102.371 48.3673 101.922 48.6747 101.326 48.6747C100.765 48.6747 100.381 48.376 100.381 47.6876C100.381 47.1075 100.791 46.7785 101.465 46.7785V46.7741Z" fill="#3D3D3D"/>
<path d="M109.928 46.4067V49.1168H110.588V46.2985C110.588 44.9477 110.001 44.3936 109.06 44.3936C108.313 44.3936 107.934 44.7442 107.666 45.1858C107.446 44.7442 107.053 44.3936 106.402 44.3936C105.854 44.3936 105.469 44.6576 105.232 45.0559V44.4931H104.576V49.1212H105.232V46.411C105.232 45.385 105.629 44.965 106.264 44.965C106.898 44.965 107.26 45.3503 107.26 46.411V49.1212H107.916V46.411C107.916 45.385 108.318 44.965 108.948 44.965C109.612 44.965 109.94 45.3503 109.94 46.411L109.928 46.4067Z" fill="#3D3D3D"/>
<path d="M52.6549 54.8049C51.4206 54.3633 51.1962 54.0733 51.1962 53.5624C51.1962 53.0516 51.5501 52.6576 52.3916 52.6576C53.0088 52.6576 53.4231 52.8567 53.8676 53.2291L54.3078 52.6922C53.7899 52.2809 53.2591 52.0342 52.4348 52.0342C51.2825 52.0342 50.51 52.6143 50.51 53.6101C50.51 54.5019 50.9589 54.9305 52.2881 55.4067C53.4144 55.818 53.7554 56.1384 53.7554 56.7142C53.7554 57.3636 53.2461 57.7705 52.4262 57.7705C51.7918 57.7705 51.2566 57.4761 50.7905 57.0302L50.3374 57.5411C50.8208 58.0346 51.5674 58.3939 52.4046 58.3939C53.6863 58.3939 54.4372 57.645 54.4372 56.6752C54.4372 55.7054 54.0186 55.2985 52.6592 54.8049H52.6549Z" fill="#3D3D3D"/>
<path d="M57.2381 54.1471C57.7042 54.1471 58.0106 54.3116 58.3429 54.6147L58.7399 54.1211C58.3774 53.8007 57.8984 53.5713 57.2812 53.5713C56.3145 53.5713 55.2917 54.2943 55.2917 56.0044C55.2917 57.6192 56.2196 58.3898 57.2338 58.3898C57.8811 58.3898 58.3299 58.1431 58.7183 57.7448L58.3213 57.3248C58.0063 57.6322 57.7085 57.814 57.2597 57.814C56.444 57.814 55.9564 57.0824 55.9564 55.9438C55.9564 54.8051 56.5131 54.1384 57.2338 54.1384L57.2381 54.1471Z" fill="#3D3D3D"/>
<path d="M61.5579 53.5754C60.9796 53.5754 60.5437 53.8481 60.2805 54.2378V52.0645H59.6245V58.3073H60.2805V55.5972C60.2805 54.5841 60.7854 54.1512 61.4241 54.1512C62.1664 54.1512 62.516 54.5971 62.516 55.5972V58.3073H63.1763V55.4803C63.1763 54.1512 62.5332 53.5754 61.5579 53.5754Z" fill="#3D3D3D"/>
<path d="M66.1196 53.5762C64.9976 53.5762 64.1042 54.4204 64.1042 55.9919C64.1042 57.5635 64.9631 58.399 66.0851 58.399C67.2072 58.399 68.1091 57.5288 68.1091 55.9573C68.1091 54.3858 67.2417 53.5762 66.1196 53.5762ZM66.1067 57.8232C65.304 57.8232 64.7645 57.1911 64.7645 55.9746C64.7645 54.7581 65.304 54.152 66.1067 54.152C66.9094 54.152 67.4488 54.7581 67.4488 55.9746C67.4488 57.1911 66.9051 57.8232 66.1067 57.8232Z" fill="#3D3D3D"/>
<path d="M69.7621 52.0605H69.1018V58.3034H69.7621V52.0605Z" fill="#3D3D3D"/>
<path d="M72.7787 53.5762C72.1788 53.5762 71.6351 53.7277 71.2337 53.9485L71.4797 54.4897C71.8595 54.2689 72.2565 54.1347 72.7399 54.1347C73.4131 54.1347 73.7411 54.4723 73.7411 55.1564V55.7062C73.4692 55.5547 73.0549 55.4378 72.5931 55.4378C71.6782 55.4378 70.8237 55.8794 70.8237 56.9227C70.8237 58.0397 71.579 58.399 72.2997 58.399C72.96 58.399 73.4131 58.0916 73.7411 57.741V58.3081H74.4014V55.0828C74.4014 54.0004 73.7756 53.5805 72.783 53.5805L72.7787 53.5762ZM73.7368 57.1652C73.4606 57.5462 73.0031 57.8579 72.4119 57.8579C71.8508 57.8579 71.4711 57.5591 71.4711 56.8708C71.4711 56.2863 71.8767 55.966 72.5543 55.966C73.1153 55.966 73.439 56.0612 73.7368 56.23V57.1652Z" fill="#3D3D3D"/>
<path d="M76.3131 54.2471V53.667H75.6528V58.2993H76.3131V55.5805C76.3131 54.7017 76.667 54.1778 77.3143 54.1778C77.6251 54.1778 77.8236 54.2471 78.0092 54.3553L78.1775 53.6843C78.0178 53.615 77.802 53.5674 77.4568 53.5674C76.9648 53.5674 76.5203 53.8661 76.3174 54.2428L76.3131 54.2471Z" fill="#3D3D3D"/>
<path d="M80.7063 55.6109C79.9252 55.2559 79.6878 55.0958 79.6878 54.7105C79.6878 54.3771 79.9683 54.139 80.4517 54.139C80.935 54.139 81.2457 54.2732 81.6039 54.5546L81.9708 54.0697C81.6169 53.7796 81.1292 53.5762 80.4948 53.5762C79.6576 53.5762 79.0491 54.0524 79.0491 54.7581C79.0491 55.4638 79.4375 55.7798 80.361 56.1738C81.1767 56.5244 81.4486 56.7409 81.4486 57.1175C81.4486 57.5721 81.1508 57.8319 80.5207 57.8319C80.0589 57.8319 79.6317 57.6457 79.2606 57.321L78.8765 57.8059C79.3167 58.1609 79.8691 58.3947 80.5034 58.3947C81.3018 58.3947 82.083 57.9964 82.083 57.0916C82.083 56.2603 81.5737 56.0092 80.702 55.6109H80.7063Z" fill="#3D3D3D"/>
<path d="M85.0954 53.5754C84.5085 53.5754 84.0813 53.8481 83.818 54.2378V52.0645H83.1577V58.3073H83.818V55.5972C83.818 54.5841 84.3186 54.1512 84.9616 54.1512C85.6996 54.1512 86.0492 54.5971 86.0492 55.5972V58.3073H86.7095V55.4803C86.7095 54.1512 86.0708 53.5754 85.0954 53.5754Z" fill="#3D3D3D"/>
<path d="M88.6687 53.667H88.0127V58.2994H88.6687V53.667Z" fill="#3D3D3D"/>
<path d="M88.3535 51.9004C88.086 51.9004 87.8745 52.1125 87.8745 52.3809C87.8745 52.6494 88.086 52.8485 88.3535 52.8485C88.5995 52.8485 88.811 52.632 88.811 52.3809C88.811 52.1125 88.5995 51.9004 88.3535 51.9004Z" fill="#3D3D3D"/>
<path d="M92.0477 53.5762C91.4263 53.5762 90.9861 53.8879 90.6581 54.2386V53.6714H89.9978V60.0052H90.6581V57.7843C90.9818 58.1523 91.3788 58.399 91.9614 58.399C92.9238 58.399 93.7006 57.5505 93.7006 55.914C93.7006 54.2775 92.9669 53.5762 92.0477 53.5762ZM91.9053 57.8232C91.3615 57.8232 90.9127 57.5158 90.6581 57.1262V54.8144C90.9818 54.4117 91.3874 54.1476 91.8794 54.1476C92.6131 54.1476 93.0533 54.7537 93.0533 55.9183C93.0533 57.1608 92.6735 57.8189 91.9096 57.8189L91.9053 57.8232Z" fill="#3D3D3D"/>
<path d="M97.192 52.7533H100.118V52.1299H96.5059V58.3035H97.192V55.4245H98.8794V54.8011H97.192V52.7533Z" fill="#3D3D3D"/>
<path d="M102.121 53.5762C100.998 53.5762 100.101 54.4204 100.101 55.9919C100.101 57.5635 100.964 58.399 102.086 58.399C103.208 58.399 104.11 57.5288 104.11 55.9573C104.11 54.3858 103.251 53.5762 102.121 53.5762ZM102.103 57.8232C101.301 57.8232 100.77 57.1911 100.77 55.9746C100.77 54.7581 101.305 54.152 102.103 54.152C102.902 54.152 103.45 54.7581 103.45 55.9746C103.45 57.1911 102.906 57.8232 102.103 57.8232Z" fill="#3D3D3D"/>
<path d="M107.748 56.3771C107.748 57.3902 107.252 57.8231 106.609 57.8231C105.871 57.8231 105.517 57.3772 105.517 56.3771V53.667H104.861V56.4897C104.861 57.8188 105.504 58.3946 106.479 58.3946C107.053 58.3946 107.485 58.1262 107.748 57.7366V58.3037H108.413V53.6713H107.748V56.3815V56.3771Z" fill="#3D3D3D"/>
<path d="M111.451 53.5756C110.872 53.5756 110.441 53.8484 110.178 54.238V53.6709H109.517V58.3032H110.178V55.5931C110.178 54.58 110.678 54.1471 111.321 54.1471C112.059 54.1471 112.409 54.593 112.409 55.5931V58.3032H113.069V55.4762C113.069 54.1471 112.426 53.5713 111.451 53.5713V53.5756Z" fill="#3D3D3D"/>
<path d="M117.035 54.1949C116.707 53.8226 116.314 53.5715 115.732 53.5715C114.765 53.5715 113.993 54.4157 113.993 56.0608C113.993 57.706 114.722 58.3943 115.646 58.3943C116.271 58.3943 116.707 58.087 117.031 57.7363V58.3034H117.691V52.0605H117.031V54.1949H117.035ZM117.035 57.1518C116.707 57.5544 116.306 57.8185 115.814 57.8185C115.085 57.8185 114.644 57.2124 114.644 56.0479C114.644 54.801 115.02 54.1429 115.788 54.1429C116.332 54.1429 116.776 54.4503 117.035 54.84V57.1475V57.1518Z" fill="#3D3D3D"/>
<path d="M120.488 53.5762C119.892 53.5762 119.348 53.7277 118.943 53.9485L119.184 54.4897C119.564 54.2689 119.961 54.1347 120.445 54.1347C121.118 54.1347 121.442 54.4723 121.442 55.1564V55.7062C121.17 55.5547 120.755 55.4378 120.289 55.4378C119.379 55.4378 118.524 55.8794 118.524 56.9227C118.524 58.0397 119.284 58.399 120.004 58.399C120.665 58.399 121.118 58.0916 121.442 57.741V58.3081H122.102V55.0828C122.102 54.0004 121.48 53.5805 120.483 53.5805L120.488 53.5762ZM121.442 57.1652C121.161 57.5462 120.716 57.8579 120.112 57.8579C119.556 57.8579 119.18 57.5591 119.18 56.8708C119.18 56.2863 119.581 55.966 120.259 55.966C120.82 55.966 121.148 56.0612 121.442 56.23V57.1652Z" fill="#3D3D3D"/>
<path d="M124.208 52.0605H123.543V53.6667H122.974V54.2252H123.543V57.3466C123.543 58.1129 123.854 58.39 124.428 58.39C124.773 58.39 125.019 58.3381 125.274 58.2342L125.321 57.6627C125.11 57.7493 124.937 57.7926 124.67 57.7926C124.32 57.7926 124.208 57.6497 124.208 57.2384V54.2252H125.352V53.6667H124.208V52.0605Z" fill="#3D3D3D"/>
<path d="M126.849 51.9004C126.577 51.9004 126.361 52.1125 126.361 52.3809C126.361 52.6494 126.577 52.8485 126.849 52.8485C127.095 52.8485 127.302 52.632 127.302 52.3809C127.302 52.1125 127.091 51.9004 126.849 51.9004Z" fill="#3D3D3D"/>
<path d="M127.164 53.667H126.504V58.2994H127.164V53.667Z" fill="#3D3D3D"/>
<path d="M130.176 53.5762C129.054 53.5762 128.156 54.4204 128.156 55.9919C128.156 57.5635 129.015 58.399 130.142 58.399C131.268 58.399 132.161 57.5288 132.161 55.9573C132.161 54.3858 131.298 53.5762 130.176 53.5762ZM130.159 57.8232C129.361 57.8232 128.821 57.1911 128.821 55.9746C128.821 54.7581 129.361 54.152 130.159 54.152C130.957 54.152 131.505 54.7581 131.505 55.9746C131.505 57.1911 130.962 57.8232 130.159 57.8232Z" fill="#3D3D3D"/>
<path d="M135.049 53.5756C134.47 53.5756 134.039 53.8484 133.771 54.238V53.6709H133.111V58.3032H133.771V55.5931C133.771 54.58 134.272 54.1471 134.915 54.1471C135.653 54.1471 136.007 54.593 136.007 55.5931V58.3032H136.663V55.4762C136.663 54.1471 136.02 53.5713 135.049 53.5713V53.5756Z" fill="#3D3D3D"/>
<path d="M75.7261 30.79C73.0763 30.7944 70.8926 32.8724 70.8926 35.4787C70.8926 38.0849 73.0763 40.1414 75.7261 40.15C78.4017 40.1414 80.5639 38.059 80.5639 35.4787C80.5639 32.8984 78.4017 30.7944 75.7261 30.79ZM75.6613 38.0113C74.276 38.0113 73.2316 36.8771 73.2316 35.4787C73.2316 34.0803 74.3494 32.9244 75.7304 32.9244C77.1114 32.9244 78.1903 34.0587 78.1903 35.4787C78.1903 36.8987 77.0596 38.0113 75.6656 38.0113H75.6613Z" fill="#3D3D3D"/>
<path d="M53.5482 27.565C54.2861 28.2967 55.132 28.9374 55.9649 29.3487L56.0512 29.3963L57.4797 27.7036L57.3416 27.6256C55.9865 26.8896 54.9248 25.9588 54.23 24.7856C53.5395 23.6297 53.1856 22.2876 53.1856 20.6814V19.1748H50.6308V20.5212C50.6308 22.2616 50.2381 23.6297 49.5001 24.8289C48.6758 26.158 47.4545 27.2273 45.8922 28.2187L45.7542 28.3053L47.3035 29.9158L47.3898 29.8682C48.3133 29.366 49.293 28.5911 50.1431 27.7252C50.8811 26.9676 51.5198 26.158 51.9082 25.3917C52.2837 26.145 52.8577 26.9113 53.5482 27.5693V27.565Z" fill="#3D3D3D"/>
<path d="M50.7817 39.0414H61.4758V31.7119H50.7817V39.0414ZM53.1855 33.7813H59.072V36.972H53.1855V33.7813Z" fill="#3D3D3D"/>
<path d="M86.4375 39.0414H98.5299V31.7119H86.4375V39.0414ZM88.8154 33.7813H96.1563V36.972H88.8154V33.7813Z" fill="#3D3D3D"/>
<path d="M61.519 18.7412H59.1411V30.872H61.519V25.5036H64.3026V23.3476H61.519V18.7412Z" fill="#3D3D3D"/>
<path d="M110.821 28.1841C111.602 28.8638 112.495 29.4352 113.337 29.8032L113.423 29.8422L114.709 28.0975L114.571 28.0282C113.345 27.4005 112.254 26.6212 111.468 25.6687C110.67 24.699 110.195 23.53 110.195 22.123V21.7117H113.734V19.625H104.127V21.7117H107.662V22.2139C107.662 23.4954 107.239 24.6903 106.535 25.725C105.711 26.9675 104.507 27.9676 103.337 28.617L103.182 28.6992L104.762 30.3401L104.848 30.2968C105.698 29.8119 106.639 29.0802 107.442 28.2577C108.085 27.5823 108.663 26.8679 109.017 26.1536C109.444 26.8463 110.1 27.539 110.825 28.1841H110.821Z" fill="#3D3D3D"/>
<path d="M128.018 33.8292H136.662V39.0373H139.062V31.7598H128.018V33.8292Z" fill="#3D3D3D"/>
<path d="M133.983 25.4865C133.983 24.3392 133.469 23.2829 132.709 22.4776H135.083V20.4125H130.552V18.1396H127.975V20.4125H123.336V22.4776H125.761C125.019 23.2829 124.505 24.3306 124.505 25.4865C124.505 28.0451 126.607 30.1232 129.235 30.1319C131.864 30.1232 133.978 28.0451 133.983 25.4865ZM126.797 25.3913C126.797 23.9756 127.988 22.7763 129.235 22.7763C130.483 22.7763 131.669 23.9799 131.674 25.3913C131.674 26.7853 130.483 27.9888 129.235 27.9932C127.984 27.9888 126.801 26.7853 126.797 25.3913Z" fill="#3D3D3D"/>
<path d="M139.062 18.7412H136.688V30.9153H139.062V26.2699H141.854V24.1139H139.062V18.7412Z" fill="#3D3D3D"/>
<path d="M118.921 18.7412H116.548V30.9153H118.921V25.5036H121.709V23.3476H118.921V18.7412Z" fill="#3D3D3D"/>
<path d="M78.6304 22.3519H74.8931V24.4862H78.6304V31.3006H81.0083V18.7412H78.6304V22.3519Z" fill="#3D3D3D"/>
<path d="M72.5931 27.8811C73.3353 28.6084 74.2028 29.2491 75.0314 29.6821L75.122 29.734L76.5505 28.0412L76.4124 27.9633C75.0573 27.249 74.0172 26.3225 73.3181 25.1666C72.6103 24.0193 72.2564 22.6253 72.2564 21.0191V19.1748H69.6973V20.8632C69.6973 22.6036 69.3089 23.9674 68.5882 25.1449C67.7682 26.4957 66.521 27.5737 64.9587 28.5564L64.825 28.643L66.3829 30.2579L66.4606 30.2059C67.3798 29.6994 68.3379 28.9677 69.188 28.1322C69.9562 27.3659 70.5949 26.5303 70.9833 25.7294C71.3502 26.461 71.9112 27.2057 72.5931 27.8854V27.8811Z" fill="#3D3D3D"/>
<path d="M113.824 30.79C111.175 30.7944 108.991 32.8724 108.987 35.4787C108.991 38.059 111.17 40.1414 113.824 40.15C116.496 40.1414 118.662 38.059 118.662 35.4787C118.662 32.8984 116.496 30.7944 113.824 30.79ZM113.755 38.0113C112.374 38.0113 111.321 36.8771 111.321 35.4787C111.321 34.0803 112.435 32.9244 113.824 32.9244C115.214 32.9244 116.28 34.0587 116.284 35.4787C116.284 36.8727 115.149 38.0113 113.755 38.0113Z" fill="#3D3D3D"/>
<path d="M89.3331 25.6982H91.711V19.5029H85.2937V21.5637H89.3331V25.6982Z" fill="#3D3D3D"/>
<path d="M96.4714 25.6982H98.8536V19.5029H92.4363V21.5637H96.4714V25.6982Z" fill="#3D3D3D"/>
<path d="M157.084 24.2265H155.086V19.0789H152.837V38.5175H155.086V26.5643H157.084V39.037H159.414V18.7412H157.084V24.2265Z" fill="#3D3D3D"/>
<path d="M149.54 26.9153C149.005 25.7421 148.785 24.4303 148.785 22.8198V22.0535H151.482V19.8672H143.645V22.0535H146.429V22.8631C146.429 24.387 146.23 25.6338 145.751 26.7898C145.195 28.1189 144.258 29.3138 142.765 30.5952L142.661 30.6905L144.137 32.1581L144.228 32.0889C144.97 31.539 145.747 30.7424 146.394 29.9199C146.942 29.2272 147.404 28.5085 147.693 27.8764C147.991 28.4912 148.457 29.1969 149.001 29.8549C149.631 30.6255 150.343 31.3572 151.025 31.7945L151.116 31.8551L152.359 30.3658L152.259 30.2749C150.921 29.1059 150.093 28.0626 149.549 26.911L149.54 26.9153Z" fill="#3D3D3D"/>
<path d="M83.3042 28.5816H91.1975V30.8934H93.7739V28.5816H101.792V26.5078H83.3042V28.5816Z" fill="#3D3D3D"/>
<path d="M172.953 27.92H164.917V21.7853H171.036V19.625H162.509V30.0154H172.953V27.92Z" fill="#3D3D3D"/>
<path d="M168.408 32.5693H166.004V39.0373H177.247V36.9073H168.408V32.5693Z" fill="#3D3D3D"/>
<path d="M177.19 24.3611V18.7373H174.817V33.7124H177.19V26.5171H180V24.3611H177.19Z" fill="#3D3D3D"/>
<path d="M50.4106 12.4771L44.2522 9.91846L50.4106 7.35984L49.3145 4.71463L43.1604 7.27325L45.7109 1.09532L43.0698 0L40.5236 6.17794L37.973 0L35.3319 1.09532L37.8824 7.27325L31.7283 4.71463L30.6365 7.35984L36.7905 9.91846L30.6365 12.4771L31.7283 15.1223L37.8824 12.5637L35.3319 18.7416L37.973 19.8369L40.5236 13.6633L43.0698 19.8369L45.7109 18.7373L43.1604 12.5637L49.3145 15.1223L50.4106 12.4771Z" fill="#3D3D3D"/>
<path d="M10.5647 29.7117H14.6602V18.7412H0.656006V22.4384H10.5647V29.7117Z" fill="#3D3D3D"/>
<path d="M26.541 29.7117H30.6365V18.7412H16.6323V22.4384H26.541V29.7117Z" fill="#3D3D3D"/>
<path d="M0 35.3877H26.541V41.0374H30.6366V31.6904H0V35.3877Z" fill="#3D3D3D"/>
<path d="M9.90869 58.3022H30.6366V42.9375H9.90869V58.3022ZM14.0042 46.6347H26.5454V54.605H14.0042V46.6347Z" fill="#3D3D3D"/>
</svg>
