<svg width="49" height="50" viewBox="0 0 49 50" fill="none" xmlns="http://www.w3.org/2000/svg">
<circle cx="22" cy="22" r="22" fill="white"/>
<g clip-path="url(#clip0_78_16)">
<path d="M47.9073 46.4194V48.9738H23.5864C20.5224 48.9738 18.0315 46.4954 18.0315 43.4545C18.0315 40.4137 20.5224 37.9277 23.5864 37.9277H47.9073V40.4897H23.5864C21.9131 40.4897 20.6065 41.7897 20.6065 43.4545C20.6065 45.1194 21.9131 46.4194 23.5864 46.4194H47.9073Z" fill="#B9E0FF"/>
<path d="M42.36 33.6322H19.743V32.0206H33.8252C34.062 32.0206 34.276 31.8077 34.276 31.572C34.276 31.3364 34.062 31.1159 33.8252 31.1159H19.743V29.375H42.36C43.552 29.375 44.4995 30.3101 44.4995 31.5036C44.4995 32.6972 43.552 33.6322 42.36 33.6322Z" fill="#B9E0FF"/>
<path d="M47.9073 22.6472V25.2091H23.5864C20.5224 25.2091 18.0315 22.7308 18.0315 19.6823C18.0315 16.6338 20.5224 14.1631 23.5864 14.1631H47.9073V16.7174H23.5864C21.9131 16.7174 20.6065 18.025 20.6065 19.6823C20.6065 21.3396 21.9131 22.6472 23.5864 22.6472H47.9073Z" fill="#B9E0FF"/>
<path d="M46.2035 45.5835V43.9718H32.1213C31.8844 43.9718 31.6629 43.759 31.6629 43.5233C31.6629 43.2876 31.8844 43.0672 32.1213 43.0672H46.2035V41.3262H23.5865C22.3868 41.3262 21.447 42.2613 21.447 43.4549C21.447 44.6484 22.3868 45.5835 23.5865 45.5835H46.2035ZM46.2035 21.8113V20.2073H32.1213C31.8844 20.2073 31.6629 19.9868 31.6629 19.7511C31.6629 19.5155 31.8844 19.3026 32.1213 19.3026H46.2035V17.5541H23.5865C22.3868 17.5541 21.447 18.4892 21.447 19.6827C21.447 20.8763 22.3868 21.8113 23.5865 21.8113H46.2035ZM48.3658 26.0458H45.7908L46.639 26.7984C48.0143 28.0148 48.8014 29.7481 48.8014 31.5726C48.8014 33.3971 48.0143 35.1304 46.639 36.3392L45.7908 37.0918H48.3658C48.5339 37.0918 48.7631 37.3047 48.8166 37.4643V40.8017C48.8166 41.045 48.6027 41.2578 48.3658 41.2578H47.044V45.5151H48.3658C48.6027 45.5151 48.8166 45.7279 48.8166 45.9636V49.3618C48.8166 49.5975 48.6027 49.8103 48.3658 49.8103H23.5865C20.064 49.8103 17.191 46.9595 17.191 43.4549C17.191 41.5999 17.9857 39.859 19.361 38.6883L20.255 37.9281H17.6495C17.4126 37.9281 17.191 37.7152 17.191 37.4795V34.0813C17.191 33.8457 17.4126 33.6328 17.6495 33.6328H18.9714V29.3756H17.6495C17.4126 29.3756 17.191 29.1551 17.191 28.9194V25.5288C17.191 25.2856 17.4126 25.0727 17.6495 25.0727H20.255L19.361 24.3125C17.9857 23.1417 17.191 21.4008 17.191 19.5459C17.191 16.0413 20.064 13.1904 23.5865 13.1904H48.3658C48.6027 13.1904 48.8166 13.4033 48.8166 13.639V17.0372C48.8166 17.2728 48.6027 17.4857 48.3658 17.4857H47.044V21.7429H48.3658C48.6027 21.7429 48.8166 21.9634 48.8166 22.1991V25.5896C48.8166 25.8329 48.6027 26.0458 48.3658 26.0458ZM23.5865 25.2095H47.9074V22.6476H23.5865C21.9131 22.6476 20.6065 21.3476 20.6065 19.6827C20.6065 18.0178 21.9131 16.7179 23.5865 16.7179H47.9074V14.1635H23.5865C20.5225 14.1635 18.0315 16.6418 18.0315 19.6827C18.0315 22.7236 20.5225 25.2095 23.5865 25.2095ZM47.9074 37.9281H23.5865C20.5225 37.9281 18.0315 40.4064 18.0315 43.4549C18.0315 46.5034 20.5225 48.9741 23.5865 48.9741H47.9074V46.4197H23.5865C21.9131 46.4197 20.6065 45.1121 20.6065 43.4549C20.6065 41.7976 21.9131 40.49 23.5865 40.49H47.9074V37.9281ZM44.4995 31.5042C44.4995 30.3106 43.5521 29.3756 42.3601 29.3756H19.7431V31.1165H33.8252C34.0621 31.1165 34.276 31.3293 34.276 31.5726C34.276 31.8159 34.0621 32.0211 33.8252 32.0211H19.7431V33.6328H42.3601C43.5521 33.6328 44.4995 32.6977 44.4995 31.5042ZM42.3601 28.6077C44.0258 28.6077 45.3324 29.9077 45.3324 31.5726C45.3324 33.2375 44.0258 34.5299 42.3601 34.5299H18.0315V37.0918H42.3601C45.4164 37.0918 47.9074 34.6135 47.9074 31.5726C47.9074 28.5317 45.4164 26.0458 42.3601 26.0458H18.0315V28.6077H42.3601Z" fill="#1D1D1D"/>
</g>
<defs>
<clipPath id="clip0_78_16">
<rect width="32" height="37" fill="white" transform="translate(17 13)"/>
</clipPath>
</defs>
</svg>
