<svg width="61" height="54" viewBox="0 0 61 54" fill="none" xmlns="http://www.w3.org/2000/svg">
<circle cx="22" cy="22" r="22" fill="white"/>
<g clip-path="url(#clip0_78_17)">
<path d="M44.1317 9.30433C47.829 10.9419 50.3777 14.4956 50.7801 18.5895L50.8304 19.1129H45.9007L45.8755 18.6571C45.7749 16.6481 45.3306 12.8496 43.5364 9.9965L42.7064 8.67969L44.1317 9.30433Z" fill="#B9E0FF"/>
<path d="M35.4124 29.2759L36.2675 30.6434L34.8087 29.9681C31.1115 28.2461 28.5628 24.6924 28.1687 20.6913L28.1184 20.168H33.0565L33.0733 20.6153C33.1823 22.6243 33.6182 26.4228 35.4124 29.2759Z" fill="#B9E0FF"/>
<path d="M43.2094 27.8072C42.4297 29.4363 41.3985 30.2551 40.6691 30.6518L39.9733 31.0317V20.168H44.8946V20.6576C44.8024 23.2658 44.2071 25.8151 43.2094 27.8072Z" fill="#B9E0FF"/>
<path d="M38.9839 8.30859V19.1132H34.0542L34.071 18.6236C34.1464 16.0069 34.7417 13.4661 35.7477 11.474C36.3933 10.0981 37.3323 9.05985 38.3132 8.61247L38.9839 8.30859Z" fill="#B9E0FF"/>
<path d="M50.78 18.5895C50.3776 14.4956 47.8289 10.9419 44.1316 9.30433L42.7064 8.67969L43.5364 9.9965C45.3305 12.8496 45.7749 16.6481 45.8755 18.6571L45.9006 19.1129H50.8303L50.78 18.5895ZM43.201 11.5412C42.4381 10.0218 41.5745 9.03421 40.6439 8.61216L39.9732 8.30828V19.1129L40.4427 19.1888H44.9113L44.8862 18.6824C44.7185 15.8631 44.1316 13.3983 43.201 11.5412ZM40.6691 30.6519C41.3985 30.2551 42.4297 29.4363 43.2094 27.8072C44.2071 25.8151 44.8023 23.2659 44.8862 20.6576V20.168H39.9732V31.0317L40.6691 30.6519ZM43.5448 29.2675L42.6142 30.6772L44.14 29.9681C47.8457 28.2461 50.386 24.6924 50.78 20.6914L50.8303 20.168H45.8839V20.6323C45.7833 24.0087 44.9365 27.1572 43.5448 29.2675ZM38.3132 8.61216C37.3323 9.05954 36.3933 10.0978 35.7478 11.4737C34.7417 13.4658 34.1464 16.0066 34.071 18.6233L34.0542 19.1129H38.9839V8.30828L38.3132 8.61216ZM34.071 20.5985C34.2387 23.4094 34.8171 25.8826 35.7478 27.7397C36.5107 29.2591 37.3742 30.2382 38.3132 30.6687L38.9839 30.9726V20.168L38.506 20.0836H34.0374L34.071 20.5985ZM34.8171 9.30433C31.1199 10.9419 28.5712 14.4956 28.1687 18.5895L28.1184 19.1129H33.0649V18.6486C33.1655 15.2722 34.0123 12.1237 35.404 10.0049L36.3011 8.65436L34.8171 9.30433ZM28.1687 20.6914C28.5628 24.6924 31.1115 28.2461 34.8088 29.9681L36.2676 30.6434L35.4124 29.276C33.6183 26.4229 33.1823 22.6244 33.0733 20.6154L33.0565 20.168H28.1184L28.1687 20.6914ZM39.4367 31.918C32.6625 31.918 27.0956 26.3722 27.0201 19.5518C27.0201 12.7483 32.587 7.21094 39.4367 7.21094C46.2863 7.21094 51.8532 12.7483 51.8532 19.5603C51.8532 26.3722 46.2863 31.918 39.4367 31.918Z" fill="#1D1D1D"/>
<path d="M33.8782 34.5857C33.2997 34.3325 32.6457 34.2059 31.8828 34.2059C30.8097 34.2059 29.703 34.4507 28.7305 34.6617C28.2274 34.7714 27.7412 34.8812 27.3387 34.9318C25.3601 35.2019 24.6475 37.2531 24.6224 37.346C24.5553 37.5317 24.3457 37.6752 24.111 37.6752C24.0606 37.6752 24.0103 37.6667 23.96 37.6498C23.9181 37.6498 23.8762 37.6161 23.8427 37.5907C23.7001 37.481 23.5995 37.2615 23.6582 37.0336L23.675 36.9745C24.0858 35.9363 25.0919 34.1552 27.2298 33.8682C27.5819 33.826 27.9927 33.7332 28.4538 33.6403C29.4431 33.4293 30.6671 33.1676 31.908 33.1676C32.8469 33.1676 33.6434 33.3111 34.3644 33.6065L34.4483 33.6488H34.4902C34.6327 33.7078 35.0351 33.8851 36.1334 34.3747L36.2256 34.4169H43.0082C43.8885 34.4169 44.5676 34.7883 44.9784 35.1006L45.1796 35.2441L45.3641 35.185H45.4144L45.515 35.1259C45.515 35.1259 46.0515 34.8474 50.5034 32.83L50.6124 32.7793L50.6794 32.6949C51.5849 31.5385 53.9408 28.8711 56.2044 28.8711C56.5985 28.8711 56.9757 28.9555 57.3362 29.1159C57.7554 29.3185 58.0656 29.6646 58.2082 30.1035C58.3507 30.5509 58.292 31.0405 58.0489 31.4541L54.2845 37.6583L54.0917 37.8524L44.2574 46.1753C44.1484 46.2429 44.0059 46.2935 43.8634 46.2935L31.4636 45.9812L30.2312 47.3233L31.6481 48.733C31.7403 48.8343 31.799 48.9609 31.799 49.0875C31.799 49.2226 31.7403 49.3492 31.6481 49.442L28.7053 52.5821H60.2538C60.564 52.5821 60.782 52.8691 60.782 53.2659C60.782 53.536 60.5305 53.7892 60.2538 53.7892H14.7378C14.4611 53.7892 14.2096 53.536 14.2096 53.2659C14.2096 52.9957 14.4611 52.7341 14.7378 52.7341H27.2968L30.5414 49.231L20.64 39.127L17.1188 42.8073C17.0266 42.8917 16.8924 42.9508 16.7583 42.9508C16.6242 42.9508 16.49 42.8917 16.3978 42.7989C16.2972 42.6976 16.2469 42.571 16.2469 42.4444C16.2469 42.3093 16.2972 42.1827 16.3978 42.0898L20.2879 37.979C20.3717 37.8946 20.5059 37.8355 20.64 37.8355C20.7826 37.8355 20.9083 37.8946 21.0089 37.9875L22.2162 39.2114L29.5018 46.6058L30.8516 45.1624C30.969 45.0527 31.0779 45.0105 31.2792 45.0105L35.4376 45.1118L43.6538 45.3228L53.0102 37.0336L56.8416 30.7535V30.6184C56.8416 30.2892 56.6739 30.0613 56.4308 30.0022C56.2128 29.9093 55.9864 29.8671 55.7349 29.8671C53.9659 29.8671 51.7861 32.2729 51.0064 33.4377C50.9561 33.5053 50.8555 33.5559 50.7968 33.5897L45.5234 36.0038L45.6659 36.4174C46.0264 37.4135 45.8923 38.4686 45.297 39.3212C44.7101 40.1653 43.7628 40.6464 42.698 40.6464H35.8316L35.731 40.6971C35.5298 40.7984 35.3453 40.8912 35.2196 41.0178L34.8842 41.3639L35.2196 41.7016C35.3537 41.8282 35.5382 41.921 35.731 42.0223C35.8484 42.0814 35.949 42.1996 35.9993 42.3431C36.0412 42.4613 36.0328 42.5963 35.9825 42.6892C35.8987 42.858 35.6891 42.9846 35.4879 42.9846C35.4208 42.9846 35.3537 42.9677 35.295 42.9424C34.6746 42.6301 33.9285 42.1067 33.9285 41.3639C33.9872 40.4692 35.2028 39.8698 35.622 39.7263C35.7003 39.6926 35.7813 39.6757 35.8651 39.6757H42.8573C43.4525 39.6757 43.9556 39.4731 44.3496 39.0679C44.7437 38.6881 44.9616 38.1394 44.9616 37.5739C44.9616 37.0083 44.7353 36.4596 44.3496 36.0713C43.964 35.6831 43.4525 35.472 42.8657 35.472H36.0161C35.9378 35.472 35.8791 35.4608 35.84 35.4383L33.8782 34.5857Z" fill="#1D1D1D"/>
</g>
<defs>
<clipPath id="clip0_78_17">
<rect width="47" height="47" fill="white" transform="translate(14 7)"/>
</clipPath>
</defs>
</svg>
