<svg width="64" height="50" viewBox="0 0 64 50" fill="none" xmlns="http://www.w3.org/2000/svg">
<circle cx="22" cy="22" r="22" fill="white"/>
<g clip-path="url(#clip0_78_15)">
<path d="M61.8252 42.7635C62.9983 43.1573 63.786 44.2948 63.786 45.5811C63.786 47.3049 62.5102 48.6524 60.8748 48.6524C59.2394 48.6524 57.8609 47.2699 57.8609 45.5811C57.8609 44.2948 58.6572 43.1573 59.8302 42.7635L60.1642 42.6498V29.4631L53.4 33.742V46.5174C53.4 48.3112 51.9701 49.7812 50.2063 49.7812H27.6875C25.9237 49.7812 24.4938 48.3112 24.4938 46.5174V33.742L17.644 29.3756C16.7535 28.7981 16.2141 27.8355 16.2141 26.7855C16.2141 25.7355 16.7535 24.7729 17.644 24.2042L37.4057 11.7088C37.9194 11.385 38.476 11.2188 39.024 11.2188C39.5719 11.2188 40.1028 11.385 40.5652 11.7L60.344 24.2042C61.4999 24.9917 62.0051 26.523 61.5256 27.8355L61.4913 27.9143V42.6498L61.8252 42.7635ZM60.8748 48.1537C62.2362 48.1537 63.3065 47.0249 63.3065 45.5811C63.3065 44.5048 62.6472 43.5598 61.6711 43.2273L61.0033 42.9998V27.8268L61.0632 27.6605C61.4656 26.558 61.0546 25.2804 60.0871 24.6242L40.2912 12.1113C39.9144 11.8488 39.4692 11.7088 39.024 11.7088C38.5787 11.7088 38.0992 11.8575 37.6626 12.1288L17.9009 24.6242C17.1474 25.0967 16.7022 25.9105 16.7022 26.7855C16.7022 27.6605 17.1474 28.4743 17.9009 28.9468L24.9733 33.4707V46.5174C24.9733 48.0399 26.1891 49.2825 27.6875 49.2825H50.2063C51.3622 49.2825 52.3468 48.5474 52.7321 47.5062H52.4324C52.0557 48.3549 51.2252 48.915 50.3004 48.915H27.7732C26.5059 48.915 25.4271 47.8212 25.4271 46.5174V33.6457L37.7824 41.4597C38.1677 41.7222 38.6044 41.8622 39.0496 41.8622C39.4949 41.8622 39.9829 41.7135 40.411 41.4422L52.7407 33.6457V47.4887C52.852 47.1824 52.9119 46.8586 52.9119 46.5174V33.4707L60.6522 28.5793V42.9998L59.9844 43.2273C59.0083 43.5598 58.349 44.5048 58.349 45.5811C58.349 46.9986 59.4792 48.1537 60.8748 48.1537ZM52.2526 47.0161V34.5382L40.6679 41.871C40.1542 42.186 39.5976 42.3522 39.0496 42.3522C38.5017 42.3522 37.9794 42.186 37.517 41.8797L25.9151 34.5382V46.5174C25.9151 47.5499 26.7628 48.4249 27.7732 48.4249H50.3004C51.1395 48.4249 51.8759 47.8124 52.0985 47.0161H52.2526Z" fill="#1D1D1D"/>
<path d="M62.3817 44.0147C62.8098 44.4435 63.041 45.0297 63.0324 45.721C62.8698 46.876 61.9193 47.7861 60.8747 47.7861C59.7017 47.7861 58.7085 46.7798 58.7085 45.581C58.7085 44.3822 59.7017 43.3672 60.8747 43.3672C61.4399 43.3672 61.9793 43.5947 62.3817 44.0147ZM62.5444 45.651C62.5444 44.6447 61.7823 43.8572 60.8747 43.8572C59.9671 43.8572 59.188 44.6447 59.188 45.581C59.188 46.5173 59.9586 47.2961 60.8747 47.2961C61.671 47.2961 62.4245 46.5523 62.5444 45.651Z" fill="#B9E0FF"/>
<path d="M63.3065 45.5813C63.3065 47.0251 62.2362 48.1539 60.8748 48.1539C59.5134 48.1539 58.349 46.9989 58.349 45.5813C58.349 44.505 59.0082 43.56 59.9843 43.2275L60.6522 43V28.5795L52.9119 33.4709V46.5176C52.9119 46.8589 52.852 47.1826 52.7407 47.4889V33.6459L40.411 41.4424C39.9829 41.7137 39.512 41.8625 39.0496 41.8625C38.5873 41.8625 38.1677 41.7224 37.7824 41.4599L25.4271 33.6459V46.5176C25.4271 47.8214 26.5059 48.9152 27.7731 48.9152H50.3004C51.2252 48.9152 52.0557 48.3552 52.4324 47.5064H52.7321C52.3468 48.5477 51.3622 49.2827 50.2062 49.2827H27.6875C26.1891 49.2827 24.9733 48.0401 24.9733 46.5176V33.4709L17.9009 28.947C17.1474 28.4745 16.7021 27.6607 16.7021 26.7857C16.7021 25.9107 17.1474 25.0969 17.9009 24.6244L37.6625 12.129C38.0992 11.8577 38.5701 11.709 39.0239 11.709C39.4777 11.709 39.9144 11.849 40.2912 12.1115L60.0871 24.6244C61.0546 25.2807 61.4656 26.5582 61.0632 27.6607L61.0033 27.827V43L61.6711 43.2275C62.6472 43.56 63.3065 44.505 63.3065 45.5813ZM63.0325 45.7213C63.0411 45.0301 62.8099 44.4438 62.3818 44.015C61.9793 43.595 61.4399 43.3675 60.8748 43.3675C59.7018 43.3675 58.7086 44.3738 58.7086 45.5813C58.7086 46.7889 59.7018 47.7864 60.8748 47.7864C61.9194 47.7864 62.8698 46.8764 63.0325 45.7213ZM60.8406 26.8207C60.8663 26.0594 60.5409 25.3594 59.9672 24.9482L40.1456 12.409C39.863 12.1902 39.4606 12.0502 39.0411 12.0502C38.6215 12.0502 38.2105 12.199 37.8595 12.4615L18.1663 24.9132C17.5327 25.3157 17.1559 26.0157 17.1559 26.7857C17.1559 27.5557 17.5327 28.2558 18.1577 28.6583L37.928 41.1624C38.2105 41.3812 38.6215 41.5212 39.0411 41.5212C39.4606 41.5212 39.8716 41.3812 40.2141 41.1099L59.8217 28.6583C60.4381 28.2645 60.8234 27.582 60.8406 26.8207Z" fill="#1D1D1D"/>
<path d="M60.8748 43.8574C61.7824 43.8574 62.553 44.6449 62.5444 45.6512C62.4245 46.5525 61.671 47.2963 60.8748 47.2963C59.9586 47.2963 59.188 46.5088 59.188 45.5812C59.188 44.6537 59.9586 43.8574 60.8748 43.8574Z" fill="#B9E0FF"/>
<path d="M59.9673 24.9477C60.541 25.359 60.8663 26.059 60.8406 26.8203C60.8235 27.5816 60.4382 28.2641 59.8217 28.6578L40.2142 41.1095C39.8717 41.3807 39.4607 41.5207 39.0411 41.5207C38.6216 41.5207 38.2106 41.3807 37.928 41.162L18.1578 28.6578C17.5327 28.2553 17.156 27.5553 17.156 26.7853C17.156 26.0153 17.5327 25.3152 18.1664 24.9127L37.8595 12.4611C38.2106 12.1986 38.613 12.0498 39.0411 12.0498C39.4692 12.0498 39.8631 12.1898 40.1457 12.4086L59.9673 24.9477ZM60.3611 26.8028C60.3783 26.2165 60.1214 25.674 59.6847 25.3502L39.8888 12.8373C39.6576 12.6536 39.3579 12.5486 39.0411 12.5486C38.7243 12.5486 38.4161 12.6536 38.1507 12.8636L18.4232 25.3327C17.9266 25.6477 17.6355 26.1903 17.6355 26.7853C17.6355 27.3803 17.9266 27.9316 18.4147 28.2378L38.1849 40.7332C38.4161 40.917 38.7243 41.022 39.0411 41.022C39.3579 41.022 39.6576 40.917 39.923 40.7157L59.5649 28.2378C60.0443 27.9316 60.344 27.3978 60.3611 26.8028Z" fill="#1D1D1D"/>
<path d="M36.695 17.8867C37.0889 17.8867 37.4057 18.2105 37.4057 18.613C37.4057 19.0155 37.0889 19.3393 36.695 19.3393C36.3012 19.3393 35.9844 19.0155 35.9844 18.613C35.9844 18.2105 36.3012 17.8867 36.695 17.8867ZM36.9177 18.613C36.9177 18.4817 36.8149 18.3855 36.695 18.3855C36.5666 18.3855 36.4724 18.4817 36.4724 18.613C36.4724 18.7355 36.5666 18.8405 36.695 18.8405C36.8149 18.8405 36.9177 18.7355 36.9177 18.613Z" fill="#1D1D1D"/>
<path d="M36.695 18.8398C36.818 18.8398 36.9176 18.7379 36.9176 18.6123C36.9176 18.4866 36.818 18.3848 36.695 18.3848C36.5721 18.3848 36.4724 18.4866 36.4724 18.6123C36.4724 18.7379 36.5721 18.8398 36.695 18.8398Z" fill="#1D1D1D"/>
<path d="M33.8095 20.5815C33.9122 20.7302 33.9379 20.8965 33.9037 21.054C33.8608 21.2202 33.741 21.369 33.5697 21.4915L24.391 27.3979C24.2711 27.4854 24.1598 27.5204 24.0485 27.5204C23.8344 27.5204 23.6375 27.3892 23.492 27.1704C23.2436 26.7854 23.4577 26.4354 23.7231 26.2604L32.9104 20.3452C33.0303 20.2664 33.1416 20.2314 33.2529 20.2314C33.4584 20.2314 33.6639 20.3539 33.8095 20.5815ZM33.3043 21.0715C33.3814 21.019 33.4242 20.9665 33.407 20.8527C33.3385 20.7565 33.2786 20.7215 33.2529 20.7215L33.1673 20.7652L23.9971 26.6717C23.8259 26.7854 23.8687 26.8554 23.8944 26.8904C23.9543 26.9867 24.0228 27.0217 24.0485 27.0217C24.0485 27.0217 24.0827 27.0129 24.1341 26.9779L33.3043 21.0715Z" fill="#1D1D1D"/>
<path d="M33.4071 20.8529C33.4242 20.9667 33.3814 21.0192 33.3043 21.0717L24.1342 26.9781C24.0828 27.0131 24.0571 27.0219 24.0485 27.0219C24.0229 27.0219 23.9544 26.9869 23.8944 26.8906C23.8687 26.8556 23.8259 26.7856 23.9972 26.6719L33.1673 20.7654L33.253 20.7217C33.253 20.7217 33.3386 20.7567 33.4071 20.8529Z" fill="#1D1D1D"/>
</g>
<defs>
<clipPath id="clip0_78_15">
<rect width="48" height="39" fill="white" transform="translate(16 11)"/>
</clipPath>
</defs>
</svg>
