<svg width="62" height="54" viewBox="0 0 62 54" fill="none" xmlns="http://www.w3.org/2000/svg">
<circle cx="22" cy="22" r="22" fill="white"/>
<g clip-path="url(#clip0_78_18)">
<path d="M45.2905 49.6991V51.2418L41.3599 52.2227L42.8022 49.1039H43.1059C43.3252 49.1039 43.5108 49.1039 43.6879 49.0536L43.9241 48.9697L44.1265 49.1206C44.4048 49.3302 44.6916 49.5482 44.9278 49.6069L45.2905 49.6991Z" fill="#B9E0FF"/>
<path d="M61.7891 14.8058V53.2123C61.7891 53.5141 61.5107 53.7908 61.2155 53.7908H55.1255C54.8219 53.7908 54.5435 53.5141 54.5435 53.2123C54.5435 52.9105 54.8219 52.6422 55.1255 52.6422H60.7178V15.3759H57.8078V49.0203C57.8078 49.3222 57.5379 49.5904 57.2342 49.5904H50.2755L51.5913 52.9021C51.6925 53.1536 51.6082 53.3464 51.5407 53.4386C51.4395 53.5812 51.2792 53.6734 51.1105 53.6734C51.0599 53.6734 51.0093 53.665 50.9587 53.6482L45.864 52.3152L40.7103 53.6399C40.6429 53.665 40.5923 53.6734 40.5416 53.6734C40.373 53.6734 40.2127 53.5812 40.1115 53.4386C40.0524 53.3464 39.9596 53.1536 40.0609 52.9105L41.3851 49.6743H31.3392V52.6422H37.0159C37.3195 52.6422 37.5979 52.9105 37.5979 53.2123C37.5979 53.5141 37.3195 53.7908 37.0159 53.7908H30.9259C30.6222 53.7908 30.3523 53.5141 30.3523 53.2123V49.6743H26.7844C26.4892 49.6743 26.2108 49.3976 26.2108 49.0958V10.7647C26.2108 10.4713 26.4892 10.1946 26.7844 10.1946H31.3223V9.23886C31.3223 8.11542 32.2417 7.20996 33.3636 7.20996C34.4854 7.20996 35.4048 8.11542 35.4048 9.23886V10.1946H57.1499C57.4536 10.1946 57.7319 10.4713 57.7319 10.7647V14.3111H61.2914C61.5276 14.3111 61.7891 14.5123 61.7891 14.8058ZM56.7366 48.1317V11.3432H35.4807V15.8537C35.4807 16.1556 35.2108 16.4238 34.9072 16.4238C34.6035 16.4238 34.3336 16.1556 34.3336 15.8537V11.3432H27.282V48.6095H41.3683L41.014 47.9137C40.9803 47.8466 40.9465 47.7544 40.9128 47.6705C40.8622 47.5532 40.82 47.4442 40.7694 47.352L40.685 47.1759L40.4995 47.1172C39.2342 46.698 38.5173 45.4656 38.7872 44.1912L38.8294 43.9649L38.6775 43.7888C37.8509 42.8247 37.8509 41.3239 38.6775 40.3682L38.8294 40.1921L38.7872 39.9658C38.5173 38.6914 39.2342 37.459 40.4995 37.0398L40.7272 36.9643L40.8031 36.738C41.149 35.69 42.119 34.9857 43.2071 34.9857C43.3842 34.9857 43.5613 35.0025 43.7385 35.036L43.9831 35.0863L44.1602 34.9187C44.5988 34.5162 45.1893 34.2899 45.8219 34.2899C46.4545 34.2899 47.104 34.5246 47.5848 34.9354L47.7619 35.0863L47.9981 35.036C48.1668 35.0025 48.3355 34.9857 48.5042 34.9857C49.5838 34.9857 50.5876 35.7068 50.9334 36.738L51.0093 36.9643L51.2371 37.0398C52.5023 37.459 53.2193 38.6914 52.9493 39.9658L52.8987 40.1921L53.0506 40.3682C53.8772 41.3239 53.8772 42.8247 53.0506 43.7888L52.8987 43.9649L52.9493 44.1996C53.2277 45.4237 52.4685 46.7064 51.2371 47.1172L51.0093 47.1927L50.9334 47.4106C50.8659 47.6286 50.79 47.7711 50.7141 47.9137L50.3683 48.6011H56.6522L56.7366 48.1317ZM52.7385 42.2294C52.7553 41.8102 52.5951 41.3994 52.2914 41.0976C51.9456 40.7455 51.8106 40.2927 51.9287 39.8652C52.0637 39.0938 51.5913 38.3057 50.8912 38.0794C50.4611 37.9536 50.0984 37.5931 49.9803 37.1907C49.7863 36.5116 49.238 36.0756 48.5885 36.0756C48.4536 36.0756 48.3102 36.0924 48.1752 36.1343H47.9812C47.5932 36.1343 47.2474 36.017 46.9353 35.7654C46.6907 35.4888 46.328 35.3295 45.94 35.3295C45.552 35.3295 45.164 35.4888 44.8772 35.7738C44.6157 36.0337 44.2867 36.1762 43.9493 36.1762C43.8481 36.1762 43.7385 36.1595 43.6457 36.1343C43.5023 36.1092 43.4179 36.1008 43.342 36.1008C42.6588 36.1008 42.0515 36.5284 41.8406 37.1655C41.7141 37.5931 41.3514 37.9536 40.9465 38.071C40.103 38.3141 39.656 39.0687 39.8837 39.8652C39.9343 40.3011 39.8163 40.7203 39.5126 41.0976C39.2511 41.3239 39.0993 41.6509 39.074 42.0114C39.0571 42.4222 39.2174 42.8414 39.521 43.1432C39.8078 43.4283 39.9343 43.9146 39.8753 44.4427C39.7488 45.147 40.2211 45.9267 40.9212 46.1614C41.3514 46.2788 41.7141 46.6477 41.8322 47.0501C42.0262 47.7292 42.5745 48.1652 43.2239 48.1652C43.3673 48.1652 43.5023 48.14 43.6457 48.1065C43.6457 48.1065 43.7638 48.1065 43.8312 48.1065C44.2361 48.1065 44.5904 48.2406 44.9109 48.5005C45.2652 48.7688 45.6616 48.8359 45.8472 48.8527C45.9315 48.8694 45.999 48.8694 46.0412 48.8694C46.2267 48.8694 46.581 48.8275 46.8509 48.5592L46.9353 48.4754C47.1968 48.2155 47.5257 48.073 47.8631 48.073C47.9728 48.073 48.074 48.073 48.1752 48.1149C48.3017 48.14 48.3776 48.14 48.4536 48.14C49.1283 48.14 49.7694 47.6957 49.9718 47.0753C50.0984 46.6561 50.4611 46.2872 50.8659 46.1782C51.7094 45.9351 52.1565 45.1805 51.9287 44.3757C51.8781 43.9481 51.9962 43.5205 52.2999 43.1516C52.5613 42.9169 52.7132 42.5983 52.7385 42.2378V42.2294ZM50.2417 52.399L48.9512 49.188H48.6307C48.4029 49.188 48.2174 49.188 48.0487 49.1293L47.4161 48.9281V49.3389C47.4161 49.3389 47.3739 49.3725 47.3486 49.3892C47.298 49.4228 47.2558 49.4479 47.1968 49.4815C47.1208 49.515 47.0281 49.5485 46.9437 49.5904C46.8341 49.6324 46.716 49.6743 46.6316 49.7246L46.3617 49.8503V51.3175L50.2417 52.399ZM45.2905 51.2421V49.6994L44.9278 49.6072C44.6916 49.5485 44.4048 49.3305 44.1265 49.1209L43.924 48.97L43.6879 49.0539C43.5107 49.1042 43.3252 49.1042 43.1058 49.1042H42.8022L41.3598 52.223L45.2905 51.2421ZM34.3336 10.1946V9.23886C34.3336 8.73583 33.8697 8.27471 33.3636 8.27471C33.0262 8.27471 32.7141 8.47593 32.537 8.76098H32.402L32.3177 9.23886V10.1946H34.3336Z" fill="#1D1D1D"/>
<path d="M53.7592 23.9858C53.7507 24.2206 53.4724 24.4972 53.1772 24.4972H30.8501C30.5464 24.4972 30.2681 24.2206 30.2681 23.9187C30.2681 23.6169 30.5464 23.3486 30.8501 23.3486H53.1772C53.3965 23.3486 53.7086 23.6337 53.7592 23.9858Z" fill="#1D1D1D"/>
<path d="M53.7507 27.0458C53.7507 27.2889 53.4724 27.5572 53.1772 27.5572H30.8501C30.5464 27.5572 30.2681 27.2889 30.2681 26.9871C30.2681 26.6853 30.5464 26.417 30.8501 26.417H53.1772C53.4133 26.417 53.7001 26.635 53.7507 27.0458Z" fill="#1D1D1D"/>
<path d="M53.7592 30.0385C53.7507 30.2733 53.4724 30.55 53.1772 30.55H30.8501C30.5464 30.55 30.2681 30.2733 30.2681 29.9715C30.2681 29.6697 30.5464 29.4014 30.8501 29.4014H53.1772C53.3965 29.4014 53.7086 29.6864 53.7592 30.0385Z" fill="#1D1D1D"/>
<path d="M52.2915 41.0968C52.5952 41.3986 52.7554 41.8094 52.7386 42.2286C52.7133 42.5891 52.5614 42.9077 52.3 43.1425C51.9963 43.5114 51.8782 43.9389 51.9288 44.3665C52.1566 45.1714 51.7095 45.9259 50.866 46.169C50.4612 46.278 50.0985 46.6469 49.9719 47.0661C49.7695 47.6865 49.1284 48.1309 48.4537 48.1309C48.3777 48.1309 48.3018 48.1309 48.1753 48.1057C48.0741 48.0722 47.9729 48.0638 47.8632 48.0638C47.5258 48.0638 47.1969 48.2063 46.9354 48.4662L46.851 48.5501C46.5811 48.8184 46.2269 48.8603 46.0413 48.8603C45.9991 48.8603 45.9316 48.8603 45.8473 48.8435C45.6617 48.8267 45.2653 48.7597 44.911 48.4914C44.5905 48.2315 44.2362 48.0973 43.8313 48.0973C43.7639 48.0973 43.6458 48.0973 43.6458 48.0973C43.5024 48.1309 43.3674 48.156 43.224 48.156C42.5746 48.156 42.0263 47.7201 41.8323 47.041C41.7142 46.6385 41.3515 46.2697 40.9213 46.1523C40.2212 45.9175 39.7489 45.1378 39.8754 44.4336C39.9344 43.9054 39.8079 43.4191 39.5211 43.1341C39.2175 42.8323 39.0572 42.4131 39.0741 42.0023C39.0994 41.6418 39.2512 41.3148 39.5127 41.0884C39.8164 40.7111 39.9344 40.2919 39.8838 39.856C39.6561 39.0595 40.1031 38.305 40.9466 38.0618C41.3515 37.9445 41.7142 37.584 41.8407 37.1564C42.0516 36.5192 42.6589 36.0916 43.3421 36.0916C43.418 36.0916 43.5024 36.1 43.6458 36.1252C43.7386 36.1503 43.8482 36.1671 43.9494 36.1671C44.2868 36.1671 44.6158 36.0246 44.8773 35.7647C45.1641 35.4796 45.5436 35.3203 45.9401 35.3203C46.3365 35.3203 46.6908 35.4796 46.9354 35.7563C47.2475 36.0078 47.5933 36.1252 47.9813 36.1252H48.1753C48.3103 36.0832 48.4537 36.0665 48.5886 36.0665C49.2381 36.0665 49.7864 36.5024 49.9804 37.1815C50.0985 37.584 50.4612 37.9445 50.8913 38.0702C51.5914 38.2966 52.0638 39.0847 51.9288 39.856C51.8107 40.2836 51.9457 40.7363 52.2915 41.0884V41.0968ZM50.1744 41.9939C50.1744 39.638 48.2428 37.7097 45.8642 37.7097C43.4855 37.7097 41.5539 39.638 41.5539 41.9939C41.5539 44.3497 43.4518 46.2864 45.8642 46.2864C48.2765 46.2864 50.1744 44.3581 50.1744 41.9939Z" fill="#B9E0FF"/>
<path d="M48.9513 49.1876L50.2419 52.3987L46.3618 51.3171V49.85L46.6317 49.7242C46.7161 49.6739 46.8342 49.632 46.9438 49.5901C47.0282 49.5481 47.121 49.5146 47.1969 49.4811C47.2559 49.4475 47.2981 49.4224 47.3487 49.3889C47.374 49.3721 47.3909 49.3553 47.4162 49.3385V48.9277L48.0488 49.1289C48.2175 49.1876 48.4031 49.1876 48.6308 49.1876H48.9513Z" fill="#B9E0FF"/>
<path d="M45.864 37.71C48.2427 37.71 50.1743 39.6383 50.1743 41.9941C50.1743 44.35 48.2427 46.2867 45.864 46.2867C43.4854 46.2867 41.5538 44.4003 41.5538 41.9941C41.5538 39.5879 43.4854 37.71 45.864 37.71ZM49.103 42.078C49.103 40.2754 47.686 38.8586 45.864 38.8586C44.0421 38.8586 42.6251 40.2754 42.6251 42.078C42.6251 43.8805 44.0506 45.2974 45.864 45.2974C47.6775 45.2974 49.103 43.8805 49.103 42.078Z" fill="#1D1D1D"/>
<path d="M46.0328 20.2803C46.328 20.2803 46.6064 20.5569 46.6064 20.8588C46.6064 21.1606 46.328 21.4289 46.0328 21.4289H37.91C37.5895 21.4289 37.3786 21.1103 37.328 20.7917C37.3364 20.5569 37.6064 20.2803 37.91 20.2803H46.0328Z" fill="#1D1D1D"/>
</g>
<defs>
<clipPath id="clip0_78_18">
<rect width="36" height="47" fill="white" transform="translate(26 7)"/>
</clipPath>
</defs>
</svg>
