<svg width="25" height="18" viewBox="0 0 25 18" fill="none" xmlns="http://www.w3.org/2000/svg">
<g clip-path="url(#clip0_3_503)">
<path d="M25 5.48343C25 2.45166 22.5414 0 19.5166 0H5.48343C2.45856 0 0 2.45856 0 5.48343V12.0097C0 15.0414 2.45856 17.4931 5.48343 17.4931H19.5097C22.5414 17.4931 24.9931 15.0345 24.9931 12.0097V5.48343H25ZM16.7472 9.24033L10.4558 12.355C10.2072 12.4862 9.37155 12.3066 9.37155 12.0304V5.64227C9.37155 5.35912 10.2141 5.17956 10.4627 5.31768L16.4848 8.59116C16.7403 8.73619 17.0028 9.10221 16.7472 9.24033Z" fill="white"/>
</g>
<defs>
<clipPath id="clip0_3_503">
<rect width="25" height="17.5" fill="white"/>
</clipPath>
</defs>
</svg>
