<?xml version="1.0" encoding="utf-8"?>
<!-- Generator: Adobe Illustrator 28.2.0, SVG Export Plug-In . SVG Version: 6.00 Build 0)  -->
<svg version="1.1" id="Layer_1" xmlns="http://www.w3.org/2000/svg" xmlns:xlink="http://www.w3.org/1999/xlink" x="0px" y="0px"
	 viewBox="0 0 321.84 279.27" style="enable-background:new 0 0 321.84 279.27;" xml:space="preserve">
<style type="text/css">
	.st0{fill:#E80A4D;}
</style>
<g>
	<g>
		<g>
			<path d="M79.96,213.49c4.44-2.24,18.9-8.28,18.9-15.64c0-7.36-12.13-9.66-19.69-10.62c-7.56-0.95-14.86-1.15-20.48-0.89
				c-5.62,0.26-8.41,1.61-8.41,3.16c0,1.54,2.1,1.97,2.76,1.97c0.66,0,1.91-0.33,2.83-0.82c0.92-0.49,1.2-1.5,3.58-1.81
				c11.04-1.45,21.53,0.85,21.53,0.85c13.21,2.66,12.72,6.97,12.75,8.15c0.03,1.18-0.59,4.01-8.48,9.66
				c-6.16,4.42-13.61,7.97-17.23,9.61c0.07-0.98,0.14-1.86,0.22-2.6c0.5-4.74,2.3-15.56,2.6-18.84s-1.71-3.74-1.71-3.74
				c-2.54-0.22-2.73,3.87-2.73,3.87s-0.31,3.55-1.01,12.53c-0.24,3.13-0.39,6.75-0.47,10.19c-0.81,0.42-1.33,0.84-1.16,1.5
				c0.15,0.59,0.72,0.57,1.12,0.48c-0.1,5.6-0.06,10.34-0.06,11.05c0,1.23,0.26,4.12,1.31,4.12c1.05,0,1.31-1.62,1.31-3.64
				c0-1.49,0.16-7.77,0.44-12.86C71.24,217.65,76.95,215.01,79.96,213.49z"/>
			<path d="M122.14,204.7c-1.01-0.44-2.06,0.92-4.16,4.43c-2.1,3.51-7.8,15.47-10.52,15.47c-2.72,0-0.09-7.54-2.15-7.71
				c-2.06-0.18-7.36,9.16-9.6,9.16s0.04-9.25-1.67-9.47c-1.71-0.22-7.62,8.82-9.33,8.59c-1.31-0.18-0.7-4.36-0.74-7.04
				c0,0,0.07-2.7-2.7-2.7c-2.76,0-6.15,2.14-8.45,8.05c-2.3,5.92,2.27,9.3,6.11,3.09c0,0,2.7-4.44,2.7-3.35s0.33,4.77,2.33,4.77
				c2,0,4.17-2.63,5.13-3.68c0.95-1.05,3.29-4.31,3.16-2.7c-0.13,1.61-1.12,8.68,2.66,8.68c2.53,0,5.36-4.77,5.98-5.62
				c0.62-0.85,3.19-5.52,3.19-3.39c0,2.14-0.76,7.1,2.47,7.1c3.22,0,7.22-8.73,8.58-10.97c1.36-2.24,3.59-6.79,3.99-6.66
				c0.39,0.13-1.27,8.74-1.71,11.33c-0.44,2.59-1.68,11.13,0.83,10.54c2.23-0.53,1.01-4.27,0.97-5.59c-0.03-1.1,0.83-7.6,1.35-10.76
				C121.09,213.12,123.15,205.14,122.14,204.7z M81.52,218.64c0,0-4.27,6.97-5.5,6.97c-1.23,0-1.01-2.34,0.96-4.75
				c1.97-2.41,3.75-2.72,4.27-2.63C81.78,218.31,81.52,218.64,81.52,218.64z"/>
			<path d="M154.38,208.3c-2.93-0.12-5.41-0.13-7.48-0.09c6.14-3.23,19.18-8.89,19.18-14.13c0-4.87-9.91-6.73-15.71-7.38
				c-5.8-0.65-11.18-0.31-15.5-0.14c-4.31,0.18-5.97,1.4-5.97,2.46c0,1.06,1.61,1.35,2.12,1.35c0.5,0,1.46-0.22,2.17-0.56
				c0.71-0.34,1.19-1.28,3.02-1.51c4.32-0.55,8.39-0.85,13.17-0.39c7.48,0.72,11.55,4.03,11.55,6.09c0,1.77-1.88,4.81-7.93,8.68
				c-4.21,2.69-8.09,4.65-10.42,5.74c-0.28,0.02-0.55,0.04-0.8,0.07c0.76-5.45,1.99-13.13,2.25-15.89c0.32-3.42-1.36-3.65-1.36-3.65
				c-2.28-0.26-2.51,3.99-2.51,3.99s-0.59,3.67-1.09,13.04c-0.05,0.92-0.1,1.88-0.15,2.87l0,0c0,0-2.51,0.36-3.59,0.78
				c-1.08,0.42-1.63,0.93-1.61,1.61c0.02,0.68,0.68,1.34,1.85,1.31c0.33-0.01,1.51-0.11,3.17-0.25c-0.43,8.42-0.88,17.41-0.89,18.43
				c-0.01,0.98,0.02,2.54,0.46,3.21l0,0c0,0,0.16,0.73,1.8,0.33c1.64-0.39,7.92-2.76,14.53-5.98c6.61-3.22,15.55-7.82,15.55-12.75
				S165.03,208.74,154.38,208.3z M152.27,226.9c-6.01,2.96-10.57,4.28-11.32,4.47c-0.88,0.23-0.91-1.09-0.91-1.12
				c0.15-3.58,0.77-13.67,1.27-18.19c4.22-0.35,9.77-0.78,13.26-0.78c5.95,0,11.5,1.12,11.5,4.54S158.29,223.94,152.27,226.9z"/>
			<path d="M272.43,202.91c-1.15,0-2.99,0.92-5.46,1.15c-2.46,0.23-17.09,0.76-17.09,0.76s1.91-3.19,2.83-5.55
				c0.92-2.37,2.3-7.99-0.13-7.99c-2.43,0-3.19,9.33-5.29,13.64l-13.51-0.1c0,0,2.85-6,2.76-7.56c-0.09-1.56-0.81-1.53-1.12-1.53
				c-0.31,0-1.62,0.11-3.42,2.96c-1.8,2.85-3,5.94-3,5.94s-7.91-0.33-8.39-0.39s-1.91-0.02-2.17,0.99
				c-0.26,1.01,1.47,1.31,3.37,1.42c1.91,0.11,6.03,0.3,6.03,0.3s-2.15,6.03-2.39,7.44c0,0-2.94,4.19-5.69,7.05
				c-2.74,2.86-6.87,5.77-8.2,5.77c-1.33,0-1.51-1.63-1.51-1.63s1.69-0.66,3.52-2.04c1.82-1.38,3.63-2.97,3.63-5.57
				c0-2.6-1.96-3.12-2.81-3.12c-0.85,0-2.99,0.48-5.13,2.88c-2.14,2.4-2.32,6.51-2.32,6.51s-2.66,0.64-3.06,0.74
				c0,0,0.23-0.99-0.81-1.92c-1.04-0.94-3.24-2.33-3.24-3.65c0-1.31,1.48-2.86,2.09-3.65c0.61-0.79,1.2-1.73,1.2-2.35
				s-0.21-1.2-1.23-1.2c-1.02,0-6.41,5.78-7.38,6.71c-0.97,0.92-4.93,4.12-4.93,4.12s-4.63-2.55-4.63-4.45
				c0-1.91,2.78-3.91,4.42-4.52c1.64-0.61,4.86-1.63,4.86-2.74c0-1.12-1-1.31-1.64-1.31s-5.13,0.81-8.48,4.19
				c-3.35,3.39-5.08,9.01-5.08,9.01s-0.6,1.19-0.51,0.38c0.1-0.86,0.28-3.84,0.32-4.2c0.07-0.61,0.93-3.33-0.18-3.62
				c0,0-1.97-0.72-4.38,0.26c-2.41,0.99-6.27,6.05-6.27,9.84c0,3.79,2.76,3.46,2.94,3.46c0.18,0,1.88-0.02,3.73-3.83
				c0.68-1.36,0.59-1.58,0.96-1.58s0.33,0.37,0.42,1.16c0.09,0.79,0.44,4.26,1.99,4.26c1.56,0,1.88-3.6,2.52-5.46
				c0.64-1.86,1.49-4.08,1.86-4.08s1.21,1.61,2.52,2.63c1.31,1.01,2.65,2.11,2.65,2.11s-6.26,3.21-6.26,4.81
				c0,1.59,5.23,1.1,7.69-0.28c2.47-1.38,2.93-2.79,2.76-4.04c-0.14-0.93,1.08-1.49,2.13-2.36c1.04-0.87,2.93-2.75,3.12-2.75
				c0.2,0,0.1,0.81,0.55,1.62s2.38,2.42,3.03,2.95c0.66,0.53,0.77,0.56,0.77,0.78s-0.3,0.35-0.62,0.38
				c-0.33,0.03-6.58,0.81-6.58,2.64c0,1.83,5.51,1.72,5.89,1.72c0.38,0,3.85-0.47,3.85-2.97l3.29-0.74c0,0-0.33,3.76,3.62,3.76
				c3.94,0,6.67-3.22,8.22-4.93c1.54-1.71,4.54-5.46,5.26-5.92c0,0-0.16,1.97-0.16,3.19c0,1.22,0.13,7.43,4.4,7.43
				c4.27,0,8.35-6.11,10.45-8.91c2.1-2.79,3.62-4.8,4.57-6.44c0.95-1.64,2.43-3.68,2.76-3.68c0.33,0,0.33,0.2,0.2,1.02
				c-0.13,0.82-2.33,14.76-2.5,16.2c-0.16,1.45,0.23,2.04,1.15,2.04c0.92,0,1.35-0.1,1.43-1.68c0.08-1.58,2.88-21.2,2.88-21.2
				s7.13-0.13,11.93-0.21c4.8-0.08,10.85-0.15,11.67-0.48c0.82-0.33,1.45-0.76,1.45-1.97C274.54,203.27,273.59,202.91,272.43,202.91
				z M212.38,218.36c1.01-1.1,1.98-0.72,1.98-0.72c0.96,0.66,0.07,1.97-0.28,2.46c-0.35,0.49-2.9,2.95-3.51,2.52
				C209.96,222.19,211.37,219.45,212.38,218.36z M175.91,218.53c0,0-3.59,8.11-4.67,8.11s-0.59-2.78,0.5-4.97
				c1.1-2.19,2.67-3.57,3.75-3.75C176.57,217.74,175.91,218.53,175.91,218.53z M228.94,227.56c-3.68-0.9-2.26-10.34-1.73-11.81
				c0.57-1.97,5.32-8.61,5.32-8.61h13.83C240.95,217.02,231.88,228.28,228.94,227.56z"/>
		</g>
	</g>
	<g>
		<g>
			<circle class="st0" cx="21.39" cy="92.03" r="4.51"/>
			<circle class="st0" cx="76.21" cy="62.34" r="4.51"/>
			<path class="st0" d="M235.45,109.35c-13.87-5.63-6.66-28.57-3.68-34.18c0,0-20.07,23.53-40.45,23.53
				c-20.38,0-29.8-27.48-32.75-39.66c-2.95,12.18-12.37,39.66-32.75,39.66c-20.38,0-40.45-23.53-40.45-23.53
				c2.98,5.61,10.19,28.55-3.68,34.18c-13.67,5.55-46.45-6.84-46.45-6.84c34.36,29.1,35.58,57.15,35.58,57.15
				c46.1-6.49,87.75-6.31,87.75-6.31s41.65-0.18,87.75,6.31c0,0,1.23-28.05,35.58-57.15C281.91,102.51,249.13,114.9,235.45,109.35z"
				/>
			<path class="st0" d="M295.85,87.52c-2.49,0-4.51,2.02-4.51,4.51c0,2.49,2.02,4.51,4.51,4.51c2.49,0,4.51-2.02,4.51-4.51
				C300.35,89.54,298.34,87.52,295.85,87.52z"/>
			<circle class="st0" cx="241.04" cy="62.34" r="4.51"/>
			<path class="st0" d="M158.62,48.04c2.49,0,4.51-2.02,4.51-4.51c0-2.49-2.02-4.51-4.51-4.51c-2.49,0-4.51,2.02-4.51,4.51
				C154.11,46.02,156.13,48.04,158.62,48.04z"/>
		</g>
	</g>
</g>
</svg>
