<svg xmlns="http://www.w3.org/2000/svg" xmlns:xlink="http://www.w3.org/1999/xlink" width="117.083" height="66.911" viewBox="0 0 117.083 66.911">
  <defs>
    <clipPath id="clip-path">
      <rect id="사각형_10" data-name="사각형 10" width="117.083" height="66.911" transform="translate(0 0)" fill="none"/>
    </clipPath>
  </defs>
  <g id="logo_w" transform="translate(-46)">
    <g id="그룹_1" data-name="그룹 1" transform="translate(46 0)" clip-path="url(#clip-path)">
      <path id="패스_1" data-name="패스 1" d="M91.239,24.087a2.713,2.713,0,0,1-2.554-3.617L93.408,7.16,79.2,12.189A2.71,2.71,0,0,1,77.388,7.08L96.959.155a2.71,2.71,0,0,1,3.458,3.461L93.792,22.282a2.711,2.711,0,0,1-2.554,1.8" transform="translate(5.772 26.245)" fill="#e60019"/>
      <path id="패스_3" data-name="패스 3" d="M0,0H2.834V9.667H0Z" transform="translate(81.354 45.499)" fill="#fff"/>
      <rect id="사각형_9" data-name="사각형 9" width="2.834" height="5.542" transform="translate(81.354 57.374)" fill="#fff"/>
      <path id="패스_2" data-name="패스 2" d="M3.75,63.583h0s0,.04,0,.1v.233l.012.009c.057.781.377,2.637,2.155,2.637H17.25V64.936h-.021V59.561h.021V57.936H3.75Zm2.833-4.022H14.4v5.375H6.583ZM17.25,45.6H2.916v1.625h11.5v6.791H0v1.625H21.5V54.019H17.25ZM83.812,57.374H70.062V59h13.75ZM59.937,59.165h2.834V45.5H59.937v5.625H55.646v1.625h4.291ZM83.9,49.457H78.228v1.625H83.9Zm-48.87,9.935a6.052,6.052,0,0,0,5.018-5.769,5.7,5.7,0,0,0-2.088-4.354H42.11V47.645H35.026V45.332H32.193v2.313H25.11v1.624h4.154a5.692,5.692,0,0,0-2.088,4.354,6.051,6.051,0,0,0,5.017,5.769v2.94H22.672v1.625H44.547V62.332H35.026Zm-5-5.768A3.588,3.588,0,1,1,33.61,57.04a3.5,3.5,0,0,1-3.584-3.416M51.843,65.283l-.024-6.938-2.833.01L49,63.939v.332l.013.01c.059.78.385,2.636,2.163,2.629l12-.038-.005-1.625Zm32.417-.036-11.337.036-.012-2.368H83.979V61.29h-13.9v.065h-.014l.02,2.916.013.01c.059.781.385,2.636,2.163,2.629l12-.038ZM55.145,46.123H46.229v1.625h6.094C52.076,52.212,45.417,56,45.417,56l.75,1.083c9.333-4,8.978-10.959,8.978-10.959m16.6,2.209c.917.583,3.833,3.833,3.583,6.917H77.75s-1.5-6.75-5.583-9.167c0,0-1.668-.75-2.334.25s-3.083,8.833-3.083,8.833H69s1.833-7.416,2.75-6.833" fill="#fff"/>
    </g>
  </g>
</svg>
