<?xml version="1.0" encoding="UTF-8"?>
<svg id="Layer_1" data-name="Layer 1" xmlns="http://www.w3.org/2000/svg" viewBox="0 0 12.96 5.74">
  <defs>
    <style>
      .cls-1 {
        fill: none;
        stroke: #231815;
        stroke-miterlimit: 10;
        stroke-width: .5px;
      }

      .cls-2 {
        fill: #231815;
      }
    </style>
  </defs>
  <path class="cls-1" d="m5.17.51l-.98.84s-1.26-.84-2.57,0C1.62,1.34.72.25.25.69v3.42s2.8,3.11,5.35,0v-1.48S6.19.27,9.19.25s3.51,2.28,3.51,2.28v1.66"/>
  <circle class="cls-2" cx="1.75" cy="3" r=".42"/>
  <circle class="cls-2" cx="4.13" cy="3.07" r=".42"/>
  <circle class="cls-2" cx="8.01" cy="2.45" r=".42"/>
  <circle class="cls-2" cx="10.25" cy="2.34" r=".42"/>
  <ellipse class="cls-2" cx="2.95" cy="4.1" rx=".56" ry=".19"/>
  <ellipse class="cls-2" cx="9.16" cy="3.6" rx=".6" ry=".18"/>
  <path class="cls-1" d="m6.9,3.91s-.39,1.37,1.11,1.26c0,0,1.23.09,1.14-1.38"/>
  <path class="cls-1" d="m11.43,3.91s.39,1.37-1.11,1.26c0,0-1.23.09-1.14-1.38"/>
</svg>