<svg width="126" height="145" viewBox="0 0 126 145" fill="none" xmlns="http://www.w3.org/2000/svg">
<g opacity="0.1">
<mask id="mask0_32_2413" style="mask-type:alpha" maskUnits="userSpaceOnUse" x="0" y="0" width="126" height="145">
<g clip-path="url(#clip0_32_2413)">
<path d="M121.698 130.968V140.978H25.934C13.8695 140.978 4.06152 131.266 4.06152 119.349C4.06152 107.432 13.8695 97.6895 25.934 97.6895H121.698V107.73H25.934C19.3452 107.73 14.2005 112.824 14.2005 119.349C14.2005 125.873 19.3452 130.968 25.934 130.968H121.698Z" fill="white"/>
<path d="M99.8552 80.8566H10.8008V74.5406H66.2492C67.1819 74.5406 68.0243 73.7064 68.0243 72.7829C68.0243 71.8593 67.1819 70.9953 66.2492 70.9953H10.8008V64.1729H99.8552C104.549 64.1729 108.279 67.8373 108.279 72.5147C108.279 77.1922 104.549 80.8566 99.8552 80.8566Z" fill="white"/>
<path d="M121.698 37.807V47.8471H25.934C13.8695 47.8471 4.06152 38.1347 4.06152 26.1879C4.06152 14.2411 13.8695 4.55859 25.934 4.55859H121.698V14.5689H25.934C19.3452 14.5689 14.2005 19.6932 14.2005 26.1879C14.2005 32.6827 19.3452 37.807 25.934 37.807H121.698Z" fill="white"/>
<path d="M114.989 127.691V121.375H59.5402C58.6075 121.375 57.735 120.541 57.735 119.617C57.735 118.694 58.6075 117.83 59.5402 117.83H114.989V111.007H25.9341C21.2106 111.007 17.5101 114.672 17.5101 119.349C17.5101 124.026 21.2106 127.691 25.9341 127.691H114.989ZM114.989 34.5298V28.2436H59.5402C58.6075 28.2436 57.735 27.3796 57.735 26.456C57.735 25.5325 58.6075 24.6983 59.5402 24.6983H114.989V17.846H25.9341C21.2106 17.846 17.5101 21.5105 17.5101 26.1879C17.5101 30.8653 21.2106 34.5298 25.9341 34.5298H114.989ZM123.503 51.1242H113.364L116.703 54.0737C122.119 58.8405 125.218 65.6331 125.218 72.7833C125.218 79.9335 122.119 86.7262 116.703 91.4632L113.364 94.4127H123.503C124.165 94.4127 125.067 95.2469 125.278 95.8725V108.951C125.278 109.905 124.436 110.739 123.503 110.739H118.298V127.423H123.503C124.436 127.423 125.278 128.257 125.278 129.18V142.498C125.278 143.421 124.436 144.255 123.503 144.255H25.9341C12.0645 144.255 0.752197 133.083 0.752197 119.349C0.752197 112.08 3.88114 105.257 9.29661 100.669L12.8167 97.6898H2.55735C1.62469 97.6898 0.752197 96.8557 0.752197 95.9321V82.6149C0.752197 81.6913 1.62469 80.8571 2.55735 80.8571H7.76223V64.1733H2.55735C1.62469 64.1733 0.752197 63.3093 0.752197 62.3858V49.0983C0.752197 48.145 1.62469 47.3108 2.55735 47.3108H12.8167L9.29661 44.3315C3.88114 39.7435 0.752197 32.921 0.752197 25.6516C0.752197 11.9173 12.0645 0.745117 25.9341 0.745117H123.503C124.436 0.745117 125.278 1.57931 125.278 2.50287V15.8201C125.278 16.7437 124.436 17.5779 123.503 17.5779H118.298V34.2617H123.503C124.436 34.2617 125.278 35.1256 125.278 36.0492V49.3367C125.278 50.29 124.436 51.1242 123.503 51.1242ZM25.9341 47.847H121.698V37.807H25.9341C19.3453 37.807 14.2006 32.7124 14.2006 26.1879C14.2006 19.6633 19.3453 14.5688 25.9341 14.5688H121.698V4.55855H25.9341C13.8697 4.55855 4.06165 14.2709 4.06165 26.1879C4.06165 38.1049 13.8697 47.847 25.9341 47.847ZM121.698 97.6898H25.9341C13.8697 97.6898 4.06165 107.402 4.06165 119.349C4.06165 131.296 13.8697 140.978 25.9341 140.978H121.698V130.968H25.9341C19.3453 130.968 14.2006 125.844 14.2006 119.349C14.2006 112.854 19.3453 107.73 25.9341 107.73H121.698V97.6898ZM108.279 72.5152C108.279 67.8378 104.549 64.1733 99.8553 64.1733H10.8009V70.9958H66.2493C67.182 70.9958 68.0244 71.83 68.0244 72.7833C68.0244 73.7367 67.182 74.5411 66.2493 74.5411H10.8009V80.8571H99.8553C104.549 80.8571 108.279 77.1926 108.279 72.5152ZM99.8553 61.1643C106.414 61.1643 111.559 66.2588 111.559 72.7833C111.559 79.3079 106.414 84.3726 99.8553 84.3726H4.06165V94.4127H99.8553C111.89 94.4127 121.698 84.7003 121.698 72.7833C121.698 60.8663 111.89 51.1242 99.8553 51.1242H4.06165V61.1643H99.8553Z" fill="white"/>
</g>
</mask>
<g mask="url(#mask0_32_2413)">
<rect x="-7" y="-10" width="122" height="120" fill="white"/>
</g>
</g>
<defs>
<clipPath id="clip0_32_2413">
<rect width="126" height="145" fill="white"/>
</clipPath>
</defs>
</svg>
