<svg width="169" height="137" viewBox="0 0 169 137" fill="none" xmlns="http://www.w3.org/2000/svg">
<g opacity="0.1">
<mask id="mask0_32_2401" style="mask-type:alpha" maskUnits="userSpaceOnUse" x="0" y="0" width="169" height="137">
<g clip-path="url(#clip0_32_2401)">
<path d="M161.343 111.58C165.473 112.963 168.246 116.959 168.246 121.477C168.246 127.533 163.755 132.266 157.997 132.266C152.239 132.266 147.385 127.41 147.385 121.477C147.385 116.959 150.189 112.963 154.319 111.58L155.494 111.18V64.8576L131.679 79.8886V124.766C131.679 131.068 126.644 136.232 120.434 136.232H41.1497C34.9395 136.232 29.9051 131.068 29.9051 124.766V79.8886L5.78809 64.5502C2.65288 62.5215 0.753662 59.1403 0.753662 55.4518C0.753662 51.7632 2.65288 48.382 5.78809 46.384L75.3657 2.48989C77.1745 1.35258 79.134 0.768555 81.0633 0.768555C82.9927 0.768555 84.8618 1.35258 86.4897 2.45915L156.128 46.384C160.197 49.1504 161.976 54.5296 160.288 59.1403L160.167 59.417V111.18L161.343 111.58ZM157.997 130.514C162.79 130.514 166.558 126.549 166.558 121.477C166.558 117.697 164.237 114.377 160.8 113.209L158.449 112.41V59.1096L158.66 58.5256C160.077 54.6526 158.63 50.1648 155.223 47.8594L85.525 3.90385C84.1985 2.9817 82.6309 2.48989 81.0633 2.48989C79.4957 2.48989 77.8075 3.01244 76.2701 3.96532L6.69248 47.8594C4.03961 49.5193 2.472 52.3779 2.472 55.4518C2.472 58.5256 4.03961 61.3842 6.69248 63.0441L31.5933 78.9357V124.766C31.5933 130.115 35.8741 134.48 41.1497 134.48H120.434C124.504 134.48 127.971 131.898 129.328 128.24H128.272C126.946 131.221 124.022 133.189 120.766 133.189H41.4511C36.9895 133.189 33.1911 129.346 33.1911 124.766V79.5505L76.6921 107C78.0487 107.922 79.5862 108.414 81.1538 108.414C82.7214 108.414 84.4397 107.891 85.947 106.938L129.358 79.5505V128.178C129.75 127.102 129.961 125.965 129.961 124.766V78.9357L157.213 61.7531V112.41L154.861 113.209C151.425 114.377 149.103 117.697 149.103 121.477C149.103 126.457 153.083 130.514 157.997 130.514ZM127.639 126.518V82.6858L86.8514 108.444C85.0426 109.551 83.0831 110.135 81.1538 110.135C79.2244 110.135 77.3855 109.551 75.7576 108.475L34.9094 82.6858V124.766C34.9094 128.393 37.8939 131.467 41.4511 131.467H120.766C123.72 131.467 126.313 129.316 127.097 126.518H127.639Z" fill="white"/>
<path d="M163.302 115.975C164.81 117.481 165.624 119.54 165.593 121.969C165.021 126.026 161.674 129.223 157.997 129.223C153.867 129.223 150.37 125.688 150.37 121.477C150.37 117.266 153.867 113.7 157.997 113.7C159.986 113.7 161.885 114.499 163.302 115.975ZM163.875 121.723C163.875 118.188 161.192 115.422 157.997 115.422C154.801 115.422 152.058 118.188 152.058 121.477C152.058 124.766 154.771 127.502 157.997 127.502C160.8 127.502 163.453 124.889 163.875 121.723Z" fill="white"/>
<path d="M166.558 121.478C166.558 126.549 162.79 130.515 157.997 130.515C153.203 130.515 149.104 126.457 149.104 121.478C149.104 117.697 151.425 114.377 154.861 113.209L157.213 112.41V61.7534L129.961 78.9361V124.767C129.961 125.965 129.75 127.103 129.358 128.179V79.5508L85.9471 106.939C84.4398 107.891 82.7817 108.414 81.1538 108.414C79.5259 108.414 78.0487 107.922 76.6922 107L33.1911 79.5508V124.767C33.1911 129.347 36.9895 133.189 41.4512 133.189H120.766C124.022 133.189 126.946 131.222 128.272 128.24H129.328C127.971 131.898 124.504 134.48 120.434 134.48H41.1497C35.8741 134.48 31.5933 130.115 31.5933 124.767V78.9361L6.69252 63.0444C4.03965 61.3846 2.47205 58.5259 2.47205 55.4521C2.47205 52.3783 4.03965 49.5196 6.69252 47.8598L76.2701 3.96567C77.8076 3.01278 79.4656 2.49023 81.0634 2.49023C82.6611 2.49023 84.1986 2.98204 85.525 3.90419L155.223 47.8598C158.63 50.1651 160.077 54.6529 158.66 58.5259L158.449 59.1099V112.41L160.8 113.209C164.237 114.377 166.558 117.697 166.558 121.478ZM165.594 121.969C165.624 119.541 164.81 117.482 163.302 115.976C161.886 114.5 159.986 113.701 157.997 113.701C153.867 113.701 150.37 117.236 150.37 121.478C150.37 125.72 153.867 129.224 157.997 129.224C161.674 129.224 165.021 126.027 165.594 121.969ZM157.876 55.5751C157.967 52.9008 156.821 50.4418 154.801 48.9971L85.0125 4.94929C84.0177 4.18083 82.6008 3.68902 81.1237 3.68902C79.6465 3.68902 78.1995 4.21157 76.9635 5.13372L7.62706 48.8741C5.39623 50.2881 4.0698 52.7471 4.0698 55.4521C4.0698 58.1571 5.39623 60.6161 7.59691 62.0301L77.2047 105.955C78.1995 106.723 79.6465 107.215 81.1237 107.215C82.6008 107.215 84.0479 106.723 85.2537 105.77L154.289 62.0301C156.459 60.6469 157.816 58.2493 157.876 55.5751Z" fill="white"/>
<path d="M157.997 115.422C161.192 115.422 163.905 118.188 163.875 121.723C163.453 124.889 160.8 127.502 157.997 127.502C154.771 127.502 152.058 124.736 152.058 121.477C152.058 118.219 154.771 115.422 157.997 115.422Z" fill="white"/>
<path d="M154.801 48.9965C156.821 50.4412 157.966 52.9003 157.876 55.5745C157.816 58.2487 156.459 60.6463 154.289 62.0295L85.2536 105.77C84.0478 106.723 82.6007 107.215 81.1236 107.215C79.6464 107.215 78.1994 106.723 77.2046 105.954L7.59682 62.0295C5.39614 60.6156 4.0697 58.1565 4.0697 55.4515C4.0697 52.7466 5.39614 50.2875 7.62696 48.8736L76.9634 5.13317C78.1994 4.21103 79.6163 3.68848 81.1236 3.68848C82.6309 3.68848 84.0176 4.18029 85.0124 4.94874L154.801 48.9965ZM156.188 55.513C156.248 53.4536 155.344 51.5478 153.806 50.4105L84.1081 6.45491C83.2941 5.80941 82.239 5.44055 81.1236 5.44055C80.0082 5.44055 78.9229 5.80941 77.9884 6.54713L8.53135 50.349C6.78287 51.4556 5.75789 53.3614 5.75789 55.4515C5.75789 57.5417 6.78287 59.4782 8.5012 60.5541L78.1089 104.448C78.9229 105.094 80.0082 105.463 81.1236 105.463C82.239 105.463 83.2941 105.094 84.2286 104.387L153.384 60.5541C155.072 59.4782 156.128 57.6032 156.188 55.513Z" fill="white"/>
<path d="M72.8636 24.1914C74.2503 24.1914 75.3657 25.3287 75.3657 26.7427C75.3657 28.1566 74.2503 29.2939 72.8636 29.2939C71.4769 29.2939 70.3615 28.1566 70.3615 26.7427C70.3615 25.3287 71.4769 24.1914 72.8636 24.1914ZM73.6474 26.7427C73.6474 26.2816 73.2856 25.9435 72.8636 25.9435C72.4114 25.9435 72.0798 26.2816 72.0798 26.7427C72.0798 27.173 72.4114 27.5419 72.8636 27.5419C73.2856 27.5419 73.6474 27.173 73.6474 26.7427Z" fill="white"/>
<path d="M72.8635 27.5417C73.2964 27.5417 73.6473 27.1839 73.6473 26.7426C73.6473 26.3012 73.2964 25.9434 72.8635 25.9434C72.4306 25.9434 72.0797 26.3012 72.0797 26.7426C72.0797 27.1839 72.4306 27.5417 72.8635 27.5417Z" fill="white"/>
<path d="M62.7043 33.6582C63.0661 34.1808 63.1565 34.7648 63.0359 35.3181C62.8852 35.9021 62.4631 36.4247 61.8602 36.855L29.5434 57.6033C29.1214 57.9106 28.7295 58.0336 28.3376 58.0336C27.5839 58.0336 26.8905 57.5725 26.3781 56.8041C25.5038 55.4516 26.2575 54.2221 27.192 53.6073L59.5389 32.8283C59.961 32.5517 60.3529 32.4287 60.7448 32.4287C61.4683 32.4287 62.1918 32.859 62.7043 33.6582ZM60.9257 35.3796C61.197 35.1951 61.3477 35.0107 61.2874 34.6111C61.0463 34.273 60.8352 34.15 60.7448 34.15L60.4433 34.3037L28.1567 55.052C27.5538 55.4516 27.7045 55.6975 27.7949 55.8205C28.0059 56.1586 28.2471 56.2815 28.3376 56.2815C28.3376 56.2815 28.4581 56.2508 28.639 56.1278L60.9257 35.3796Z" fill="white"/>
<path d="M61.2873 34.6115C61.3476 35.0111 61.1969 35.1955 60.9255 35.3799L28.6389 56.1282C28.458 56.2511 28.3676 56.2819 28.3374 56.2819C28.247 56.2819 28.0058 56.1589 27.7948 55.8208C27.7044 55.6978 27.5536 55.4519 28.1566 55.0523L60.4432 34.3041L60.7447 34.1504C60.7447 34.1504 61.0461 34.2733 61.2873 34.6115Z" fill="white"/>
</g>
</mask>
<g mask="url(#mask0_32_2401)">
<rect x="-9" y="-4" width="150" height="123" fill="white"/>
</g>
</g>
<defs>
<clipPath id="clip0_32_2401">
<rect width="169" height="137" fill="white"/>
</clipPath>
</defs>
</svg>
