<svg width="154" height="154" viewBox="0 0 154 154" fill="none" xmlns="http://www.w3.org/2000/svg">
<mask id="mask0_32_2755" style="mask-type:alpha" maskUnits="userSpaceOnUse" x="0" y="0" width="154" height="154">
<path d="M147.345 70.9231C144.849 45.4055 129.044 23.2552 106.115 13.0482L97.2768 9.15477L102.424 17.3625C113.55 35.1459 116.306 58.822 116.93 71.344L117.086 74.1852H147.657L147.345 70.9231ZM100.344 26.9908C95.6131 17.5203 90.2579 11.3645 84.4868 8.73386L80.3275 6.83977V74.1852L83.239 74.6587H110.951L110.795 71.5019C109.755 53.9289 106.115 38.5658 100.344 26.9908ZM84.6428 146.108C89.1661 143.635 95.5611 138.532 100.396 128.377C106.583 115.96 110.275 100.071 110.795 83.8135V80.7619H80.3275V148.476L84.6428 146.108ZM102.476 137.479L96.7049 146.266L106.167 141.846C129.148 131.113 144.901 108.963 147.345 84.0239L147.657 80.7619H116.982V83.6556C116.358 104.701 111.107 124.326 102.476 137.479ZM70.0331 8.73386C63.95 11.5224 58.1269 17.9939 54.1236 26.5699C47.8845 38.9867 44.1931 54.8234 43.7252 71.1336L43.6212 74.1852H74.1924V6.83977L70.0331 8.73386ZM43.7252 83.4452C44.765 100.965 48.3525 116.381 54.1236 127.956C58.8548 137.427 64.21 143.53 70.0331 146.213L74.1924 148.107V80.7619L71.2289 80.2357H43.5172L43.7252 83.4452ZM48.3525 13.0482C25.424 23.2552 9.6185 45.4055 7.12289 70.9231L6.81094 74.1852H37.4862V71.2914C38.1101 50.246 43.3612 30.6211 51.9919 17.4151L57.555 8.99693L48.3525 13.0482ZM7.12289 84.0239C9.56651 108.963 25.372 131.113 48.3005 141.846L57.3471 146.055L52.0439 137.532C40.9176 119.749 38.214 96.0724 37.5381 83.5504L37.4342 80.7619H6.81094L7.12289 84.0239ZM77 154C34.9905 154 0.467927 119.433 0 76.9211C0 34.5145 34.5226 0 77 0C119.477 0 154 34.5145 154 76.9737C154 119.433 119.477 154 77 154Z" fill="white"/>
</mask>
<g mask="url(#mask0_32_2755)">
<rect x="-9" y="-12" width="132" height="129" fill="white" fill-opacity="0.1"/>
</g>
</svg>
