<svg width="16" height="11" viewBox="0 0 16 11" fill="none" xmlns="http://www.w3.org/2000/svg">
<path d="M0.5 10.5385C0.358333 10.5385 0.239583 10.4905 0.14375 10.3945C0.0479167 10.2986 0 10.1796 0 10.0378C0 9.89593 0.0479167 9.77724 0.14375 9.68172C0.239583 9.58621 0.358333 9.53845 0.5 9.53845H15.5C15.6417 9.53845 15.7604 9.58643 15.8562 9.6824C15.9521 9.77837 16 9.89727 16 10.0391C16 10.181 15.9521 10.2997 15.8562 10.3952C15.7604 10.4907 15.6417 10.5385 15.5 10.5385H0.5ZM4.5 5.76922C4.35833 5.76922 4.23958 5.72124 4.14375 5.62527C4.04792 5.52932 4 5.41042 4 5.26855C4 5.12668 4.04792 5.008 4.14375 4.9125C4.23958 4.81698 4.35833 4.76922 4.5 4.76922H15.5C15.6417 4.76922 15.7604 4.81721 15.8562 4.91317C15.9521 5.00912 16 5.12803 16 5.2699C16 5.41177 15.9521 5.53045 15.8562 5.62595C15.7604 5.72147 15.6417 5.76922 15.5 5.76922H4.5ZM0.5 1C0.358333 1 0.239583 0.952017 0.14375 0.85605C0.0479167 0.760083 0 0.641174 0 0.499324C0 0.357457 0.0479167 0.238766 0.14375 0.14325C0.239583 0.0477495 0.358333 0 0.5 0H15.5C15.6417 0 15.7604 0.047974 15.8562 0.143924C15.9521 0.239891 16 0.358808 16 0.500674C16 0.642524 15.9521 0.761208 15.8562 0.856725C15.7604 0.952241 15.6417 1 15.5 1H0.5Z" fill="#3D3D3D"/>
</svg>
