<svg width="14" height="14" viewBox="0 0 14 14" fill="#fff" xmlns="http://www.w3.org/2000/svg">
<path d="M6.99992 6.43606C6.24367 6.43606 5.59627 6.16679 5.05773 5.62825C4.51919 5.0897 4.24992 4.44231 4.24992 3.68606C4.24992 2.92979 4.51919 2.28239 5.05773 1.74385C5.59627 1.20531 6.24367 0.936035 6.99992 0.936035C7.75617 0.936035 8.40356 1.20531 8.94211 1.74385C9.48065 2.28239 9.74992 2.92979 9.74992 3.68606C9.74992 4.44231 9.48065 5.0897 8.94211 5.62825C8.40356 6.16679 7.75617 6.43606 6.99992 6.43606ZM0.583252 12.1123V11.5553C0.583252 11.1769 0.693428 10.8228 0.913779 10.4932C1.13413 10.1635 1.43058 9.90763 1.80313 9.72547C2.66808 9.31062 3.53362 8.99948 4.39975 8.79205C5.26589 8.58463 6.13261 8.48091 6.99992 8.48091C7.86722 8.48091 8.73394 8.58463 9.60009 8.79205C10.4662 8.99948 11.3318 9.31062 12.1967 9.72547C12.5693 9.90763 12.8657 10.1635 13.0861 10.4932C13.3064 10.8228 13.4166 11.1769 13.4166 11.5553V12.1123C13.4166 12.3815 13.3252 12.6074 13.1425 12.7901C12.9597 12.9729 12.7338 13.0643 12.4647 13.0643H1.53516C1.26605 13.0643 1.04011 12.9729 0.857358 12.7901C0.674621 12.6074 0.583252 12.3815 0.583252 12.1123ZM1.49992 12.1476H12.4999V11.5553C12.4999 11.352 12.4344 11.161 12.3034 10.9824C12.1723 10.8037 11.991 10.6527 11.7595 10.5293C11.005 10.1638 10.2271 9.88383 9.42579 9.68933C8.62445 9.49483 7.81583 9.39758 6.99992 9.39758C6.18401 9.39758 5.37539 9.49483 4.57405 9.68933C3.7727 9.88383 2.99479 10.1638 2.24031 10.5293C2.00879 10.6527 1.82751 10.8037 1.69647 10.9824C1.56544 11.161 1.49992 11.352 1.49992 11.5553V12.1476ZM6.99992 5.51939C7.50409 5.51939 7.93568 5.33988 8.29471 4.98085C8.65374 4.62182 8.83325 4.19023 8.83325 3.68606C8.83325 3.18189 8.65374 2.7503 8.29471 2.39127C7.93568 2.03224 7.50409 1.85273 6.99992 1.85273C6.49575 1.85273 6.06415 2.03224 5.70513 2.39127C5.3461 2.7503 5.16658 3.18189 5.16658 3.68606C5.16658 4.19023 5.3461 4.62182 5.70513 4.98085C6.06415 5.33988 6.49575 5.51939 6.99992 5.51939Z" fill="#3D3D3D"/>
</svg>
