<svg width="180" height="60" viewBox="0 0 180 60" fill="none" xmlns="http://www.w3.org/2000/svg">
<path d="M52.6549 45.6223C51.4249 45.1807 51.1919 44.8863 51.1919 44.3797C51.1919 43.8732 51.5458 43.4706 52.3873 43.4706C53.0045 43.4706 53.4144 43.6741 53.8633 44.0464L54.3035 43.5052C53.7856 43.0896 53.2591 42.8472 52.4305 42.8472C51.2825 42.8472 50.5057 43.436 50.5057 44.423C50.5057 45.3149 50.9545 45.7478 52.2837 46.224C53.4101 46.631 53.7511 46.9557 53.7511 47.5272C53.7511 48.1809 53.2418 48.5878 52.4262 48.5878C51.7918 48.5878 51.2566 48.2934 50.7905 47.8475L50.3374 48.3584C50.8208 48.8519 51.5674 49.2156 52.4046 49.2156C53.6863 49.2156 54.4416 48.4623 54.4416 47.4969C54.4416 46.5314 54.0229 46.1201 52.6592 45.6266L52.6549 45.6223Z" fill="#004289"/>
<path d="M57.2293 44.3929C56.6294 44.3929 56.0857 44.5401 55.68 44.7609L55.9303 45.2978C56.3058 45.077 56.7028 44.9428 57.1861 44.9428C57.8594 44.9428 58.1874 45.2761 58.1874 45.9688V46.5143C57.9155 46.3628 57.4969 46.2459 57.0351 46.2459C56.1245 46.2459 55.27 46.6875 55.27 47.7265C55.27 48.8435 56.0252 49.2071 56.7416 49.2071C57.4062 49.2071 57.8594 48.8954 58.1874 48.5448V49.1119H58.8433V45.8822C58.8433 44.8086 58.2219 44.3843 57.2293 44.3843V44.3929ZM58.1874 47.9819C57.9069 48.3673 57.458 48.6746 56.8625 48.6746C56.2971 48.6746 55.9174 48.3759 55.9174 47.6875C55.9174 47.1074 56.323 46.7784 57.0006 46.7784C57.5616 46.7784 57.8853 46.8823 58.1874 47.0468V47.9863V47.9819Z" fill="#004289"/>
<path d="M65.4638 46.4057V49.1159H66.1198V46.2975C66.1198 44.9467 65.5329 44.3926 64.5921 44.3926C63.8412 44.3926 63.4657 44.7433 63.1938 45.1848C62.9737 44.7433 62.581 44.3926 61.9294 44.3926C61.3856 44.3926 60.9972 44.6567 60.7598 45.055V44.4922H60.0952V49.1202H60.7598V46.41C60.7598 45.384 61.1525 44.964 61.7869 44.964C62.4213 44.964 62.7795 45.3494 62.7795 46.41V49.1202H63.4398V46.41C63.4398 45.384 63.8412 44.964 64.4669 44.964C65.1315 44.964 65.4595 45.3494 65.4595 46.41L65.4638 46.4057Z" fill="#004289"/>
<path d="M68.765 46.423C67.9838 46.068 67.7508 45.9164 67.7508 45.5225C67.7508 45.1848 68.027 44.951 68.5147 44.951C69.0023 44.951 69.3044 45.0809 69.6626 45.3666L70.0294 44.8774C69.6799 44.5873 69.1879 44.3882 68.5578 44.3882C67.7163 44.3882 67.1164 44.8644 67.1164 45.5658C67.1164 46.3061 67.5005 46.5875 68.4283 46.9858C69.244 47.3364 69.5159 47.5486 69.5159 47.9296C69.5159 48.3798 69.2181 48.6439 68.5837 48.6439C68.1262 48.6439 67.6947 48.4577 67.3279 48.133L66.9395 48.6136C67.3796 48.9686 67.932 49.2067 68.5664 49.2067C69.3648 49.2067 70.146 48.8127 70.146 47.8993C70.146 47.0724 69.6367 46.8169 68.7606 46.4186L68.765 46.423Z" fill="#004289"/>
<path d="M73.9955 47.1936C73.9955 48.2067 73.4906 48.6353 72.8562 48.6353C72.1139 48.6353 71.7644 48.1894 71.7644 47.1936V44.4878H71.1084V47.3062C71.1084 48.6353 71.7514 49.2111 72.7224 49.2111C73.305 49.2111 73.7323 48.9383 73.9955 48.5487V49.1158H74.6558V44.4878H73.9955V47.1936Z" fill="#004289"/>
<path d="M79.3169 49.1159V46.2975C79.3169 44.964 78.6739 44.3926 77.6985 44.3926C77.1202 44.3926 76.6887 44.6653 76.4297 45.055V44.4922H75.7651V49.1202H76.4297V46.41C76.4297 45.397 76.926 44.964 77.5647 44.964C78.3027 44.964 78.6566 45.4143 78.6566 46.41V49.1202H79.3169V49.1159Z" fill="#004289"/>
<path d="M81.3924 50.3107L81.6039 50.8129C83.3172 50.7609 83.9386 50.0899 83.9386 48.6959V44.4834H83.2784V45.0029C82.9547 44.6306 82.5576 44.3882 81.9794 44.3882C81.0127 44.3882 80.2358 45.2324 80.2358 46.8732C80.2358 48.514 80.9695 49.2067 81.8887 49.2067C82.5145 49.2067 82.9547 48.895 83.2784 48.5443V48.7824C83.2784 49.8604 82.9288 50.2674 81.3881 50.3064L81.3924 50.3107ZM82.057 48.6352C81.3277 48.6352 80.8875 48.0291 80.8875 46.8646C80.8875 45.622 81.263 44.9597 82.0311 44.9597C82.5792 44.9597 83.0237 45.267 83.2784 45.6523V47.9685C82.9547 48.3755 82.549 48.6352 82.057 48.6352Z" fill="#004289"/>
<path d="M91.2149 45.9859C91.2149 43.8689 90.0237 42.9424 88.4097 42.9424H86.7827V49.116H88.2889C89.9331 49.116 91.2149 48.2241 91.2149 45.9859ZM87.4689 43.5658H88.3579C89.7734 43.5658 90.5287 44.4317 90.5287 46.0075C90.5287 47.7826 89.7001 48.4882 88.3752 48.4882H87.4689V43.5658Z" fill="#004289"/>
<path d="M92.9713 45.0594V44.4879H92.311V49.1159H92.9713V46.3971C92.9713 45.5139 93.3338 44.9987 93.9769 44.9987C94.2833 44.9987 94.4818 45.068 94.6674 45.1762L94.8314 44.5095C94.676 44.4403 94.4559 44.397 94.1107 44.397C93.6144 44.397 93.1785 44.6957 92.9713 45.0637V45.0594Z" fill="#004289"/>
<path d="M98.7758 48.6743L98.4651 48.1981C98.0421 48.4795 97.7271 48.6397 97.1876 48.6397C96.4367 48.6397 95.9663 48.0119 95.9059 47.0292H98.9786C99.0002 46.921 99.0088 46.8257 99.0088 46.6699C99.0088 45.3494 98.3529 44.397 97.1488 44.397C96.0526 44.397 95.2456 45.3105 95.2456 46.7781C95.2456 48.6007 96.2727 49.2155 97.1186 49.2155C97.8134 49.2155 98.2191 49.0293 98.7758 48.6787V48.6743ZM97.1488 44.9641C97.9558 44.9641 98.3442 45.5919 98.396 46.488H95.9059C95.9836 45.4533 96.4626 44.9641 97.1488 44.9641Z" fill="#004289"/>
<path d="M101.21 49.211C101.87 49.211 102.323 48.8993 102.647 48.5487V49.1158H103.307V45.8861C103.307 44.8125 102.686 44.3882 101.693 44.3882C101.093 44.3882 100.549 44.5354 100.144 44.7562L100.39 45.293C100.769 45.0722 101.162 44.938 101.646 44.938C102.323 44.938 102.647 45.2714 102.647 45.9641V46.5095C102.375 46.358 101.961 46.2411 101.499 46.2411C100.584 46.2411 99.7251 46.6827 99.7251 47.7218C99.7251 48.8387 100.485 49.2024 101.205 49.2024L101.21 49.211ZM101.464 46.7736C102.025 46.7736 102.353 46.8775 102.651 47.0421V47.9815C102.371 48.3668 101.922 48.6742 101.326 48.6742C100.765 48.6742 100.381 48.3755 100.381 47.6871C100.381 47.107 100.791 46.778 101.464 46.778V46.7736Z" fill="#004289"/>
<path d="M109.928 46.4057V49.1159H110.588V46.2975C110.588 44.9467 110.001 44.3926 109.06 44.3926C108.313 44.3926 107.934 44.7433 107.666 45.1848C107.446 44.7433 107.053 44.3926 106.402 44.3926C105.854 44.3926 105.469 44.6567 105.232 45.055V44.4922H104.576V49.1202H105.232V46.41C105.232 45.384 105.629 44.964 106.264 44.964C106.898 44.964 107.26 45.3494 107.26 46.41V49.1202H107.916V46.41C107.916 45.384 108.318 44.964 108.948 44.964C109.612 44.964 109.94 45.3494 109.94 46.41L109.928 46.4057Z" fill="#004289"/>
<path d="M52.6549 54.8049C51.4206 54.3633 51.1962 54.0733 51.1962 53.5624C51.1962 53.0516 51.5501 52.6576 52.3916 52.6576C53.0088 52.6576 53.4231 52.8567 53.8676 53.2291L54.3078 52.6922C53.7899 52.2809 53.2591 52.0342 52.4348 52.0342C51.2825 52.0342 50.51 52.6143 50.51 53.6101C50.51 54.5019 50.9589 54.9305 52.2881 55.4067C53.4144 55.818 53.7554 56.1384 53.7554 56.7142C53.7554 57.3636 53.2461 57.7705 52.4262 57.7705C51.7918 57.7705 51.2566 57.4761 50.7905 57.0302L50.3374 57.5411C50.8208 58.0346 51.5674 58.3939 52.4046 58.3939C53.6863 58.3939 54.4372 57.645 54.4372 56.6752C54.4372 55.7054 54.0186 55.2985 52.6592 54.8049H52.6549Z" fill="#004289"/>
<path d="M57.2379 54.1466C57.7039 54.1466 58.0103 54.3111 58.3426 54.6142L58.7397 54.1206C58.3772 53.8003 57.8981 53.5708 57.281 53.5708C56.3143 53.5708 55.2915 54.2938 55.2915 56.0039C55.2915 57.6187 56.2194 58.3893 57.2335 58.3893C57.8809 58.3893 58.3297 58.1426 58.7181 57.7443L58.3211 57.3243C58.006 57.6317 57.7082 57.8135 57.2594 57.8135C56.4438 57.8135 55.9561 57.0819 55.9561 55.9433C55.9561 54.8047 56.5128 54.1379 57.2335 54.1379L57.2379 54.1466Z" fill="#004289"/>
<path d="M61.5579 53.5754C60.9796 53.5754 60.5437 53.8481 60.2805 54.2378V52.0645H59.6245V58.3073H60.2805V55.5972C60.2805 54.5841 60.7854 54.1512 61.4241 54.1512C62.1664 54.1512 62.516 54.5971 62.516 55.5972V58.3073H63.1763V55.4803C63.1763 54.1512 62.5332 53.5754 61.5579 53.5754Z" fill="#004289"/>
<path d="M66.1194 53.5752C64.9973 53.5752 64.104 54.4194 64.104 55.991C64.104 57.5625 64.9628 58.3981 66.0849 58.3981C67.2069 58.3981 68.1089 57.5279 68.1089 55.9563C68.1089 54.3848 67.2415 53.5752 66.1194 53.5752ZM66.1064 57.8223C65.3037 57.8223 64.7643 57.1902 64.7643 55.9736C64.7643 54.7571 65.3037 54.151 66.1064 54.151C66.9092 54.151 67.4486 54.7571 67.4486 55.9736C67.4486 57.1902 66.9048 57.8223 66.1064 57.8223Z" fill="#004289"/>
<path d="M69.7619 52.0601H69.1016V58.3029H69.7619V52.0601Z" fill="#004289"/>
<path d="M72.7787 53.5752C72.1788 53.5752 71.6351 53.7267 71.2337 53.9475L71.4797 54.4887C71.8595 54.2679 72.2565 54.1337 72.7399 54.1337C73.4131 54.1337 73.7411 54.4714 73.7411 55.1554V55.7052C73.4692 55.5537 73.0549 55.4368 72.5931 55.4368C71.6782 55.4368 70.8237 55.8784 70.8237 56.9218C70.8237 58.0387 71.579 58.3981 72.2997 58.3981C72.96 58.3981 73.4131 58.0907 73.7411 57.74V58.3071H74.4014V55.0818C74.4014 53.9995 73.7756 53.5795 72.783 53.5795L72.7787 53.5752ZM73.7368 57.1642C73.4606 57.5452 73.0031 57.8569 72.4119 57.8569C71.8508 57.8569 71.4711 57.5582 71.4711 56.8698C71.4711 56.2853 71.8767 55.965 72.5543 55.965C73.1153 55.965 73.439 56.0602 73.7368 56.2291V57.1642Z" fill="#004289"/>
<path d="M76.3131 54.2466V53.6665H75.6528V58.2988H76.3131V55.58C76.3131 54.7012 76.667 54.1773 77.3143 54.1773C77.6251 54.1773 77.8236 54.2466 78.0092 54.3548L78.1775 53.6838C78.0178 53.6145 77.802 53.5669 77.4568 53.5669C76.9648 53.5669 76.5203 53.8656 76.3174 54.2423L76.3131 54.2466Z" fill="#004289"/>
<path d="M80.7063 55.61C79.9252 55.255 79.6878 55.0948 79.6878 54.7095C79.6878 54.3761 79.9683 54.138 80.4517 54.138C80.935 54.138 81.2457 54.2722 81.6039 54.5536L81.9708 54.0687C81.6169 53.7787 81.1292 53.5752 80.4948 53.5752C79.6576 53.5752 79.0491 54.0514 79.0491 54.7571C79.0491 55.4628 79.4375 55.7788 80.361 56.1728C81.1767 56.5235 81.4486 56.7399 81.4486 57.1166C81.4486 57.5712 81.1508 57.8309 80.5207 57.8309C80.0589 57.8309 79.6317 57.6448 79.2606 57.3201L78.8765 57.8049C79.3167 58.1599 79.8691 58.3937 80.5034 58.3937C81.3018 58.3937 82.083 57.9954 82.083 57.0906C82.083 56.2594 81.5737 56.0083 80.702 55.61H80.7063Z" fill="#004289"/>
<path d="M85.0954 53.5754C84.5085 53.5754 84.0813 53.8481 83.818 54.2378V52.0645H83.1577V58.3073H83.818V55.5972C83.818 54.5841 84.3186 54.1512 84.9616 54.1512C85.6996 54.1512 86.0492 54.5971 86.0492 55.5972V58.3073H86.7095V55.4803C86.7095 54.1512 86.0708 53.5754 85.0954 53.5754Z" fill="#004289"/>
<path d="M88.6687 53.6665H88.0127V58.2989H88.6687V53.6665Z" fill="#004289"/>
<path d="M88.3535 51.8999C88.086 51.8999 87.8745 52.112 87.8745 52.3805C87.8745 52.6489 88.086 52.848 88.3535 52.848C88.5995 52.848 88.811 52.6316 88.811 52.3805C88.811 52.112 88.5995 51.8999 88.3535 51.8999Z" fill="#004289"/>
<path d="M92.048 53.5752C91.4265 53.5752 90.9863 53.8869 90.6583 54.2376V53.6704H89.998V60.0042H90.6583V57.7833C90.982 58.1513 91.379 58.3981 91.9617 58.3981C92.924 58.3981 93.7008 57.5495 93.7008 55.913C93.7008 54.2765 92.9672 53.5752 92.048 53.5752ZM91.9056 57.8223C91.3618 57.8223 90.913 57.5149 90.6583 57.1252V54.8134C90.982 54.4108 91.3877 54.1467 91.8797 54.1467C92.6133 54.1467 93.0535 54.7528 93.0535 55.9174C93.0535 57.1599 92.6737 57.8179 91.9099 57.8179L91.9056 57.8223Z" fill="#004289"/>
<path d="M97.192 52.7528H100.118V52.1294H96.5059V58.303H97.192V55.424H98.8794V54.8006H97.192V52.7528Z" fill="#004289"/>
<path d="M102.12 53.5752C100.998 53.5752 100.101 54.4194 100.101 55.991C100.101 57.5625 100.964 58.3981 102.086 58.3981C103.208 58.3981 104.11 57.5279 104.11 55.9563C104.11 54.3848 103.251 53.5752 102.12 53.5752ZM102.103 57.8223C101.3 57.8223 100.77 57.1902 100.77 55.9736C100.77 54.7571 101.305 54.151 102.103 54.151C102.901 54.151 103.45 54.7571 103.45 55.9736C103.45 57.1902 102.906 57.8223 102.103 57.8223Z" fill="#004289"/>
<path d="M107.748 56.3767C107.748 57.3897 107.252 57.8226 106.609 57.8226C105.871 57.8226 105.517 57.3767 105.517 56.3767V53.6665H104.861V56.4892C104.861 57.8183 105.504 58.3941 106.479 58.3941C107.053 58.3941 107.485 58.1257 107.748 57.7361V58.3032H108.413V53.6708H107.748V56.381V56.3767Z" fill="#004289"/>
<path d="M111.451 53.5751C110.873 53.5751 110.441 53.8479 110.178 54.2375V53.6704H109.518V58.3027H110.178V55.5926C110.178 54.5795 110.678 54.1466 111.322 54.1466C112.059 54.1466 112.409 54.5925 112.409 55.5926V58.3027H113.069V55.4757C113.069 54.1466 112.426 53.5708 111.451 53.5708V53.5751Z" fill="#004289"/>
<path d="M117.035 54.1944C116.707 53.8221 116.314 53.571 115.732 53.571C114.765 53.571 113.993 54.4152 113.993 56.0603C113.993 57.7055 114.722 58.3939 115.646 58.3939C116.271 58.3939 116.707 58.0865 117.031 57.7358V58.3029H117.691V52.0601H117.031V54.1944H117.035ZM117.035 57.1513C116.707 57.554 116.306 57.8181 115.814 57.8181C115.085 57.8181 114.644 57.2119 114.644 56.0474C114.644 54.8005 115.02 54.1425 115.788 54.1425C116.332 54.1425 116.776 54.4498 117.035 54.8395V57.147V57.1513Z" fill="#004289"/>
<path d="M120.488 53.5752C119.892 53.5752 119.348 53.7267 118.943 53.9475L119.184 54.4887C119.564 54.2679 119.961 54.1337 120.444 54.1337C121.118 54.1337 121.441 54.4714 121.441 55.1554V55.7052C121.169 55.5537 120.755 55.4368 120.289 55.4368C119.378 55.4368 118.524 55.8784 118.524 56.9218C118.524 58.0387 119.283 58.3981 120.004 58.3981C120.664 58.3981 121.118 58.0907 121.441 57.74V58.3071H122.102V55.0818C122.102 53.9995 121.48 53.5795 120.483 53.5795L120.488 53.5752ZM121.441 57.1642C121.161 57.5452 120.716 57.8569 120.112 57.8569C119.555 57.8569 119.18 57.5582 119.18 56.8698C119.18 56.2853 119.581 55.965 120.259 55.965C120.82 55.965 121.148 56.0602 121.441 56.2291V57.1642Z" fill="#004289"/>
<path d="M124.208 52.0601H123.543V53.6662H122.974V54.2247H123.543V57.3462C123.543 58.1124 123.854 58.3895 124.428 58.3895C124.773 58.3895 125.019 58.3376 125.274 58.2337L125.321 57.6622C125.11 57.7488 124.937 57.7921 124.67 57.7921C124.32 57.7921 124.208 57.6492 124.208 57.2379V54.2247H125.352V53.6662H124.208V52.0601Z" fill="#004289"/>
<path d="M126.849 51.8999C126.577 51.8999 126.361 52.112 126.361 52.3805C126.361 52.6489 126.577 52.848 126.849 52.848C127.095 52.848 127.302 52.6316 127.302 52.3805C127.302 52.112 127.091 51.8999 126.849 51.8999Z" fill="#004289"/>
<path d="M127.164 53.6665H126.504V58.2989H127.164V53.6665Z" fill="#004289"/>
<path d="M130.176 53.5752C129.054 53.5752 128.157 54.4194 128.157 55.991C128.157 57.5625 129.016 58.3981 130.142 58.3981C131.268 58.3981 132.162 57.5279 132.162 55.9563C132.162 54.3848 131.299 53.5752 130.176 53.5752ZM130.159 57.8223C129.361 57.8223 128.821 57.1902 128.821 55.9736C128.821 54.7571 129.361 54.151 130.159 54.151C130.958 54.151 131.506 54.7571 131.506 55.9736C131.506 57.1902 130.962 57.8223 130.159 57.8223Z" fill="#004289"/>
<path d="M135.049 53.5751C134.47 53.5751 134.039 53.8479 133.771 54.2375V53.6704H133.111V58.3027H133.771V55.5926C133.771 54.5795 134.272 54.1466 134.915 54.1466C135.653 54.1466 136.007 54.5925 136.007 55.5926V58.3027H136.663V55.4757C136.663 54.1466 136.02 53.5708 135.049 53.5708V53.5751Z" fill="#004289"/>
<path d="M75.7261 30.79C73.0763 30.7944 70.8926 32.8724 70.8926 35.4787C70.8926 38.0849 73.0763 40.1414 75.7261 40.15C78.4017 40.1414 80.5639 38.059 80.5639 35.4787C80.5639 32.8984 78.4017 30.7944 75.7261 30.79ZM75.6613 38.0113C74.276 38.0113 73.2316 36.8771 73.2316 35.4787C73.2316 34.0803 74.3494 32.9244 75.7304 32.9244C77.1114 32.9244 78.1903 34.0587 78.1903 35.4787C78.1903 36.8987 77.0596 38.0113 75.6656 38.0113H75.6613Z" fill="#004289"/>
<path d="M53.5479 27.5645C54.2859 28.2962 55.1317 28.9369 55.9647 29.3482L56.051 29.3958L57.4794 27.7031L57.3413 27.6251C55.9862 26.8892 54.9246 25.9584 54.2298 24.7851C53.5393 23.6292 53.1854 22.2871 53.1854 20.6809V19.1743H50.6306V20.5207C50.6306 22.2611 50.2378 23.6292 49.4999 24.8284C48.6756 26.1575 47.4543 27.2268 45.892 28.2183L45.7539 28.3048L47.3032 29.9153L47.3895 29.8677C48.3131 29.3655 49.2927 28.5906 50.1429 27.7247C50.8809 26.9671 51.5196 26.1575 51.908 25.3912C52.2834 26.1445 52.8574 26.9108 53.5479 27.5689V27.5645Z" fill="#004289"/>
<path d="M50.7817 39.0414H61.4758V31.7119H50.7817V39.0414ZM53.1855 33.7813H59.072V36.972H53.1855V33.7813Z" fill="#004289"/>
<path d="M86.437 39.0414H98.5294V31.7119H86.437V39.0414ZM88.8149 33.7813H96.1558V36.972H88.8149V33.7813Z" fill="#004289"/>
<path d="M61.519 18.7412H59.1411V30.872H61.519V25.5036H64.3026V23.3476H61.519V18.7412Z" fill="#004289"/>
<path d="M110.82 28.1836C111.601 28.8633 112.495 29.4347 113.336 29.8027L113.423 29.8417L114.709 28.097L114.571 28.0277C113.345 27.4 112.253 26.6207 111.468 25.6682C110.669 24.6985 110.195 23.5296 110.195 22.1225V21.7112H113.733V19.6245H104.127V21.7112H107.661V22.2134C107.661 23.4949 107.238 24.6898 106.535 25.7245C105.711 26.967 104.507 27.9671 103.337 28.6165L103.182 28.6988L104.761 30.3396L104.847 30.2963C105.698 29.8114 106.638 29.0797 107.441 28.2572C108.084 27.5818 108.662 26.8675 109.016 26.1531C109.444 26.8458 110.1 27.5385 110.825 28.1836H110.82Z" fill="#004289"/>
<path d="M128.018 33.8292H136.662V39.0373H139.062V31.7598H128.018V33.8292Z" fill="#004289"/>
<path d="M133.983 25.4865C133.983 24.3392 133.469 23.2829 132.709 22.4776H135.083V20.4125H130.552V18.1396H127.975V20.4125H123.336V22.4776H125.761C125.019 23.2829 124.505 24.3306 124.505 25.4865C124.505 28.0451 126.607 30.1232 129.235 30.1319C131.864 30.1232 133.978 28.0451 133.983 25.4865ZM126.797 25.3913C126.797 23.9756 127.988 22.7763 129.235 22.7763C130.483 22.7763 131.669 23.9799 131.674 25.3913C131.674 26.7853 130.483 27.9888 129.235 27.9932C127.984 27.9888 126.801 26.7853 126.797 25.3913Z" fill="#004289"/>
<path d="M139.062 18.7412H136.688V30.9153H139.062V26.2699H141.854V24.1139H139.062V18.7412Z" fill="#004289"/>
<path d="M118.921 18.7412H116.547V30.9153H118.921V25.5036H121.709V23.3476H118.921V18.7412Z" fill="#004289"/>
<path d="M78.6304 22.3519H74.8931V24.4862H78.6304V31.3006H81.0083V18.7412H78.6304V22.3519Z" fill="#004289"/>
<path d="M72.5928 27.8806C73.3351 28.6079 74.2025 29.2486 75.0311 29.6816L75.1218 29.7335L76.5502 28.0408L76.4121 27.9628C75.057 27.2485 74.017 26.322 73.3178 25.1661C72.6101 24.0188 72.2562 22.6248 72.2562 21.0186V19.1743H69.697V20.8627C69.697 22.6031 69.3086 23.9669 68.5879 25.1444C67.768 26.4952 66.5207 27.5732 64.9585 28.5559L64.8247 28.6425L66.3826 30.2574L66.4603 30.2054C67.3795 29.6989 68.3376 28.9672 69.1878 28.1317C69.956 27.3654 70.5947 26.5298 70.9831 25.7289C71.3499 26.4606 71.9109 27.2052 72.5928 27.8849V27.8806Z" fill="#004289"/>
<path d="M113.824 30.79C111.174 30.7944 108.991 32.8724 108.986 35.4787C108.991 38.059 111.17 40.1414 113.824 40.15C116.496 40.1414 118.662 38.059 118.662 35.4787C118.662 32.8984 116.496 30.7944 113.824 30.79ZM113.755 38.0113C112.374 38.0113 111.321 36.8771 111.321 35.4787C111.321 34.0803 112.435 32.9244 113.824 32.9244C115.214 32.9244 116.28 34.0587 116.284 35.4787C116.284 36.8727 115.149 38.0113 113.755 38.0113Z" fill="#004289"/>
<path d="M89.3329 25.6987H91.7108V19.5034H85.2935V21.5642H89.3329V25.6987Z" fill="#004289"/>
<path d="M96.4711 25.6987H98.8534V19.5034H92.436V21.5642H96.4711V25.6987Z" fill="#004289"/>
<path d="M157.084 24.2265H155.086V19.0789H152.837V38.5175H155.086V26.5643H157.084V39.037H159.414V18.7412H157.084V24.2265Z" fill="#004289"/>
<path d="M149.54 26.9153C149.005 25.7421 148.785 24.4303 148.785 22.8198V22.0535H151.482V19.8672H143.645V22.0535H146.429V22.8631C146.429 24.387 146.23 25.6338 145.751 26.7898C145.194 28.1189 144.258 29.3138 142.765 30.5952L142.661 30.6905L144.137 32.1581L144.228 32.0889C144.97 31.539 145.747 30.7424 146.394 29.9199C146.942 29.2272 147.404 28.5085 147.693 27.8764C147.991 28.4912 148.457 29.1969 149.001 29.8549C149.631 30.6255 150.343 31.3572 151.025 31.7945L151.115 31.8551L152.358 30.3658L152.259 30.2749C150.921 29.1059 150.093 28.0626 149.549 26.911L149.54 26.9153Z" fill="#004289"/>
<path d="M83.3042 28.582H91.1975V30.8939H93.7739V28.582H101.792V26.5083H83.3042V28.582Z" fill="#004289"/>
<path d="M172.953 27.9195H164.917V21.7848H171.036V19.6245H162.509V30.0149H172.953V27.9195Z" fill="#004289"/>
<path d="M168.408 32.5693H166.004V39.0373H177.247V36.9073H168.408V32.5693Z" fill="#004289"/>
<path d="M177.19 24.3611V18.7373H174.817V33.7124H177.19V26.5171H180V24.3611H177.19Z" fill="#004289"/>
<path d="M50.4109 12.4771L44.2525 9.91846L50.4109 7.35984L49.3147 4.71463L43.1606 7.27325L45.7112 1.09532L43.07 0L40.5238 6.17794L37.9733 0L35.3321 1.09532L37.8826 7.27325L31.7286 4.71463L30.6367 7.35984L36.7908 9.91846L30.6367 12.4771L31.7286 15.1223L37.8826 12.5637L35.3321 18.7416L37.9733 19.8369L40.5238 13.6633L43.07 19.8369L45.7112 18.7373L43.1606 12.5637L49.3147 15.1223L50.4109 12.4771Z" fill="#009FE3"/>
<path d="M10.5644 29.7122H14.6599V18.7417H0.655762V22.4389H10.5644V29.7122Z" fill="#009FE3"/>
<path d="M26.541 29.7122H30.6365V18.7417H16.6323V22.4389H26.541V29.7122Z" fill="#009FE3"/>
<path d="M0 35.3882H26.541V41.0379H30.6366V31.6909H0V35.3882Z" fill="#009FE3"/>
<path d="M9.90869 58.3032H30.6366V42.9385H9.90869V58.3032ZM14.0042 46.6357H26.5454V54.606H14.0042V46.6357Z" fill="#009FE3"/>
</svg>
