<svg width="24" height="24" viewBox="0 0 24 24" fill="none" xmlns="http://www.w3.org/2000/svg">
<path d="M11.5 12.5H6.5C6.35833 12.5 6.23958 12.452 6.14375 12.3561C6.04792 12.2601 6 12.1412 6 11.9993C6 11.8575 6.04792 11.7388 6.14375 11.6433C6.23958 11.5478 6.35833 11.5 6.5 11.5H11.5V6.5C11.5 6.35833 11.548 6.23958 11.6439 6.14375C11.7399 6.04792 11.8588 6 12.0007 6C12.1425 6 12.2612 6.04792 12.3567 6.14375C12.4522 6.23958 12.5 6.35833 12.5 6.5V11.5H17.5C17.6417 11.5 17.7604 11.548 17.8562 11.6439C17.9521 11.7399 18 11.8588 18 12.0007C18 12.1425 17.9521 12.2612 17.8562 12.3567C17.7604 12.4522 17.6417 12.5 17.5 12.5H12.5V17.5C12.5 17.6417 12.452 17.7604 12.3561 17.8562C12.2601 17.9521 12.1412 18 11.9993 18C11.8575 18 11.7388 17.9521 11.6433 17.8562C11.5478 17.7604 11.5 17.6417 11.5 17.5V12.5Z" fill="#5D5D5D"/>
</svg>
