<svg width="74" height="47" viewBox="0 0 74 47" fill="none" xmlns="http://www.w3.org/2000/svg">
<circle cx="22" cy="22" r="22" fill="white"/>
<g clip-path="url(#clip0_78_13)">
<path d="M73.56 14.62C73.6 14.81 73.5 15.01 73.32 15.09L58.89 21.52L60 37.18L60.02 37.25C60.07 37.39 60.05 37.53 59.96 37.64C59.88 37.74 59.76 37.79 59.63 37.79C59.58 37.79 59.53 37.78 59.49 37.77L47.61 33.26L36.88 45.99C36.8 46.08 36.68 46.14 36.56 46.14H36.5C36.39 46.13 36.27 46.05 36.2 45.93L18.1 14.7L18.07 14.62L18.04 14.59L18.02 14.55L18 14.41L18.03 14.28L18.07 14.21L18.11 14.16C18.13 14.13 18.16 14.1 18.19 14.09C18.21 14.07 18.23 14.06 18.29 14.04H18.35L18.42 14L73.14 14.29C73.34 14.29 73.51 14.43 73.55 14.62H73.56ZM71.49 15.1H68.58L30.4 14.91L30.3 16.04L58.4 20.83L71.49 15.1ZM58.9 33.47L58.06 21.62L29.72 16.78L23.08 15.64L52.87 26.15L52.96 26.2L53.05 26.3L59.1 35.75L58.9 33.47ZM58.6 36.54L52.68 27.25L48.18 32.58L58.6 36.54ZM36.62 45L52.02 26.74L19.35 15.2L36.62 45Z" fill="#1D1D1D"/>
<path d="M68.5799 15.1001L71.5699 15.0901L58.3999 20.8301L30.2999 16.0401L23.1399 14.8701L68.5799 15.1001Z" fill="#B9E0FF"/>
<path d="M52.0201 26.7402L36.6201 45.0002L19.3501 15.2002L52.0201 26.7402Z" fill="#B9E0FF"/>
</g>
<defs>
<clipPath id="clip0_78_13">
<rect width="55.57" height="32.14" fill="white" transform="translate(18 14)"/>
</clipPath>
</defs>
</svg>
