<svg width="34" height="32" viewBox="0 0 34 32" fill="none" xmlns="http://www.w3.org/2000/svg">
<g clip-path="url(#clip0_13_574)">
<path d="M33.1083 16.1544C32.3916 15.1346 31.2878 14.4925 30.0762 14.394C28.8718 14.2869 27.6815 14.7412 26.868 15.5777L24.1882 18.0972C24.5791 21.3633 21.9186 24.2763 18.7343 24.2552H13.2295C11.4296 24.2479 11.4309 21.4407 13.2295 21.4334H18.7343C22.3528 21.366 22.3496 15.8568 18.7343 15.7906H13.3501C9.30646 15.7906 5.50539 17.4062 2.61911 20.3615L1.21919 21.8725C0.977273 22.1351 0.841797 22.4836 0.841797 22.8433V29.8973C0.841797 30.6776 1.45724 31.3078 2.21785 31.3078H16.4209C20.2 31.3078 23.8211 29.8702 26.6164 27.2621L32.5593 21.7105C34.0321 20.1968 34.2669 17.8082 33.1057 16.1537L33.107 16.155L33.1083 16.1544Z" fill="white"/>
<path d="M26.6266 4.18698C26.6266 7.23818 22.7455 11.0307 20.8121 12.6204C20.1889 13.1329 19.3018 13.1329 18.6786 12.6204C16.7452 11.0294 12.8641 7.23818 12.8641 4.18698C12.7738 2.1436 14.3118 0.40969 16.3046 0.30719C18.298 0.409029 19.8353 2.14293 19.745 4.18698C19.6547 2.1436 21.1927 0.40969 23.1855 0.30719C25.1789 0.409029 26.7162 2.14293 26.6259 4.18698H26.6266Z" fill="white"/>
</g>
<defs>
<clipPath id="clip0_13_574">
<rect width="33" height="31" fill="white" transform="translate(0.842773 0.30719)"/>
</clipPath>
</defs>
</svg>
