<svg width="34" height="35" viewBox="0 0 34 35" fill="none" xmlns="http://www.w3.org/2000/svg">
<g clip-path="url(#clip0_13_568)">
<path d="M5.62229 2.05858C5.55354 1.06408 6.36891 0.223993 7.33417 0.294826C13.5065 0.742493 16.2868 3.69624 16.6182 10.2072C16.9495 3.69624 19.7298 0.742493 25.9022 0.294826C26.866 0.225409 27.6814 1.06408 27.614 2.05858C27.1795 8.41799 24.3044 11.2471 17.9863 11.5885C17.9863 11.6012 17.9932 11.6126 17.9932 11.6253V14.4587C17.9863 16.3117 15.25 16.3102 15.2432 14.4587V11.6253C15.2432 11.6126 15.25 11.6012 15.25 11.5885C8.93054 11.2471 6.05679 8.41799 5.62229 2.05858ZM32.3537 19.0727C31.6373 18.0485 30.5345 17.4039 29.3245 17.3047C28.1214 17.1971 26.932 17.6532 26.1194 18.4933L23.4423 21.0235C23.8328 24.3031 21.1749 27.2285 17.9932 27.2072H12.4932C10.6947 27.2002 10.696 24.381 12.4932 24.3739H17.9932C21.608 24.3059 21.6053 18.7738 17.9932 18.7072H12.6142C8.57442 18.7072 4.77666 20.3293 1.89329 23.2972L0.494914 24.8145C0.252914 25.078 0.118164 25.4279 0.118164 25.7892V32.8725C0.118164 33.6559 0.732789 34.2892 1.49316 34.2892H15.6832C19.4589 34.2892 23.0765 32.8456 25.8692 30.2262L31.8064 24.6516C33.2777 23.1315 33.5128 20.7331 32.3523 19.0713L32.3537 19.0727Z" fill="white"/>
</g>
<defs>
<clipPath id="clip0_13_568">
<rect width="33" height="34" fill="white" transform="translate(0.118164 0.290649)"/>
</clipPath>
</defs>
</svg>
