<svg width="37" height="27" viewBox="0 0 37 27" fill="none" xmlns="http://www.w3.org/2000/svg">
<g clip-path="url(#clip0_13_391)">
<path d="M36.4432 8.9281C36.4432 4.5381 32.8832 0.988098 28.5032 0.988098H8.18316C3.80316 0.988098 0.243164 4.5481 0.243164 8.9281V18.3781C0.243164 22.7681 3.80316 26.3181 8.18316 26.3181H28.4932C32.8832 26.3181 36.4332 22.7581 36.4332 18.3781V8.9281H36.4432ZM24.4932 14.3681L15.3832 18.8781C15.0232 19.0681 13.8132 18.8081 13.8132 18.4081V9.1581C13.8132 8.7481 15.0332 8.4881 15.3932 8.6881L24.1132 13.4281C24.4832 13.6381 24.8632 14.1681 24.4932 14.3681Z" fill="white"/>
</g>
<defs>
<clipPath id="clip0_13_391">
<rect width="36.2" height="25.34" fill="white" transform="translate(0.243164 0.988098)"/>
</clipPath>
</defs>
</svg>
