<svg width="16" height="9" viewBox="0 0 16 9" fill="none" xmlns="http://www.w3.org/2000/svg">
<path d="M0.5 8.04084C0.358333 8.04084 0.239583 8.00423 0.14375 7.93102C0.0479167 7.8578 0 7.76707 0 7.65882C0 7.55059 0.0479167 7.46003 0.14375 7.38716C0.239583 7.31428 0.358333 7.27784 0.5 7.27784H15.5C15.6417 7.27784 15.7604 7.31445 15.8562 7.38767C15.9521 7.46089 16 7.55162 16 7.65985C16 7.7681 15.9521 7.85866 15.8562 7.93154C15.7604 8.0044 15.6417 8.04084 15.5 8.04084H0.5ZM4.5 4.40192C4.35833 4.40192 4.23958 4.36531 4.14375 4.29208C4.04792 4.21887 4 4.12815 4 4.0199C4 3.91166 4.04792 3.8211 4.14375 3.74824C4.23958 3.67536 4.35833 3.63892 4.5 3.63892H15.5C15.6417 3.63892 15.7604 3.67553 15.8562 3.74875C15.9521 3.82196 16 3.91269 16 4.02093C16 4.12918 15.9521 4.21973 15.8562 4.2926C15.7604 4.36548 15.6417 4.40192 15.5 4.40192H4.5ZM0.5 0.763C0.358333 0.763 0.239583 0.726389 0.14375 0.653166C0.0479167 0.579944 0 0.489216 0 0.380984C0 0.27274 0.0479167 0.182179 0.14375 0.109299C0.239583 0.0364329 0.358333 0 0.5 0H15.5C15.6417 0 15.7604 0.0366041 15.8562 0.109814C15.9521 0.183037 16 0.27377 16 0.382015C16 0.490246 15.9521 0.580802 15.8562 0.653681C15.7604 0.72656 15.6417 0.763 15.5 0.763H0.5Z" fill="white"/>
</svg>
