<svg width="91" height="16" viewBox="0 0 91 16" fill="none" xmlns="http://www.w3.org/2000/svg">
<path d="M6.36719 12.7148H6.52344L10.7031 0.859375H12.5586L7.38281 15H5.52734L0.351562 0.859375H2.20703L6.36719 12.7148ZM13.7578 4.39453H15.4375V15H13.7578V4.39453ZM14.5977 2.63672C14.3828 2.63672 14.1842 2.58464 14.002 2.48047C13.8262 2.3763 13.6862 2.24284 13.582 2.08008C13.4779 1.91081 13.4258 1.72526 13.4258 1.52344C13.4258 1.32161 13.4779 1.13607 13.582 0.966797C13.6862 0.791016 13.8262 0.654297 14.002 0.556641C14.1842 0.458984 14.3828 0.410156 14.5977 0.410156C14.806 0.410156 15.0013 0.458984 15.1836 0.556641C15.3659 0.654297 15.5124 0.791016 15.623 0.966797C15.7337 1.13607 15.7891 1.32161 15.7891 1.52344C15.7891 1.72526 15.7337 1.91081 15.623 2.08008C15.5124 2.24284 15.3659 2.3763 15.1836 2.48047C15.0013 2.58464 14.806 2.63672 14.5977 2.63672ZM22.0664 15.2148C21.0573 15.2148 20.1784 14.9902 19.4297 14.541C18.6875 14.0918 18.1146 13.457 17.7109 12.6367C17.3073 11.8164 17.1055 10.8659 17.1055 9.78516C17.1055 8.70443 17.3073 7.74414 17.7109 6.9043C18.1146 6.06445 18.6777 5.41341 19.4004 4.95117C20.123 4.48893 20.9596 4.25781 21.9102 4.25781C22.7109 4.25781 23.4564 4.43359 24.1465 4.78516C24.8431 5.13672 25.4062 5.70964 25.8359 6.50391C26.2656 7.29818 26.4805 8.3138 26.4805 9.55078V10.2539H18.2773V8.82812H24.7812C24.7812 8.24219 24.6641 7.71484 24.4297 7.24609C24.1953 6.77734 23.86 6.40951 23.4238 6.14258C22.9876 5.87565 22.4831 5.74219 21.9102 5.74219C21.2852 5.74219 20.7383 5.89518 20.2695 6.20117C19.8008 6.50716 19.4362 6.91732 19.1758 7.43164C18.9219 7.94596 18.7917 8.49609 18.7852 9.08203V10.0391C18.7852 10.8203 18.9251 11.4876 19.2051 12.041C19.485 12.5944 19.8691 13.0143 20.3574 13.3008C20.8457 13.5872 21.4154 13.7305 22.0664 13.7305C22.4701 13.7305 22.8346 13.6751 23.1602 13.5645C23.4857 13.4538 23.7591 13.3105 23.9805 13.1348C24.2083 12.9525 24.3906 12.7474 24.5273 12.5195H26.3242C26.1549 13.0599 25.875 13.5352 25.4844 13.9453C25.0938 14.349 24.6055 14.6615 24.0195 14.8828C23.4336 15.1042 22.7826 15.2148 22.0664 15.2148ZM27.3281 4.39453H29.1055L31.3711 12.4805H31.4688L33.7148 4.39453H35.5117L37.7188 12.4414H37.8359L40.1016 4.39453H41.8594L38.6367 15H36.9766L34.6719 6.91406H34.5156L32.2305 15H30.5508L27.3281 4.39453ZM50.0586 0.859375L54.8242 12.5H55L59.7656 0.859375H61.875V15H60.2148V4.31641H60.0781L55.6836 15H54.1211L49.7266 4.31641H49.6094V15H47.9492V0.859375H50.0586ZM68.6211 15.2148C67.6641 15.2148 66.8177 14.987 66.082 14.5312C65.3529 14.0755 64.7865 13.4375 64.3828 12.6172C63.9792 11.7904 63.7773 10.8333 63.7773 9.74609C63.7773 8.65234 63.9792 7.69206 64.3828 6.86523C64.7865 6.03841 65.3529 5.39714 66.082 4.94141C66.8177 4.48568 67.6641 4.25781 68.6211 4.25781C69.5716 4.25781 70.4115 4.48568 71.1406 4.94141C71.8698 5.39714 72.4329 6.03841 72.8301 6.86523C73.2272 7.69206 73.4258 8.65234 73.4258 9.74609C73.4258 10.8333 73.2272 11.7904 72.8301 12.6172C72.4329 13.4375 71.8698 14.0755 71.1406 14.5312C70.4115 14.987 69.5716 15.2148 68.6211 15.2148ZM68.6211 13.7305C69.3047 13.7305 69.8809 13.5514 70.3496 13.1934C70.8249 12.8353 71.1764 12.3535 71.4043 11.748C71.6322 11.1426 71.7461 10.4753 71.7461 9.74609C71.7461 9.01693 71.6322 8.34961 71.4043 7.74414C71.1764 7.13867 70.8249 6.65365 70.3496 6.28906C69.8809 5.92448 69.3047 5.74219 68.6211 5.74219C67.931 5.74219 67.3483 5.92448 66.873 6.28906C66.3978 6.65365 66.043 7.13867 65.8086 7.74414C65.5807 8.34961 65.4635 9.01693 65.457 9.74609C65.4635 10.4753 65.5807 11.1426 65.8086 11.748C66.043 12.3535 66.3978 12.8353 66.873 13.1934C67.3483 13.5514 67.931 13.7305 68.6211 13.7305ZM75.1328 4.39453H76.7539V6.01562H76.8711C77.0599 5.48177 77.4049 5.05208 77.9062 4.72656C78.4141 4.39453 78.9805 4.22526 79.6055 4.21875C80.1328 4.23828 80.4258 4.2513 80.4844 4.25781V5.95703C80.3737 5.93099 80.224 5.90495 80.0352 5.87891C79.8464 5.85286 79.6576 5.83984 79.4688 5.83984C78.9674 5.83984 78.515 5.94727 78.1113 6.16211C77.7142 6.37695 77.3984 6.67318 77.1641 7.05078C76.9297 7.42839 76.8125 7.85156 76.8125 8.32031V15H75.1328V4.39453ZM85.7266 15.2148C84.7174 15.2148 83.8385 14.9902 83.0898 14.541C82.3477 14.0918 81.7747 13.457 81.3711 12.6367C80.9674 11.8164 80.7656 10.8659 80.7656 9.78516C80.7656 8.70443 80.9674 7.74414 81.3711 6.9043C81.7747 6.06445 82.3379 5.41341 83.0605 4.95117C83.7832 4.48893 84.6198 4.25781 85.5703 4.25781C86.3711 4.25781 87.1165 4.43359 87.8066 4.78516C88.5033 5.13672 89.0664 5.70964 89.4961 6.50391C89.9258 7.29818 90.1406 8.3138 90.1406 9.55078V10.2539H81.9375V8.82812H88.4414C88.4414 8.24219 88.3242 7.71484 88.0898 7.24609C87.8555 6.77734 87.5202 6.40951 87.084 6.14258C86.6478 5.87565 86.1432 5.74219 85.5703 5.74219C84.9453 5.74219 84.3984 5.89518 83.9297 6.20117C83.4609 6.50716 83.0964 6.91732 82.8359 7.43164C82.582 7.94596 82.4518 8.49609 82.4453 9.08203V10.0391C82.4453 10.8203 82.5853 11.4876 82.8652 12.041C83.1452 12.5944 83.5293 13.0143 84.0176 13.3008C84.5059 13.5872 85.0755 13.7305 85.7266 13.7305C86.1302 13.7305 86.4948 13.6751 86.8203 13.5645C87.1458 13.4538 87.4193 13.3105 87.6406 13.1348C87.8685 12.9525 88.0508 12.7474 88.1875 12.5195H89.9844C89.8151 13.0599 89.5352 13.5352 89.1445 13.9453C88.7539 14.349 88.2656 14.6615 87.6797 14.8828C87.0938 15.1042 86.4427 15.2148 85.7266 15.2148Z" fill="#1D1D1D"/>
</svg>
