<svg width="13" height="13" viewBox="0 0 13 13" fill="none" xmlns="http://www.w3.org/2000/svg">
<g clip-path="url(#clip0_3_494)">
<path d="M9.93834 2.32031C9.51875 2.32031 9.17578 2.66328 9.17578 3.08287C9.17578 3.50246 9.51875 3.84543 9.93834 3.84543C10.3579 3.84543 10.7009 3.50246 10.7009 3.08287C10.7009 2.66328 10.3579 2.32031 9.93834 2.32031Z" fill="white"/>
<path d="M6.55335 3.29883C4.78742 3.29883 3.35352 4.73638 3.35352 6.49866C3.35352 8.26094 4.79107 9.69849 6.55335 9.69849C8.31563 9.69849 9.75318 8.26094 9.75318 6.49866C9.75318 4.73638 8.31563 3.29883 6.55335 3.29883ZM6.55335 8.54918C5.42228 8.54918 4.50283 7.62973 4.50283 6.49866C4.50283 5.36759 5.42228 4.44814 6.55335 4.44814C7.68442 4.44814 8.60387 5.36759 8.60387 6.49866C8.60387 7.62973 7.68442 8.54918 6.55335 8.54918Z" fill="white"/>
<path d="M9.09234 13H3.90401C1.75133 13 0 11.2487 0 9.09599V3.90766C0 1.75133 1.75133 0 3.90401 0H9.09234C11.245 0 12.9964 1.75133 12.9964 3.90401V9.09234C12.9964 11.245 11.245 12.9964 9.09234 12.9964V13ZM3.90401 1.22228C2.42633 1.22228 1.22228 2.42633 1.22228 3.90401V9.09234C1.22228 10.57 2.42633 11.7741 3.90401 11.7741H9.09234C10.57 11.7741 11.7741 10.57 11.7741 9.09234V3.90401C11.7741 2.42633 10.57 1.22228 9.09234 1.22228H3.90401Z" fill="white"/>
</g>
<defs>
<clipPath id="clip0_3_494">
<rect width="13" height="13" fill="white"/>
</clipPath>
</defs>
</svg>
