<svg xmlns="http://www.w3.org/2000/svg" xmlns:xlink="http://www.w3.org/1999/xlink" width="109.979" height="52.596" viewBox="0 0 109.979 52.596">
  <defs>
    <clipPath id="clip-path">
      <rect id="사각형_2" data-name="사각형 2" width="109.979" height="52.596" fill="none"/>
    </clipPath>
  </defs>
  <g id="logo" clip-path="url(#clip-path)">
    <path id="패스_1" data-name="패스 1" d="M50.179,30.047q-.518,0-1.037-.033c-8.484-.538-14.076-7.641-14.131-7.713l-.041-.054.007-19.4A1.577,1.577,0,0,1,36.1,1.792c1.429-.354,3.613,1.021,6.49,4.086,1.064-.534,8.109-3.779,14.549.21l6.231-4.954.246.309L57.164,6.572,57.046,6.5c-6.782-4.3-14.328-.244-14.4-.2l-.134.074-.1-.112c-3.509-3.766-5.31-4.3-6.2-4.083a1.182,1.182,0,0,0-.836.757V22.112c.521.642,5.881,7.008,13.807,7.509,5.53.35,11.049-2.181,16.411-7.522l.006-8.544C65.624,13.419,69.4-.1,86.1,0s20.064,13.477,20.1,13.612l.421,9.339-.393.018-.416-9.3C105.782,13.572,102.477.5,86.1.394h-.188C70.012.394,66.157,13,65.976,13.633v8.63l-.058.058c-5.131,5.131-10.421,7.727-15.739,7.727" transform="translate(-21.188 0)" fill="#fff"/>
    <path id="패스_2" data-name="패스 2" d="M55.47,37.2a2.352,2.352,0,1,1-2.352-2.352A2.352,2.352,0,0,1,55.47,37.2" transform="translate(-30.759 -21.117)" fill="#fff"/>
    <path id="패스_3" data-name="패스 3" d="M52.815,39.451A2.549,2.549,0,1,1,55.364,36.9a2.552,2.552,0,0,1-2.549,2.549m0-4.7A2.155,2.155,0,1,0,54.969,36.9a2.157,2.157,0,0,0-2.155-2.155" transform="translate(-30.455 -20.814)" fill="#fff"/>
    <path id="패스_4" data-name="패스 4" d="M89.755,37.2A2.352,2.352,0,1,1,87.4,34.853,2.352,2.352,0,0,1,89.755,37.2" transform="translate(-51.531 -21.117)" fill="#fff"/>
    <path id="패스_5" data-name="패스 5" d="M87.1,39.451A2.549,2.549,0,1,1,89.65,36.9,2.552,2.552,0,0,1,87.1,39.451m0-4.7A2.155,2.155,0,1,0,89.256,36.9,2.157,2.157,0,0,0,87.1,34.747" transform="translate(-51.228 -20.814)" fill="#fff"/>
    <path id="패스_6" data-name="패스 6" d="M146.441,28.192a1.91,1.91,0,1,1-1.91-1.91,1.91,1.91,0,0,1,1.91,1.91" transform="translate(-86.411 -15.924)" fill="#fff"/>
    <path id="패스_7" data-name="패스 7" d="M144.227,30a2.107,2.107,0,1,1,2.107-2.107A2.11,2.11,0,0,1,144.227,30m0-3.82a1.713,1.713,0,1,0,1.713,1.713,1.715,1.715,0,0,0-1.713-1.713" transform="translate(-86.108 -15.621)" fill="#fff"/>
    <path id="패스_8" data-name="패스 8" d="M179.3,28.192a1.91,1.91,0,1,1-1.91-1.91,1.91,1.91,0,0,1,1.91,1.91" transform="translate(-106.323 -15.924)" fill="#fff"/>
    <path id="패스_9" data-name="패스 9" d="M177.091,30a2.107,2.107,0,1,1,2.107-2.107A2.11,2.11,0,0,1,177.091,30m0-3.82a1.713,1.713,0,1,0,1.713,1.713,1.715,1.715,0,0,0-1.713-1.713" transform="translate(-106.019 -15.621)" fill="#fff"/>
    <path id="패스_10" data-name="패스 10" d="M135.93,59.156h-.111c-2.758-.025-4.658-.8-5.648-2.309-1.652-2.515-.167-6.1-.1-6.254l.363.153c-.015.035-1.467,3.548.07,5.886.914,1.39,2.7,2.107,5.322,2.13a6.715,6.715,0,0,0,5.3-1.945,7.863,7.863,0,0,0,1.66-5.478l.392-.041a8.122,8.122,0,0,1-1.758,5.782,7.076,7.076,0,0,1-5.491,2.076" transform="translate(-78.397 -30.653)" fill="#fff"/>
    <path id="패스_11" data-name="패스 11" d="M172.087,59.156A7.076,7.076,0,0,1,166.6,57.08a8.123,8.123,0,0,1-1.759-5.782l.392.041a7.862,7.862,0,0,0,1.66,5.478,6.781,6.781,0,0,0,5.3,1.945c2.619-.024,4.409-.741,5.323-2.131,1.537-2.341.084-5.849.069-5.885l.363-.153c.064.152,1.548,3.739-.1,6.254-.99,1.508-2.89,2.284-5.648,2.309h-.111" transform="translate(-99.856 -30.653)" fill="#fff"/>
    <path id="패스_12" data-name="패스 12" d="M72.742,57.629c0,.6-1.082,1.083-2.417,1.083s-2.417-.485-2.417-1.083,1.082-1.083,2.417-1.083,2.417.485,2.417,1.083" transform="translate(-41.145 -34.26)" fill="#d37c9d"/>
    <path id="패스_13" data-name="패스 13" d="M70.023,58.606c-1.49,0-2.614-.551-2.614-1.28s1.124-1.28,2.614-1.28,2.614.55,2.614,1.28-1.124,1.28-2.614,1.28m0-2.166c-1.308,0-2.22.467-2.22.886s.912.886,2.22.886,2.22-.467,2.22-.886-.912-.886-2.22-.886" transform="translate(-40.842 -33.957)" fill="#d37c9d"/>
    <path id="패스_14" data-name="패스 14" d="M15.438,88.663H3.811v2.621H15.537v1.793H9.585V94.95H16.6v1.833H.5V94.95H7.457V93.077H1.683V86.85H15.438ZM1.348,101.63a2.63,2.63,0,0,1,1.439-2.4A12.418,12.418,0,0,1,8.58,98.221a12.276,12.276,0,0,1,5.774,1.005,2.729,2.729,0,0,1,0,4.809c-1.242.709-3.212.986-5.774.986-2.542,0-4.552-.276-5.794-.986a2.629,2.629,0,0,1-1.439-2.4m2.148,0a1.119,1.119,0,0,0,.611.966,10.3,10.3,0,0,0,4.473.631,10.142,10.142,0,0,0,4.454-.631,1.1,1.1,0,0,0,.631-.966,1.125,1.125,0,0,0-.631-.966,10.136,10.136,0,0,0-4.454-.631,10.293,10.293,0,0,0-4.473.631,1.143,1.143,0,0,0-.611.966" transform="translate(-0.303 -52.621)" fill="#fff"/>
    <path id="패스_15" data-name="패스 15" d="M15.438,88.663H3.811v2.621H15.537v1.793H9.585V94.95H16.6v1.833H.5V94.95H7.457V93.077H1.683V86.85H15.438ZM1.348,101.63a2.63,2.63,0,0,1,1.439-2.4A12.418,12.418,0,0,1,8.58,98.221a12.276,12.276,0,0,1,5.774,1.005,2.729,2.729,0,0,1,0,4.809c-1.242.709-3.212.986-5.774.986-2.542,0-4.552-.276-5.794-.986A2.629,2.629,0,0,1,1.348,101.63Zm2.148,0a1.119,1.119,0,0,0,.611.966,10.3,10.3,0,0,0,4.473.631,10.142,10.142,0,0,0,4.454-.631,1.1,1.1,0,0,0,.631-.966,1.125,1.125,0,0,0-.631-.966,10.136,10.136,0,0,0-4.454-.631,10.293,10.293,0,0,0-4.473.631A1.143,1.143,0,0,0,3.5,101.63Z" transform="translate(-0.303 -52.621)" fill="none" stroke="#fff" stroke-miterlimit="10" stroke-width="1"/>
    <path id="패스_16" data-name="패스 16" d="M48.5,95.344V93.531H64.6v1.813H57.585v1.537h5.853v4.769H51.811v1.3H63.832v1.734H49.683v-4.75H61.29v-1.32H49.683V96.881h5.794V95.344ZM63.438,92.27H49.683V86.85H63.438ZM51.811,90.535H61.29V88.6H51.811Z" transform="translate(-29.385 -52.621)" fill="#fff"/>
    <path id="패스_17" data-name="패스 17" d="M48.5,95.344V93.531H64.6v1.813H57.585v1.537h5.853v4.769H51.811v1.3H63.832v1.734H49.683v-4.75H61.29v-1.32H49.683V96.881h5.794V95.344ZM63.438,92.27H49.683V86.85H63.438ZM51.811,90.535H61.29V88.6H51.811Z" transform="translate(-29.385 -52.621)" fill="none" stroke="#fff" stroke-miterlimit="10" stroke-width="1"/>
    <path id="패스_18" data-name="패스 18" d="M99.873,90.647h9.715V87.1h2.149V97.919h-5.893v4.1h6.819v1.852H96.8v-1.852h6.917v-4.1H97.725V87.1h2.148Zm9.715,1.872H99.873v3.527h9.715Z" transform="translate(-58.649 -52.772)" fill="#fff"/>
    <path id="패스_19" data-name="패스 19" d="M99.873,90.647h9.715V87.1h2.149V97.919h-5.893v4.1h6.819v1.852H96.8v-1.852h6.917v-4.1H97.725V87.1h2.148Zm9.715,1.872H99.873v3.527h9.715Z" transform="translate(-58.649 -52.772)" fill="none" stroke="#fff" stroke-miterlimit="10" stroke-width="1"/>
    <path id="패스_20" data-name="패스 20" d="M145.725,93.942a3.145,3.145,0,0,1,1.7-2.779,10.7,10.7,0,0,1,5.3-1.1,10.533,10.533,0,0,1,5.42,1.163,3.141,3.141,0,0,1-.02,5.459,9.115,9.115,0,0,1-4.3,1.1v2.779h6.838v1.852H144.8v-1.852h6.917V97.8a10.052,10.052,0,0,1-4.119-.986,3.149,3.149,0,0,1-1.872-2.877m14.445-7.016v1.852H145.292V86.926h6.346V84.7h2.188v2.227Zm-12.3,7.016a1.55,1.55,0,0,0,.966,1.36,10.978,10.978,0,0,0,7.765,0,1.539,1.539,0,0,0,.985-1.36,1.622,1.622,0,0,0-1.064-1.439,9.4,9.4,0,0,0-3.8-.631,8.38,8.38,0,0,0-4.02.749,1.533,1.533,0,0,0-.828,1.32" transform="translate(-87.731 -51.318)" fill="#fff"/>
    <path id="패스_21" data-name="패스 21" d="M145.725,93.942a3.145,3.145,0,0,1,1.7-2.779,10.7,10.7,0,0,1,5.3-1.1,10.533,10.533,0,0,1,5.42,1.163,3.141,3.141,0,0,1-.02,5.459,9.115,9.115,0,0,1-4.3,1.1v2.779h6.838v1.852H144.8v-1.852h6.917V97.8a10.052,10.052,0,0,1-4.119-.986A3.149,3.149,0,0,1,145.725,93.942Zm14.445-7.016v1.852H145.292V86.926h6.346V84.7h2.188v2.227Zm-12.3,7.016a1.55,1.55,0,0,0,.966,1.36,10.978,10.978,0,0,0,7.765,0,1.539,1.539,0,0,0,.985-1.36,1.622,1.622,0,0,0-1.064-1.439,9.4,9.4,0,0,0-3.8-.631,8.38,8.38,0,0,0-4.02.749A1.533,1.533,0,0,0,147.873,93.942Z" transform="translate(-87.731 -51.318)" fill="none" stroke="#fff" stroke-miterlimit="10" stroke-width="1"/>
    <path id="패스_22" data-name="패스 22" d="M196.077,93.651A7.939,7.939,0,0,1,192,97.041V95.05c1.655-.828,3-2.444,3-5.38V86.418H197.1v3.193a5,5,0,0,0,2.976,5.045v1.991a7.49,7.49,0,0,1-4-3m11.746,10.6H193.969v-6.07h2.148V102.4h11.706Zm-6.188-14.6V86.418h2.01V98.381h-2.01v-6.9h-2.6V89.65Zm3.784-3.35h2.069V98.735h-2.069Z" transform="translate(-116.328 -52.288)" fill="#fff"/>
    <path id="패스_23" data-name="패스 23" d="M196.077,93.651A7.939,7.939,0,0,1,192,97.041V95.05c1.655-.828,3-2.444,3-5.38V86.418H197.1v3.193a5,5,0,0,0,2.976,5.045v1.991A7.49,7.49,0,0,1,196.077,93.651Zm11.746,10.6H193.969v-6.07h2.148V102.4h11.706Zm-6.188-14.6V86.418h2.01V98.381h-2.01v-6.9h-2.6V89.65Zm3.784-3.35h2.069V98.735h-2.069Z" transform="translate(-116.328 -52.288)" fill="none" stroke="#fff" stroke-miterlimit="10" stroke-width="1"/>
    <path id="패스_24" data-name="패스 24" d="M249.087,102.972h-6.739V86.615h8.572v1.892h-6.444v5.262h5.7v1.872h-5.7V101.1h4.71a11.15,11.15,0,0,0,3.469-.414v1.774a10.274,10.274,0,0,1-3.567.512M256.616,86.3v17.874h-2.148V95.365H251.1V93.493h3.37V86.3Z" transform="translate(-146.834 -52.288)" fill="#fff"/>
    <path id="패스_25" data-name="패스 25" d="M249.087,102.972h-6.739V86.615h8.572v1.892h-6.444v5.262h5.7v1.872h-5.7V101.1h4.71a11.15,11.15,0,0,0,3.469-.414v1.774A10.274,10.274,0,0,1,249.087,102.972ZM256.616,86.3v17.874h-2.148V95.365H251.1V93.493h3.37V86.3Z" transform="translate(-146.834 -52.288)" fill="none" stroke="#fff" stroke-miterlimit="10" stroke-width="1"/>
    <path id="패스_26" data-name="패스 26" d="M162.3,47.539c0,.711-1.322,1.288-2.953,1.288s-2.953-.577-2.953-1.288,1.322-1.288,2.953-1.288,2.953.577,2.953,1.288" transform="translate(-94.755 -28.023)" fill="#d37c9d"/>
    <path id="패스_27" data-name="패스 27" d="M159.042,48.721c-1.766,0-3.15-.652-3.15-1.485s1.384-1.485,3.15-1.485,3.15.652,3.15,1.485-1.384,1.485-3.15,1.485m0-2.576c-1.624,0-2.756.575-2.756,1.091s1.132,1.091,2.756,1.091,2.756-.575,2.756-1.091-1.132-1.091-2.756-1.091" transform="translate(-94.452 -27.72)" fill="#d37c9d"/>
  </g>
</svg>
