<svg xmlns="http://www.w3.org/2000/svg" xmlns:xlink="http://www.w3.org/1999/xlink" width="177.195" height="174.53" viewBox="0 0 177.195 174.53">
  <defs>
    <clipPath id="clip-path">
      <rect id="사각형_118" data-name="사각형 118" width="177.195" height="174.53" fill="#fff"/>
    </clipPath>
  </defs>
  <g id="slogun" style="mix-blend-mode: overlay;isolation: isolate">
    <text id="A" transform="matrix(0.049, -0.999, 0.999, 0.049, 27.511, 97.011)" fill="#fff" font-size="16" font-family="SegoeUI, Segoe UI"><tspan x="0" y="0">A</tspan></text>
    <text id="N" transform="translate(27.841 86.76) rotate(-77.538)" fill="#fff" font-size="16" font-family="SegoeUI, Segoe UI"><tspan x="0" y="0">N</tspan></text>
    <text id="I" transform="matrix(0.33, -0.944, 0.944, 0.33, 30.577, 75.201)" fill="#fff" font-size="16" font-family="SegoeUI, Segoe UI"><tspan x="0" y="0">I</tspan></text>
    <text id="M" transform="matrix(0.455, -0.891, 0.891, 0.455, 31.393, 71.569)" fill="#fff" font-size="16" font-family="SegoeUI, Segoe UI"><tspan x="0" y="0">M</tspan></text>
    <text id="A-2" data-name="A" transform="matrix(0.609, -0.793, 0.793, 0.609, 37.8, 59.143)" fill="#fff" font-size="16" font-family="SegoeUI, Segoe UI"><tspan x="0" y="0">A</tspan></text>
    <text id="L" transform="translate(44.059 50.977) rotate(-44.392)" fill="#fff" font-size="16" font-family="SegoeUI, Segoe UI"><tspan x="0" y="0">L</tspan></text>
    <text id="_" data-name=" " transform="translate(50.111 45.151) rotate(-39.318)" fill="#fff" font-size="16" font-family="SegoeUI, Segoe UI"><tspan x="0" y="0"> </tspan></text>
    <text id="P" transform="matrix(0.835, -0.55, 0.55, 0.835, 52.365, 42.988)" fill="#fff" font-size="16" font-family="SegoeUI, Segoe UI"><tspan x="0" y="0">P</tspan></text>
    <text id="R" transform="translate(60.892 37.251) rotate(-24.304)" fill="#fff" font-size="16" font-family="SegoeUI, Segoe UI"><tspan x="0" y="0">R</tspan></text>
    <text id="O" transform="translate(70.235 32.83) rotate(-14.511)" fill="#fff" font-size="16" font-family="SegoeUI, Segoe UI"><tspan x="0" y="0">O</tspan></text>
    <text id="T" transform="translate(82.076 29.834) rotate(-5.791)" fill="#fff" font-size="16" font-family="SegoeUI, Segoe UI"><tspan x="0" y="0">T</tspan></text>
    <text id="E" transform="matrix(0.999, 0.033, -0.033, 0.999, 90.043, 28.897)" fill="#fff" font-size="16" font-family="SegoeUI, Segoe UI"><tspan x="0" y="0">E</tspan></text>
    <text id="C" transform="matrix(0.983, 0.184, -0.184, 0.983, 99.55, 29.092)" fill="#fff" font-size="16" font-family="SegoeUI, Segoe UI"><tspan x="0" y="0">C</tspan></text>
    <text id="T-2" data-name="T" transform="matrix(0.947, 0.32, -0.32, 0.947, 109.688, 30.993)" fill="#fff" font-size="16" font-family="SegoeUI, Segoe UI"><tspan x="0" y="0">T</tspan></text>
    <text id="I-2" data-name="I" transform="translate(117.379 33.643) rotate(23.858)" fill="#fff" font-size="16" font-family="SegoeUI, Segoe UI"><tspan x="0" y="0">I</tspan></text>
    <text id="O-2" data-name="O" transform="matrix(0.859, 0.512, -0.512, 0.859, 120.93, 34.854)" fill="#fff" font-size="16" font-family="SegoeUI, Segoe UI"><tspan x="0" y="0">O</tspan></text>
    <text id="N-2" data-name="N" transform="matrix(0.752, 0.659, -0.659, 0.752, 131.418, 41.001)" fill="#fff" font-size="16" font-family="SegoeUI, Segoe UI"><tspan x="0" y="0">N</tspan></text>
    <text id="_2" data-name=" " transform="translate(140.227 48.96) rotate(47.727)" fill="#fff" font-size="16" font-family="SegoeUI, Segoe UI"><tspan x="0" y="0"> </tspan></text>
    <text id="C-2" data-name="C" transform="translate(142.514 51.112) rotate(53.674)" fill="#fff" font-size="16" font-family="SegoeUI, Segoe UI"><tspan x="0" y="0">C</tspan></text>
    <text id="E-2" data-name="E" transform="translate(148.664 59.371) rotate(62.383)" fill="#fff" font-size="16" font-family="SegoeUI, Segoe UI"><tspan x="0" y="0">E</tspan></text>
    <text id="N-3" data-name="N" transform="translate(153.237 67.702) rotate(71.708)" fill="#fff" font-size="16" font-family="SegoeUI, Segoe UI"><tspan x="0" y="0">N</tspan></text>
    <text id="T-3" data-name="T" transform="translate(156.888 78.914) rotate(80.229)" fill="#fff" font-size="16" font-family="SegoeUI, Segoe UI"><tspan x="0" y="0">T</tspan></text>
    <text id="E-3" data-name="E" transform="matrix(0.037, 0.999, -0.999, 0.037, 158.377, 86.797)" fill="#fff" font-size="16" font-family="SegoeUI, Segoe UI"><tspan x="0" y="0">E</tspan></text>
    <text id="R-2" data-name="R" transform="translate(158.854 96.291) rotate(96.619)" fill="#fff" font-size="16" font-family="SegoeUI, Segoe UI"><tspan x="0" y="0">R</tspan></text>
    <path id="패스_136" data-name="패스 136" d="M40.767,145.972a2.2,2.2,0,0,1,2.2-.786,10.991,10.991,0,0,1,4.7,2.608,10.912,10.912,0,0,1,3.483,4.074,2.218,2.218,0,0,1-.315,2.322,2.285,2.285,0,0,1-2.223.788,10.969,10.969,0,0,1-4.667-2.624,11.053,11.053,0,0,1-3.52-4.058A2.267,2.267,0,0,1,40.767,145.972Zm1.129.922a1.157,1.157,0,0,0-.149,1.179,9.27,9.27,0,0,0,2.962,3.347,9.278,9.278,0,0,0,3.872,2.231,1.122,1.122,0,0,0,1.125-.383,1.161,1.161,0,0,0,.15-1.179,9.272,9.272,0,0,0-2.962-3.347,9.261,9.261,0,0,0-3.872-2.231A1.2,1.2,0,0,0,41.9,146.894Zm16.4-2.415L49.874,137.6l-1.833,2.246,8.508,6.943-.775.949-4.309-3.518-1.377,1.688,5.076,4.143-.785.963-11.241-9.175.785-.962,5.035,4.109,1.377-1.688-4.184-3.414,3.393-4.157,9.539,7.786Z" fill="#fff"/>
    <path id="패스_137" data-name="패스 137" d="M57.766,151.634l.505-1.134,13.246,5.9-.506,1.134-5.982-2.666-.739,1.66,4.979,2.219L67.643,162.4l-9.926-4.424-.659,1.479,10.288,4.585-.477,1.068-11.6-5.171,1.619-3.632,9.926,4.424.666-1.495-9.926-4.424.476-1.068,4.947,2.2.74-1.66Zm13.393,2.876L59.918,149.5l1.9-4.273,11.241,5.01Zm-.832-1.67.931-2.087-8.612-3.838L61.716,149Z" fill="#fff"/>
    <path id="패스_138" data-name="패스 138" d="M76.913,154.792l9.589,1.464.511-3.345,1.423.217-1.455,9.537-5.463-.834-.632,4.145,6.333.967-.19,1.245-14.162-2.161.19-1.246,6.387.975.633-4.145-5.533-.845L76,151.23l1.423.217Zm8.837,6.392.56-3.665-9.59-1.464-.56,3.665Z" fill="#fff"/>
    <path id="패스_139" data-name="패스 139" d="M104.591,154.228,91.3,155.713l-.14-1.252,5.92-.662-.238-2.128,1.466-.164.238,2.128,5.9-.659Zm-12.345,6.359a2.636,2.636,0,0,1,.883-2.308,8.912,8.912,0,0,1,4.979-1.788,8.911,8.911,0,0,1,5.251.645,2.692,2.692,0,0,1,.487,4.363,8.009,8.009,0,0,1-4.231,1.668l.333,2.987,6.385-.714.14,1.252-14.235,1.591-.14-1.252,6.42-.717-.334-2.987a8.2,8.2,0,0,1-4.567-.684A2.658,2.658,0,0,1,92.246,160.587Zm1.431-.16a1.478,1.478,0,0,0,.76,1.128c.843.576,2.4.71,4.293.5a6.918,6.918,0,0,0,4.076-1.433,1.478,1.478,0,0,0,.492-1.269,1.536,1.536,0,0,0-.761-1.146,7.057,7.057,0,0,0-4.291-.48,7.019,7.019,0,0,0-4.079,1.416A1.536,1.536,0,0,0,93.677,160.427Z" fill="#fff"/>
    <path id="패스_140" data-name="패스 140" d="M111.281,155.542a6.753,6.753,0,0,1-2.171,4.525l-.5-1.254a5.235,5.235,0,0,0,.943-5.664l-1.164-2.926,1.321-.526,1.151,2.893a4.632,4.632,0,0,0,4.456,3.167l.5,1.254A6.219,6.219,0,0,1,111.281,155.542Zm13.593,5.44-11.54,4.591-1.949-4.9,1.338-.533,1.49,3.747,10.2-4.059Zm-9.687-10.132-1.144-2.876,1.287-.512,3.939,9.9-1.288.512-2.328-5.853-2.392.951-.466-1.17Zm6.2,6L117.3,146.58l1.3-.519,4.085,10.268Z" fill="#fff"/>
    <path id="패스_141" data-name="패스 141" d="M126.011,149.562l4.4-3.315.758,1.006-4.4,3.315,3.337,4.427,3.55-2.676a9.3,9.3,0,0,0,2.507-2.565l.726.963a8.726,8.726,0,0,1-2.529,2.626l-4.642,3.5-8.841-11.729,6.037-4.55.759,1.006-4.9,3.694Zm4.9-12.37,9.7,12.864-1.165.878-4.9-6.5-2.7,2.037-.769-1.021,2.7-2.037-4.03-5.347Z" fill="#fff"/>
    <g id="그룹_109" data-name="그룹 109">
      <g id="그룹_108" data-name="그룹 108" clip-path="url(#clip-path)">
        <path id="패스_142" data-name="패스 142" d="M30.221,121.061c-1.37.1-4.174.441-4.44,3.594s3.3,3.651,3.3,3.651c3.173,4.565,6.97.582,6.753-1.4a49.307,49.307,0,0,0-1.662-5.484,11.5,11.5,0,0,0-3.947-.365" fill="#fff"/>
        <path id="패스_143" data-name="패스 143" d="M30.221,121.061c-1.37.1-4.174.441-4.44,3.594s3.3,3.651,3.3,3.651c3.173,4.565,6.97.582,6.753-1.4a49.307,49.307,0,0,0-1.662-5.484A11.5,11.5,0,0,0,30.221,121.061Z" fill="#fff" stroke="#1d1d1d" stroke-linecap="round" stroke-linejoin="round" stroke-width="0.5"/>
        <path id="패스_144" data-name="패스 144" d="M35.176,118.571c-.693.894-1.709,1.266-2.268.831s-.451-1.51.243-2.4,1.709-1.265,2.268-.831.45,1.511-.243,2.4" fill="#fff"/>
        <path id="패스_145" data-name="패스 145" d="M35.176,118.571c-.693.894-1.709,1.266-2.268.831s-.451-1.51.243-2.4,1.709-1.265,2.268-.831S35.869,117.679,35.176,118.571Z" fill="#fff" stroke="#1d1d1d" stroke-linecap="round" stroke-linejoin="round" stroke-width="0.5"/>
        <path id="패스_146" data-name="패스 146" d="M38.68,121.293c-.693.893-1.709,1.265-2.268.83s-.451-1.51.243-2.4,1.709-1.265,2.268-.83.45,1.51-.243,2.4" fill="#fff"/>
        <path id="패스_147" data-name="패스 147" d="M38.68,121.293c-.693.893-1.709,1.265-2.268.83s-.451-1.51.243-2.4,1.709-1.265,2.268-.83S39.373,120.4,38.68,121.293Z" fill="#fff" stroke="#1d1d1d" stroke-linecap="round" stroke-linejoin="round" stroke-width="0.5"/>
        <path id="패스_148" data-name="패스 148" d="M38.9,126.744c-.867.226-1.694-.069-1.848-.657s.426-1.25,1.293-1.475,1.694.068,1.847.657-.425,1.249-1.292,1.475" fill="#fff"/>
        <path id="패스_149" data-name="패스 149" d="M38.9,126.744c-.867.226-1.694-.069-1.848-.657s.426-1.25,1.293-1.475,1.694.068,1.847.657S39.767,126.518,38.9,126.744Z" fill="#fff" stroke="#1d1d1d" stroke-linecap="round" stroke-linejoin="round" stroke-width="0.5"/>
        <path id="패스_150" data-name="패스 150" d="M30.754,117.95c-.025.9-.538,1.608-1.146,1.591s-1.081-.756-1.057-1.652.538-1.608,1.146-1.591,1.082.756,1.057,1.652" fill="#fff"/>
        <path id="패스_151" data-name="패스 151" d="M30.754,117.95c-.025.9-.538,1.608-1.146,1.591s-1.081-.756-1.057-1.652.538-1.608,1.146-1.591S30.779,117.054,30.754,117.95Z" fill="#fff" stroke="#1d1d1d" stroke-linecap="round" stroke-linejoin="round" stroke-width="0.5"/>
        <path id="패스_152" data-name="패스 152" d="M147.438,131.282c-.361,1.325-.966,4.085,1.922,5.379s4.536-1.9,4.536-1.9c5.358-1.484,2.856-6.385.918-6.835a49.277,49.277,0,0,0-5.725-.247,11.5,11.5,0,0,0-1.651,3.6" fill="#fff"/>
        <path id="패스_153" data-name="패스 153" d="M147.438,131.282c-.361,1.325-.966,4.085,1.922,5.379s4.536-1.9,4.536-1.9c5.358-1.484,2.856-6.385.918-6.835a49.277,49.277,0,0,0-5.725-.247A11.5,11.5,0,0,0,147.438,131.282Z" fill="#fff" stroke="#1d1d1d" stroke-linecap="round" stroke-linejoin="round" stroke-width="0.5"/>
        <path id="패스_154" data-name="패스 154" d="M146.729,125.782c.613.95.628,2.031.033,2.415s-1.575-.074-2.188-1.024-.627-2.032-.032-2.416,1.574.075,2.187,1.025" fill="#fff"/>
        <path id="패스_155" data-name="패스 155" d="M146.729,125.782c.613.95.628,2.031.033,2.415s-1.575-.074-2.188-1.024-.627-2.032-.032-2.416S146.116,124.832,146.729,125.782Z" fill="#fff" stroke="#1d1d1d" stroke-linecap="round" stroke-linejoin="round" stroke-width="0.5"/>
        <path id="패스_156" data-name="패스 156" d="M150.457,123.376c.613.95.628,2.031.033,2.415s-1.575-.074-2.188-1.024-.627-2.032-.032-2.416,1.574.075,2.187,1.025" fill="#fff"/>
        <path id="패스_157" data-name="패스 157" d="M150.457,123.376c.613.95.628,2.031.033,2.415s-1.575-.074-2.188-1.024-.627-2.032-.032-2.416S149.844,122.426,150.457,123.376Z" fill="#fff" stroke="#1d1d1d" stroke-linecap="round" stroke-linejoin="round" stroke-width="0.5"/>
        <path id="패스_158" data-name="패스 158" d="M155.673,124.973c-.074.893-.626,1.576-1.232,1.526s-1.038-.815-.964-1.708.626-1.576,1.232-1.526,1.038.815.964,1.708" fill="#fff"/>
        <path id="패스_159" data-name="패스 159" d="M155.673,124.973c-.074.893-.626,1.576-1.232,1.526s-1.038-.815-.964-1.708.626-1.576,1.232-1.526S155.747,124.08,155.673,124.973Z" fill="#fff" stroke="#1d1d1d" stroke-linecap="round" stroke-linejoin="round" stroke-width="0.5"/>
        <path id="패스_160" data-name="패스 160" d="M144.679,129.748c.837.32,1.339,1.04,1.122,1.608s-1.072.77-1.908.45-1.34-1.039-1.123-1.608,1.072-.77,1.909-.45" fill="#fff"/>
        <path id="패스_161" data-name="패스 161" d="M144.679,129.748c.837.32,1.339,1.04,1.122,1.608s-1.072.77-1.908.45-1.34-1.039-1.123-1.608S143.842,129.428,144.679,129.748Z" fill="#fff" stroke="#1d1d1d" stroke-linecap="round" stroke-linejoin="round" stroke-width="0.5"/>
      </g>
    </g>
  </g>
</svg>
